<svg width="25" height="22" viewBox="0 0 25 22" fill="none" xmlns="http://www.w3.org/2000/svg">
<path d="M1.93625 19.3371C3.43387 21.175 6.21944 21.175 11.7918 21.175H12.6929C18.2653 21.175 21.0521 21.175 22.5497 19.3371M1.93625 19.3371C0.438632 17.498 0.952814 14.7075 1.97993 9.12394C2.71002 5.15569 3.07444 3.17029 4.46099 1.99762M22.5497 19.3371C24.0473 17.498 23.5332 14.7075 22.5061 9.12394C21.776 5.15569 21.4103 3.17029 20.0237 1.99762M20.0237 1.99762C18.6384 0.824951 16.6553 0.824951 12.6929 0.824951H11.7918C7.82938 0.824951 5.84753 0.824951 4.46099 1.99762" stroke="#7D41D3" stroke-width="1.5"/>
<path d="M8.71045 5.9126C8.96829 6.65732 9.44645 7.30221 10.079 7.75836C10.7116 8.21451 11.4674 8.45946 12.2423 8.45946C13.0172 8.45946 13.7731 8.21451 14.4056 7.75836C15.0382 7.30221 15.5164 6.65732 15.7742 5.9126" stroke="#7D41D3" stroke-width="1.5" stroke-linecap="round"/>
</svg>
