<svg width="1174" height="264" viewBox="0 0 1174 264" fill="none" xmlns="http://www.w3.org/2000/svg">
<path d="M103.565 233.92V262H6.26V123.55H101.81V151.63H38.24V178.54H92.84V204.475H38.24V233.92H103.565ZM143.273 123.55L173.303 171.325L203.333 123.55H238.043L192.218 193.75L236.483 262H201.773L173.303 216.175L144.833 262H109.928L154.193 193.75L108.368 123.55H143.273ZM250.01 262V123.55H309.095C315.725 123.55 321.77 124.915 327.23 127.645C332.82 130.245 337.63 133.82 341.66 138.37C345.69 142.79 348.81 147.795 351.02 153.385C353.23 158.975 354.335 164.695 354.335 170.545C354.335 178.475 352.45 186.015 348.68 193.165C345.04 200.315 339.905 206.165 333.275 210.715C326.775 215.135 319.04 217.345 310.07 217.345H281.99V262H250.01ZM281.99 189.46H308.12C310.59 189.46 312.865 188.745 314.945 187.315C317.025 185.885 318.715 183.74 320.015 180.88C321.315 178.02 321.965 174.51 321.965 170.35C321.965 166.06 321.185 162.55 319.625 159.82C318.195 156.96 316.31 154.88 313.97 153.58C311.76 152.28 309.42 151.63 306.95 151.63H281.99V189.46ZM468.809 233.92V262H371.504V123.55H467.054V151.63H403.484V178.54H458.084V204.475H403.484V233.92H468.809ZM488.238 262V123.55H550.638C557.138 123.55 563.118 124.915 568.578 127.645C574.168 130.245 578.978 133.82 583.008 138.37C587.038 142.79 590.158 147.795 592.368 153.385C594.708 158.975 595.878 164.63 595.878 170.35C595.878 176.07 594.968 181.53 593.148 186.73C591.328 191.8 588.728 196.415 585.348 200.575C581.968 204.605 577.938 207.92 573.258 210.52L603.678 262H568.383L541.863 217.345H520.218V262H488.238ZM520.218 189.46H549.468C552.068 189.46 554.343 188.68 556.293 187.12C558.373 185.43 560.063 183.155 561.363 180.295C562.663 177.435 563.313 174.12 563.313 170.35C563.313 166.58 562.533 163.33 560.973 160.6C559.543 157.74 557.723 155.53 555.513 153.97C553.303 152.41 550.963 151.63 548.493 151.63H520.218V189.46ZM618.872 262V123.55H650.852V262H618.872ZM774.639 233.92V262H677.334V123.55H772.884V151.63H709.314V178.54H763.914V204.475H709.314V233.92H774.639ZM826.048 182.83V262H794.068V123.55H819.418L883.573 205.06V123.55H915.553V262H889.423L826.048 182.83ZM934.036 191.605C934.036 183.155 935.596 174.9 938.716 166.84C941.836 158.65 946.386 151.24 952.366 144.61C958.346 137.98 965.626 132.715 974.206 128.815C982.786 124.785 992.536 122.77 1003.46 122.77C1016.46 122.77 1027.7 125.565 1037.19 131.155C1046.81 136.745 1053.96 144.025 1058.64 152.995L1034.07 170.155C1031.99 165.215 1029.2 161.38 1025.69 158.65C1022.31 155.92 1018.54 154.035 1014.38 152.995C1010.35 151.825 1006.45 151.24 1002.68 151.24C996.566 151.24 991.236 152.475 986.686 154.945C982.136 157.285 978.366 160.47 975.376 164.5C972.386 168.53 970.176 173.015 968.746 177.955C967.316 182.895 966.601 187.835 966.601 192.775C966.601 198.235 967.446 203.5 969.136 208.57C970.826 213.64 973.231 218.125 976.351 222.025C979.601 225.925 983.501 229.045 988.051 231.385C992.601 233.595 997.606 234.7 1003.07 234.7C1006.97 234.7 1010.93 234.05 1014.96 232.75C1018.99 231.45 1022.7 229.435 1026.08 226.705C1029.59 223.845 1032.25 220.14 1034.07 215.59L1060.2 230.995C1057.47 237.755 1052.99 243.54 1046.75 248.35C1040.51 253.16 1033.42 256.865 1025.49 259.465C1017.69 261.935 1009.96 263.17 1002.29 263.17C992.276 263.17 983.046 261.155 974.596 257.125C966.276 252.965 959.061 247.505 952.951 240.745C946.971 233.855 942.291 226.185 938.911 217.735C935.661 209.155 934.036 200.445 934.036 191.605ZM1173.59 233.92V262H1076.28V123.55H1171.83V151.63H1108.26V178.54H1162.86V204.475H1108.26V233.92H1173.59Z" fill="white"/>
<path d="M0.16 86V0.799995H19.84V68.72H61.12V86H0.16ZM70.3553 86V0.799995H90.0353V86H70.3553ZM118.692 0.799995L138.732 62.96L158.532 0.799995H179.292L148.332 86H129.012L97.8119 0.799995H118.692ZM247.071 68.72V86H187.191V0.799995H245.991V18.08H206.871V34.64H240.471V50.6H206.871V68.72H247.071ZM348.439 18.08H322.519V86H302.839V18.08H276.799V0.799995H348.439V18.08ZM431.371 0.799995V86H411.691V51.08H377.731V86H358.051V0.799995H377.731V33.8H411.691V0.799995H431.371ZM507.579 68.72V86H447.699V0.799995H506.499V18.08H467.379V34.64H500.979V50.6H467.379V68.72H507.579Z" fill="#F7CC7E"/>
</svg>
