<svg width="399" height="308" viewBox="0 0 399 308" fill="none" xmlns="http://www.w3.org/2000/svg">
<path d="M117.905 21.6878C117.883 22.5053 118.225 23.6895 117.869 23.9266C112.893 27.2458 108.851 32.1297 102.241 32.6351C91.3487 27.1932 79.8847 22.8802 68.103 19.1945C61.6225 17.122 54.7905 15.5886 47.8134 15.4254C35.7197 15.2977 30.5212 21.5338 33.7886 32.1172C35.2515 36.8168 37.0699 41.2793 39.5694 45.4813C50.5678 64.0305 65.2812 80.0462 80.5406 95.4485C119.446 134.474 162.884 168.731 208.799 200.424C222.613 210.007 237.359 218.526 251.783 227.371C263.908 234.869 276.448 241.704 288.602 248.989C304.502 258.483 321.65 266.285 339.781 271.993C347.636 274.45 355.617 276.656 364.095 276.953C375.542 277.429 381.8 272.507 378.99 261.951C378.476 260.024 378.025 257.971 377.316 256.119C370.89 240.776 360.005 228.353 349.377 215.73C349.163 209.339 352.551 204.2 356.526 199.14C372.746 218.22 386.606 238.709 394.995 262.1C397.429 268.754 398.661 275.767 397.779 283.083C396.462 294.51 388.843 302.582 376.755 305.385C363.204 308.445 350.211 306.84 337.269 304.205C318.544 300.444 300.959 294.124 283.848 286.711C282.111 285.96 280.336 284.818 278.095 285.372C277.36 284.035 276.016 283.437 274.672 282.838C259.628 276.456 245.254 268.907 231.201 261.033C202.634 244.956 175.414 227.15 149.38 207.778C111.89 179.741 77.1673 149.027 46.597 114.298C45.4733 113.109 44.8282 111.131 42.2946 111.797C43.1426 109.348 41.3975 107.993 40.105 106.364C26.3864 89.1583 13.476 71.4416 5.38453 50.8703C2.18251 42.7904 -0.012882 34.4266 0.913016 25.4757C2.18072 12.7531 10.6753 4.34599 24.302 2.06688C40.9527 -0.762042 56.6042 2.25263 72.0392 6.15921C85.872 9.66727 99.0057 14.5552 112.046 19.7823C113.982 20.7612 115.596 22.0654 117.905 21.6878Z" fill="#F7CC7E"/>
</svg>
