<svg width="271" height="311" viewBox="0 0 271 311" fill="none" xmlns="http://www.w3.org/2000/svg">
<g filter="url(#filter0_b_10_170)">
<path d="M0 0H271V271C271 293.091 253.091 311 231 311H40C17.9086 311 0 293.091 0 271V0Z" fill="#160B25" fill-opacity="0.78"/>
</g>
<path d="M66.7299 168.43C66.6599 168.313 66.4149 168.138 65.9949 167.905C65.5749 167.648 65.0499 167.38 64.4199 167.1C63.7899 166.82 63.1016 166.575 62.3549 166.365C61.6083 166.155 60.8616 166.05 60.1149 166.05C59.1349 166.05 58.3766 166.225 57.8399 166.575C57.3033 166.902 57.0349 167.415 57.0349 168.115C57.0349 168.675 57.2333 169.118 57.6299 169.445C58.0499 169.772 58.6449 170.063 59.4149 170.32C60.1849 170.553 61.1299 170.833 62.2499 171.16C63.8366 171.58 65.2133 172.093 66.3799 172.7C67.5466 173.283 68.4333 174.042 69.0399 174.975C69.6699 175.908 69.9849 177.145 69.9849 178.685C69.9849 180.085 69.7283 181.275 69.2149 182.255C68.7016 183.212 68.0016 183.993 67.1149 184.6C66.2516 185.183 65.2599 185.615 64.1399 185.895C63.0199 186.152 61.8649 186.28 60.6749 186.28C59.4616 186.28 58.2133 186.163 56.9299 185.93C55.6699 185.673 54.4566 185.323 53.2899 184.88C52.1233 184.413 51.0499 183.853 50.0699 183.2L52.5899 178.195C52.6833 178.312 52.9866 178.533 53.4999 178.86C54.0133 179.163 54.6433 179.49 55.3899 179.84C56.1599 180.167 57.0116 180.458 57.9449 180.715C58.8783 180.972 59.8233 181.1 60.7799 181.1C61.8066 181.1 62.5649 180.937 63.0549 180.61C63.5683 180.283 63.8249 179.828 63.8249 179.245C63.8249 178.615 63.5566 178.125 63.0199 177.775C62.5066 177.425 61.7949 177.11 60.8849 176.83C59.9983 176.55 58.9716 176.235 57.8049 175.885C56.2883 175.418 55.0283 174.893 54.0249 174.31C53.0449 173.727 52.3099 173.015 51.8199 172.175C51.3533 171.335 51.1199 170.285 51.1199 169.025C51.1199 167.275 51.5283 165.805 52.3449 164.615C53.1849 163.402 54.3049 162.492 55.7049 161.885C57.1049 161.255 58.6333 160.94 60.2899 160.94C61.4566 160.94 62.5766 161.08 63.6499 161.36C64.7466 161.64 65.7616 161.99 66.6949 162.41C67.6516 162.83 68.5033 163.25 69.2499 163.67L66.7299 168.43ZM84.3196 185.02C83.8063 185.23 83.2346 185.44 82.6046 185.65C81.998 185.86 81.3563 186.023 80.6796 186.14C80.003 186.28 79.338 186.35 78.6846 186.35C77.7513 186.35 76.888 186.198 76.0946 185.895C75.3246 185.568 74.7063 185.043 74.2396 184.32C73.7963 183.597 73.5746 182.64 73.5746 181.45V171.86H71.2296V167.625H73.5746V161.78H79.1746V167.625H82.9196V171.86H79.1746V179.525C79.1746 180.132 79.3263 180.575 79.6296 180.855C79.933 181.112 80.318 181.24 80.7846 181.24C81.1813 181.24 81.6013 181.17 82.0446 181.03C82.5113 180.89 82.908 180.738 83.2346 180.575L84.3196 185.02ZM98.1567 172.42C96.8033 172.42 95.5783 172.642 94.4817 173.085C93.385 173.505 92.5917 174.135 92.1017 174.975V186H86.5017V167.625H91.6467V171.335C92.2767 170.098 93.0933 169.13 94.0967 168.43C95.1 167.73 96.15 167.368 97.2467 167.345C97.5033 167.345 97.69 167.345 97.8067 167.345C97.9467 167.345 98.0633 167.357 98.1567 167.38V172.42ZM99.2236 180.505C99.2236 179.292 99.5619 178.23 100.239 177.32C100.915 176.41 101.849 175.698 103.039 175.185C104.229 174.648 105.594 174.38 107.134 174.38C107.88 174.38 108.615 174.45 109.339 174.59C110.062 174.707 110.692 174.882 111.229 175.115V174.31C111.229 173.307 110.925 172.537 110.319 172C109.712 171.463 108.79 171.195 107.554 171.195C106.527 171.195 105.559 171.37 104.649 171.72C103.762 172.07 102.817 172.572 101.814 173.225L100.134 169.655C101.347 168.862 102.607 168.267 103.914 167.87C105.244 167.473 106.644 167.275 108.114 167.275C110.867 167.275 113.002 167.94 114.519 169.27C116.059 170.577 116.829 172.478 116.829 174.975V179.77C116.829 180.33 116.91 180.727 117.074 180.96C117.26 181.17 117.575 181.298 118.019 181.345V186C117.552 186.093 117.109 186.163 116.689 186.21C116.292 186.257 115.942 186.28 115.639 186.28C114.589 186.28 113.784 186.07 113.224 185.65C112.687 185.23 112.349 184.658 112.209 183.935L112.104 183.13C111.287 184.18 110.307 184.985 109.164 185.545C108.044 186.082 106.865 186.35 105.629 186.35C104.415 186.35 103.319 186.093 102.339 185.58C101.382 185.067 100.624 184.367 100.064 183.48C99.5036 182.593 99.2236 181.602 99.2236 180.505ZM110.354 181.205C110.61 180.995 110.82 180.762 110.984 180.505C111.147 180.248 111.229 180.003 111.229 179.77V178.125C110.762 177.938 110.237 177.798 109.654 177.705C109.094 177.588 108.569 177.53 108.079 177.53C107.052 177.53 106.2 177.763 105.524 178.23C104.847 178.673 104.509 179.268 104.509 180.015C104.509 180.435 104.625 180.82 104.859 181.17C105.092 181.52 105.407 181.8 105.804 182.01C106.224 182.22 106.714 182.325 107.274 182.325C107.834 182.325 108.394 182.22 108.954 182.01C109.514 181.8 109.98 181.532 110.354 181.205ZM142.814 167.625H148.134L140.539 186H135.919L133.119 178.51L130.319 186H125.699L118.104 167.625H123.389L128.324 180.715L130.074 175.605L126.784 167.625H131.369L133.119 173.155L134.869 167.625H139.419L136.164 175.605L137.914 180.715L142.814 167.625ZM158.041 186.35C156.477 186.35 155.089 186.093 153.876 185.58C152.662 185.067 151.624 184.367 150.761 183.48C149.921 182.593 149.279 181.578 148.836 180.435C148.392 179.292 148.171 178.078 148.171 176.795C148.171 175.115 148.556 173.552 149.326 172.105C150.119 170.658 151.251 169.492 152.721 168.605C154.191 167.718 155.964 167.275 158.041 167.275C160.141 167.275 161.914 167.73 163.361 168.64C164.831 169.527 165.927 170.693 166.651 172.14L161.191 173.785C160.841 173.225 160.386 172.793 159.826 172.49C159.289 172.187 158.682 172.035 158.006 172.035C157.236 172.035 156.536 172.233 155.906 172.63C155.299 173.027 154.809 173.575 154.436 174.275C154.086 174.975 153.911 175.815 153.911 176.795C153.911 177.752 154.097 178.592 154.471 179.315C154.844 180.038 155.334 180.61 155.941 181.03C156.547 181.427 157.236 181.625 158.006 181.625C158.472 181.625 158.904 181.555 159.301 181.415C159.721 181.252 160.094 181.03 160.421 180.75C160.771 180.47 161.039 180.155 161.226 179.805L166.686 181.485C166.242 182.418 165.601 183.258 164.761 184.005C163.944 184.728 162.976 185.3 161.856 185.72C160.736 186.14 159.464 186.35 158.041 186.35ZM169.042 179.385V167.625H174.642V178.16C174.642 179.28 174.863 180.143 175.307 180.75C175.75 181.333 176.38 181.625 177.197 181.625C177.71 181.625 178.2 181.543 178.667 181.38C179.133 181.193 179.588 180.902 180.032 180.505C180.475 180.108 180.872 179.595 181.222 178.965V167.625H186.822V179.77C186.822 180.33 186.903 180.727 187.067 180.96C187.253 181.17 187.568 181.298 188.012 181.345V186C187.498 186.093 187.043 186.163 186.647 186.21C186.273 186.257 185.935 186.28 185.632 186.28C184.652 186.28 183.87 186.082 183.287 185.685C182.703 185.265 182.342 184.682 182.202 183.935L182.097 182.815C181.257 184.028 180.207 184.927 178.947 185.51C177.71 186.07 176.322 186.35 174.782 186.35C172.915 186.35 171.492 185.755 170.512 184.565C169.532 183.375 169.042 181.648 169.042 179.385ZM202.815 172.42C201.462 172.42 200.237 172.642 199.14 173.085C198.043 173.505 197.25 174.135 196.76 174.975V186H191.16V167.625H196.305V171.335C196.935 170.098 197.752 169.13 198.755 168.43C199.758 167.73 200.808 167.368 201.905 167.345C202.162 167.345 202.348 167.345 202.465 167.345C202.605 167.345 202.722 167.357 202.815 167.38V172.42ZM205.314 188.765C205.78 188.905 206.212 189.01 206.609 189.08C207.029 189.173 207.402 189.22 207.729 189.22C208.172 189.22 208.545 189.115 208.849 188.905C209.175 188.718 209.455 188.38 209.689 187.89C209.922 187.423 210.132 186.793 210.319 186L203.319 167.625H209.094L213.364 180.26L217.004 167.625H222.289L215.289 188.975C214.962 189.978 214.46 190.865 213.784 191.635C213.107 192.405 212.29 193 211.334 193.42C210.377 193.863 209.327 194.085 208.184 194.085C207.694 194.085 207.215 194.038 206.749 193.945C206.282 193.875 205.804 193.747 205.314 193.56V188.765Z" fill="#FF8FBF"/>
<path d="M77.7422 202.765H80.0872L72.2472 221H70.1822L66.3672 211.935L62.5872 221H60.5222L52.6822 202.765H54.9922L61.6422 218.55L65.0022 210.325L61.9222 202.8H64.0572L66.3672 208.715L68.7122 202.8H70.8122L67.7672 210.325L71.1272 218.55L77.7422 202.765ZM83.2539 221V202.765H85.6339V221H83.2539ZM83.2539 198.95V195.45H85.6339V198.95H83.2539ZM99.626 220.125C99.4393 220.195 99.1476 220.323 98.751 220.51C98.3543 220.697 97.876 220.86 97.316 221C96.756 221.14 96.1493 221.21 95.496 221.21C94.8193 221.21 94.1776 221.082 93.571 220.825C92.9876 220.568 92.521 220.183 92.171 219.67C91.821 219.133 91.646 218.48 91.646 217.71V204.655H89.126V202.765H91.646V196.605H94.026V202.765H98.226V204.655H94.026V217.045C94.0726 217.698 94.306 218.188 94.726 218.515C95.1693 218.842 95.671 219.005 96.231 219.005C96.8843 219.005 97.4793 218.9 98.016 218.69C98.5526 218.457 98.8793 218.293 98.996 218.2L99.626 220.125ZM117.93 221H115.55V210.815C115.55 208.762 115.188 207.222 114.465 206.195C113.741 205.145 112.703 204.62 111.35 204.62C110.463 204.62 109.576 204.853 108.69 205.32C107.826 205.763 107.056 206.382 106.38 207.175C105.726 207.945 105.26 208.832 104.98 209.835V221H102.6V195.45H104.98V206.895C105.703 205.542 106.706 204.468 107.99 203.675C109.296 202.858 110.685 202.45 112.155 202.45C113.205 202.45 114.091 202.637 114.815 203.01C115.561 203.383 116.156 203.932 116.6 204.655C117.066 205.355 117.405 206.183 117.615 207.14C117.825 208.073 117.93 209.135 117.93 210.325V221ZM130.771 208.4C130.771 206.883 131.027 205.402 131.541 203.955C132.077 202.485 132.847 201.155 133.851 199.965C134.854 198.752 136.091 197.795 137.561 197.095C139.031 196.372 140.699 196.01 142.566 196.01C144.782 196.01 146.672 196.523 148.236 197.55C149.822 198.553 150.989 199.848 151.736 201.435L149.811 202.625C149.274 201.528 148.597 200.665 147.781 200.035C146.964 199.382 146.089 198.915 145.156 198.635C144.246 198.355 143.336 198.215 142.426 198.215C140.932 198.215 139.614 198.518 138.471 199.125C137.327 199.708 136.359 200.502 135.566 201.505C134.796 202.485 134.212 203.593 133.816 204.83C133.419 206.043 133.221 207.28 133.221 208.54C133.221 209.917 133.454 211.235 133.921 212.495C134.387 213.755 135.041 214.875 135.881 215.855C136.721 216.812 137.701 217.582 138.821 218.165C139.964 218.725 141.201 219.005 142.531 219.005C143.464 219.005 144.421 218.842 145.401 218.515C146.381 218.188 147.291 217.687 148.131 217.01C148.994 216.333 149.682 215.458 150.196 214.385L152.226 215.435C151.712 216.672 150.919 217.722 149.846 218.585C148.772 219.448 147.571 220.102 146.241 220.545C144.934 220.988 143.651 221.21 142.391 221.21C140.687 221.21 139.124 220.848 137.701 220.125C136.277 219.378 135.041 218.398 133.991 217.185C132.964 215.948 132.171 214.572 131.611 213.055C131.051 211.515 130.771 209.963 130.771 208.4ZM171.25 221H168.87V210.815C168.87 208.762 168.508 207.222 167.785 206.195C167.062 205.145 166.023 204.62 164.67 204.62C163.783 204.62 162.897 204.853 162.01 205.32C161.147 205.763 160.377 206.382 159.7 207.175C159.047 207.945 158.58 208.832 158.3 209.835V221H155.92V195.45H158.3V206.895C159.023 205.542 160.027 204.468 161.31 203.675C162.617 202.858 164.005 202.45 165.475 202.45C166.525 202.45 167.412 202.637 168.135 203.01C168.882 203.383 169.477 203.932 169.92 204.655C170.387 205.355 170.725 206.183 170.935 207.14C171.145 208.073 171.25 209.135 171.25 210.325V221ZM176.325 221V202.765H178.705V221H176.325ZM176.325 198.95V195.45H178.705V198.95H176.325ZM193.257 221.35C191.741 221.35 190.376 220.953 189.162 220.16C187.972 219.367 187.027 218.387 186.327 217.22V228.455H183.947V202.765H186.082V206.3C186.806 205.157 187.774 204.235 188.987 203.535C190.201 202.812 191.496 202.45 192.872 202.45C194.132 202.45 195.287 202.718 196.337 203.255C197.387 203.768 198.297 204.468 199.067 205.355C199.837 206.242 200.432 207.257 200.852 208.4C201.296 209.52 201.517 210.687 201.517 211.9C201.517 213.603 201.167 215.178 200.467 216.625C199.791 218.048 198.834 219.192 197.597 220.055C196.361 220.918 194.914 221.35 193.257 221.35ZM192.592 219.25C193.596 219.25 194.494 219.052 195.287 218.655C196.081 218.235 196.757 217.675 197.317 216.975C197.901 216.275 198.344 215.493 198.647 214.63C198.951 213.743 199.102 212.833 199.102 211.9C199.102 210.92 198.927 209.987 198.577 209.1C198.251 208.213 197.772 207.432 197.142 206.755C196.512 206.078 195.789 205.542 194.972 205.145C194.156 204.748 193.269 204.55 192.312 204.55C191.706 204.55 191.076 204.667 190.422 204.9C189.769 205.133 189.139 205.472 188.532 205.915C187.949 206.335 187.459 206.813 187.062 207.35C186.666 207.887 186.421 208.458 186.327 209.065V214.665C186.701 215.528 187.202 216.31 187.832 217.01C188.462 217.687 189.186 218.235 190.002 218.655C190.842 219.052 191.706 219.25 192.592 219.25ZM211.534 221.35C210.04 221.35 208.652 221.105 207.369 220.615C206.085 220.125 204.977 219.378 204.044 218.375L205.024 216.695C206.05 217.652 207.077 218.352 208.104 218.795C209.154 219.215 210.262 219.425 211.429 219.425C212.852 219.425 214.007 219.145 214.894 218.585C215.78 218.002 216.224 217.173 216.224 216.1C216.224 215.377 216.002 214.828 215.559 214.455C215.139 214.058 214.52 213.743 213.704 213.51C212.91 213.253 211.954 212.985 210.834 212.705C209.574 212.355 208.512 211.993 207.649 211.62C206.809 211.223 206.167 210.733 205.724 210.15C205.304 209.543 205.094 208.762 205.094 207.805C205.094 206.615 205.385 205.635 205.969 204.865C206.575 204.072 207.392 203.477 208.419 203.08C209.469 202.66 210.635 202.45 211.919 202.45C213.319 202.45 214.555 202.672 215.629 203.115C216.702 203.558 217.577 204.177 218.254 204.97L217.099 206.58C216.445 205.833 215.664 205.285 214.754 204.935C213.867 204.562 212.875 204.375 211.779 204.375C211.032 204.375 210.32 204.48 209.644 204.69C208.967 204.877 208.407 205.203 207.964 205.67C207.544 206.113 207.334 206.732 207.334 207.525C207.334 208.178 207.497 208.692 207.824 209.065C208.15 209.415 208.64 209.718 209.294 209.975C209.947 210.208 210.752 210.465 211.709 210.745C213.085 211.118 214.287 211.503 215.314 211.9C216.34 212.273 217.134 212.763 217.694 213.37C218.254 213.977 218.534 214.828 218.534 215.925C218.534 217.628 217.892 218.958 216.609 219.915C215.325 220.872 213.634 221.35 211.534 221.35Z" fill="white"/>
<defs>
<filter id="filter0_b_10_170" x="-15" y="-15" width="301" height="341" filterUnits="userSpaceOnUse" color-interpolation-filters="sRGB">
<feFlood flood-opacity="0" result="BackgroundImageFix"/>
<feGaussianBlur in="BackgroundImageFix" stdDeviation="7.5"/>
<feComposite in2="SourceAlpha" operator="in" result="effect1_backgroundBlur_10_170"/>
<feBlend mode="normal" in="SourceGraphic" in2="effect1_backgroundBlur_10_170" result="shape"/>
</filter>
</defs>
</svg>
