<svg width="271" height="294" viewBox="0 0 271 294" fill="none" xmlns="http://www.w3.org/2000/svg">
<g filter="url(#filter0_b_11_185)">
<path d="M0 0H271V254C271 276.091 253.091 294 231 294H40C17.9086 294 0 276.091 0 254V0Z" fill="#160B25" fill-opacity="0.78"/>
</g>
<path d="M47.3259 156.365C47.3259 154.848 47.6059 153.367 48.1659 151.92C48.7259 150.45 49.5425 149.12 50.6159 147.93C51.6892 146.74 52.9959 145.795 54.5359 145.095C56.0759 144.372 57.8259 144.01 59.7859 144.01C62.1192 144.01 64.1375 144.512 65.8409 145.515C67.5675 146.518 68.8509 147.825 69.6909 149.435L65.2809 152.515C64.9075 151.628 64.4059 150.94 63.7759 150.45C63.1692 149.96 62.4925 149.622 61.7459 149.435C61.0225 149.225 60.3225 149.12 59.6459 149.12C58.5492 149.12 57.5925 149.342 56.7759 149.785C55.9592 150.205 55.2825 150.777 54.7459 151.5C54.2092 152.223 53.8125 153.028 53.5559 153.915C53.2992 154.802 53.1709 155.688 53.1709 156.575C53.1709 157.555 53.3225 158.5 53.6259 159.41C53.9292 160.32 54.3609 161.125 54.9209 161.825C55.5042 162.525 56.2042 163.085 57.0209 163.505C57.8375 163.902 58.7359 164.1 59.7159 164.1C60.4159 164.1 61.1275 163.983 61.8509 163.75C62.5742 163.517 63.2392 163.155 63.8459 162.665C64.4759 162.152 64.9542 161.487 65.2809 160.67L69.9709 163.435C69.4809 164.648 68.6759 165.687 67.5559 166.55C66.4359 167.413 65.1642 168.078 63.7409 168.545C62.3409 168.988 60.9525 169.21 59.5759 169.21C57.7792 169.21 56.1225 168.848 54.6059 168.125C53.1125 167.378 51.8175 166.398 50.7209 165.185C49.6475 163.948 48.8075 162.572 48.2009 161.055C47.6175 159.515 47.3259 157.952 47.3259 156.365ZM90.1125 169H84.5125V158.675C84.5125 157.485 84.2675 156.61 83.7775 156.05C83.3109 155.49 82.6809 155.21 81.8875 155.21C81.4675 155.21 80.9892 155.35 80.4525 155.63C79.9392 155.887 79.4609 156.26 79.0175 156.75C78.5742 157.24 78.2359 157.812 78.0025 158.465V169H72.4025V143.45H78.0025V153.705C78.6792 152.608 79.5659 151.768 80.6625 151.185C81.7825 150.578 83.0075 150.275 84.3375 150.275C85.5975 150.275 86.6009 150.485 87.3475 150.905C88.1175 151.325 88.7009 151.885 89.0975 152.585C89.4942 153.262 89.7625 154.008 89.9025 154.825C90.0425 155.642 90.1125 156.447 90.1125 157.24V169ZM102.583 169.35C101.02 169.35 99.6199 169.093 98.3832 168.58C97.1699 168.067 96.1432 167.367 95.3032 166.48C94.4632 165.593 93.8215 164.578 93.3782 163.435C92.9582 162.292 92.7482 161.09 92.7482 159.83C92.7482 158.547 92.9582 157.333 93.3782 156.19C93.8215 155.047 94.4632 154.032 95.3032 153.145C96.1432 152.258 97.1699 151.558 98.3832 151.045C99.6199 150.532 101.02 150.275 102.583 150.275C104.147 150.275 105.535 150.532 106.748 151.045C107.962 151.558 108.988 152.258 109.828 153.145C110.668 154.032 111.31 155.047 111.753 156.19C112.197 157.333 112.418 158.547 112.418 159.83C112.418 161.09 112.197 162.292 111.753 163.435C111.31 164.578 110.668 165.593 109.828 166.48C108.988 167.367 107.962 168.067 106.748 168.58C105.535 169.093 104.147 169.35 102.583 169.35ZM98.4882 159.83C98.4882 160.787 98.6632 161.627 99.0132 162.35C99.3865 163.073 99.8765 163.633 100.483 164.03C101.09 164.427 101.79 164.625 102.583 164.625C103.353 164.625 104.042 164.427 104.648 164.03C105.278 163.61 105.768 163.038 106.118 162.315C106.468 161.592 106.643 160.763 106.643 159.83C106.643 158.873 106.468 158.033 106.118 157.31C105.768 156.587 105.278 156.027 104.648 155.63C104.042 155.233 103.353 155.035 102.583 155.035C101.79 155.035 101.09 155.233 100.483 155.63C99.8765 156.027 99.3865 156.587 99.0132 157.31C98.6632 158.033 98.4882 158.873 98.4882 159.83ZM123.981 169.35C122.417 169.35 121.029 169.093 119.816 168.58C118.602 168.067 117.564 167.367 116.701 166.48C115.861 165.593 115.219 164.578 114.776 163.435C114.332 162.292 114.111 161.078 114.111 159.795C114.111 158.115 114.496 156.552 115.266 155.105C116.059 153.658 117.191 152.492 118.661 151.605C120.131 150.718 121.904 150.275 123.981 150.275C126.081 150.275 127.854 150.73 129.301 151.64C130.771 152.527 131.867 153.693 132.591 155.14L127.131 156.785C126.781 156.225 126.326 155.793 125.766 155.49C125.229 155.187 124.622 155.035 123.946 155.035C123.176 155.035 122.476 155.233 121.846 155.63C121.239 156.027 120.749 156.575 120.376 157.275C120.026 157.975 119.851 158.815 119.851 159.795C119.851 160.752 120.037 161.592 120.411 162.315C120.784 163.038 121.274 163.61 121.881 164.03C122.487 164.427 123.176 164.625 123.946 164.625C124.412 164.625 124.844 164.555 125.241 164.415C125.661 164.252 126.034 164.03 126.361 163.75C126.711 163.47 126.979 163.155 127.166 162.805L132.626 164.485C132.182 165.418 131.541 166.258 130.701 167.005C129.884 167.728 128.916 168.3 127.796 168.72C126.676 169.14 125.404 169.35 123.981 169.35ZM143.736 169.35C142.172 169.35 140.772 169.093 139.536 168.58C138.322 168.067 137.296 167.367 136.456 166.48C135.616 165.593 134.974 164.578 134.531 163.435C134.111 162.292 133.901 161.09 133.901 159.83C133.901 158.547 134.111 157.333 134.531 156.19C134.974 155.047 135.616 154.032 136.456 153.145C137.296 152.258 138.322 151.558 139.536 151.045C140.772 150.532 142.172 150.275 143.736 150.275C145.299 150.275 146.687 150.532 147.901 151.045C149.114 151.558 150.141 152.258 150.981 153.145C151.821 154.032 152.462 155.047 152.906 156.19C153.349 157.333 153.571 158.547 153.571 159.83C153.571 161.09 153.349 162.292 152.906 163.435C152.462 164.578 151.821 165.593 150.981 166.48C150.141 167.367 149.114 168.067 147.901 168.58C146.687 169.093 145.299 169.35 143.736 169.35ZM139.641 159.83C139.641 160.787 139.816 161.627 140.166 162.35C140.539 163.073 141.029 163.633 141.636 164.03C142.242 164.427 142.942 164.625 143.736 164.625C144.506 164.625 145.194 164.427 145.801 164.03C146.431 163.61 146.921 163.038 147.271 162.315C147.621 161.592 147.796 160.763 147.796 159.83C147.796 158.873 147.621 158.033 147.271 157.31C146.921 156.587 146.431 156.027 145.801 155.63C145.194 155.233 144.506 155.035 143.736 155.035C142.942 155.035 142.242 155.233 141.636 155.63C141.029 156.027 140.539 156.587 140.166 157.31C139.816 158.033 139.641 158.873 139.641 159.83ZM167.974 168.02C167.461 168.23 166.889 168.44 166.259 168.65C165.653 168.86 165.011 169.023 164.334 169.14C163.658 169.28 162.993 169.35 162.339 169.35C161.406 169.35 160.543 169.198 159.749 168.895C158.979 168.568 158.361 168.043 157.894 167.32C157.451 166.597 157.229 165.64 157.229 164.45V154.86H154.884V150.625H157.229V144.78H162.829V150.625H166.574V154.86H162.829V162.525C162.829 163.132 162.981 163.575 163.284 163.855C163.588 164.112 163.973 164.24 164.439 164.24C164.836 164.24 165.256 164.17 165.699 164.03C166.166 163.89 166.563 163.738 166.889 163.575L167.974 168.02ZM169.981 162.385V150.625H175.581V161.16C175.581 162.28 175.803 163.143 176.246 163.75C176.69 164.333 177.32 164.625 178.136 164.625C178.65 164.625 179.14 164.543 179.606 164.38C180.073 164.193 180.528 163.902 180.971 163.505C181.415 163.108 181.811 162.595 182.161 161.965V150.625H187.761V162.77C187.761 163.33 187.843 163.727 188.006 163.96C188.193 164.17 188.508 164.298 188.951 164.345V169C188.438 169.093 187.983 169.163 187.586 169.21C187.213 169.257 186.875 169.28 186.571 169.28C185.591 169.28 184.81 169.082 184.226 168.685C183.643 168.265 183.281 167.682 183.141 166.935L183.036 165.815C182.196 167.028 181.146 167.927 179.886 168.51C178.65 169.07 177.261 169.35 175.721 169.35C173.855 169.35 172.431 168.755 171.451 167.565C170.471 166.375 169.981 164.648 169.981 162.385ZM203.755 155.42C202.401 155.42 201.176 155.642 200.08 156.085C198.983 156.505 198.19 157.135 197.7 157.975V169H192.1V150.625H197.245V154.335C197.875 153.098 198.691 152.13 199.695 151.43C200.698 150.73 201.748 150.368 202.845 150.345C203.101 150.345 203.288 150.345 203.405 150.345C203.545 150.345 203.661 150.357 203.755 150.38V155.42ZM223.823 169H218.223V158.675C218.223 157.462 217.99 156.587 217.523 156.05C217.08 155.49 216.485 155.21 215.738 155.21C215.225 155.21 214.7 155.35 214.163 155.63C213.627 155.91 213.137 156.295 212.693 156.785C212.273 157.275 211.947 157.835 211.713 158.465V169H206.113V150.625H211.153V153.705C211.62 152.982 212.203 152.363 212.903 151.85C213.603 151.337 214.408 150.952 215.318 150.695C216.228 150.415 217.22 150.275 218.293 150.275C219.483 150.275 220.44 150.497 221.163 150.94C221.91 151.36 222.47 151.92 222.843 152.62C223.24 153.32 223.497 154.078 223.613 154.895C223.753 155.688 223.823 156.47 223.823 157.24V169Z" fill="#FC8631"/>
<path d="M57.5281 204V179.15H67.8181C68.8914 179.15 69.8714 179.372 70.7581 179.815C71.6681 180.258 72.4498 180.865 73.1031 181.635C73.7564 182.382 74.2698 183.222 74.6431 184.155C75.0164 185.065 75.2031 185.998 75.2031 186.955C75.2031 188.308 74.8998 189.592 74.2931 190.805C73.7098 191.995 72.8814 192.963 71.8081 193.71C70.7348 194.457 69.4748 194.83 68.0281 194.83H59.9781V204H57.5281ZM59.9781 192.66H67.9231C68.9031 192.66 69.7548 192.392 70.4781 191.855C71.2014 191.318 71.7614 190.618 72.1581 189.755C72.5548 188.892 72.7531 187.958 72.7531 186.955C72.7531 185.928 72.5198 184.983 72.0531 184.12C71.5864 183.257 70.9681 182.58 70.1981 182.09C69.4514 181.577 68.6231 181.32 67.7131 181.32H59.9781V192.66ZM78.8105 204V185.765H81.1905V204H78.8105ZM78.8105 181.95V178.45H81.1905V181.95H78.8105ZM101.763 204H99.3826V193.815C99.3826 191.668 99.0676 190.105 98.4376 189.125C97.8076 188.122 96.816 187.62 95.4626 187.62C94.5293 187.62 93.6076 187.853 92.6976 188.32C91.7876 188.763 90.9826 189.382 90.2826 190.175C89.606 190.945 89.116 191.832 88.8126 192.835V204H86.4326V185.765H88.6026V189.895C89.0926 189.008 89.7343 188.238 90.5276 187.585C91.321 186.908 92.2193 186.383 93.2226 186.01C94.226 185.637 95.2643 185.45 96.3376 185.45C97.341 185.45 98.1926 185.637 98.8926 186.01C99.5926 186.383 100.153 186.92 100.573 187.62C100.993 188.297 101.296 189.125 101.483 190.105C101.669 191.062 101.763 192.135 101.763 193.325V204ZM119.858 204L113.103 194.655L109.218 198.295V204H106.838V178.45H109.218V195.74L119.543 185.8H122.168L114.713 193.255L122.448 204H119.858ZM134.808 204V179.15H137.258V201.83H151.608V204H134.808ZM154.724 204V185.765H157.104V204H154.724ZM154.724 181.95V178.45H157.104V181.95H154.724ZM177.676 204H175.296V193.815C175.296 191.668 174.981 190.105 174.351 189.125C173.721 188.122 172.729 187.62 171.376 187.62C170.442 187.62 169.521 187.853 168.611 188.32C167.701 188.763 166.896 189.382 166.196 190.175C165.519 190.945 165.029 191.832 164.726 192.835V204H162.346V185.765H164.516V189.895C165.006 189.008 165.647 188.238 166.441 187.585C167.234 186.908 168.132 186.383 169.136 186.01C170.139 185.637 171.177 185.45 172.251 185.45C173.254 185.45 174.106 185.637 174.806 186.01C175.506 186.383 176.066 186.92 176.486 187.62C176.906 188.297 177.209 189.125 177.396 190.105C177.582 191.062 177.676 192.135 177.676 193.325V204ZM190.626 204.35C189.319 204.35 188.106 204.105 186.986 203.615C185.866 203.102 184.898 202.413 184.081 201.55C183.264 200.663 182.623 199.648 182.156 198.505C181.713 197.362 181.491 196.137 181.491 194.83C181.491 193.127 181.876 191.563 182.646 190.14C183.439 188.717 184.524 187.585 185.901 186.745C187.278 185.882 188.841 185.45 190.591 185.45C192.388 185.45 193.951 185.882 195.281 186.745C196.634 187.608 197.696 188.752 198.466 190.175C199.236 191.575 199.621 193.115 199.621 194.795C199.621 194.982 199.621 195.168 199.621 195.355C199.621 195.518 199.609 195.647 199.586 195.74H183.976C184.093 197.047 184.454 198.213 185.061 199.24C185.691 200.243 186.496 201.048 187.476 201.655C188.479 202.238 189.564 202.53 190.731 202.53C191.921 202.53 193.041 202.227 194.091 201.62C195.164 201.013 195.911 200.22 196.331 199.24L198.396 199.8C198.023 200.663 197.451 201.445 196.681 202.145C195.911 202.845 195.001 203.393 193.951 203.79C192.924 204.163 191.816 204.35 190.626 204.35ZM183.906 194.025H197.381C197.288 192.695 196.926 191.528 196.296 190.525C195.689 189.522 194.884 188.74 193.881 188.18C192.901 187.597 191.816 187.305 190.626 187.305C189.436 187.305 188.351 187.597 187.371 188.18C186.391 188.74 185.586 189.533 184.956 190.56C184.349 191.563 183.999 192.718 183.906 194.025ZM209.278 204.35C207.785 204.35 206.396 204.105 205.113 203.615C203.83 203.125 202.721 202.378 201.788 201.375L202.768 199.695C203.795 200.652 204.821 201.352 205.848 201.795C206.898 202.215 208.006 202.425 209.173 202.425C210.596 202.425 211.751 202.145 212.638 201.585C213.525 201.002 213.968 200.173 213.968 199.1C213.968 198.377 213.746 197.828 213.303 197.455C212.883 197.058 212.265 196.743 211.448 196.51C210.655 196.253 209.698 195.985 208.578 195.705C207.318 195.355 206.256 194.993 205.393 194.62C204.553 194.223 203.911 193.733 203.468 193.15C203.048 192.543 202.838 191.762 202.838 190.805C202.838 189.615 203.13 188.635 203.713 187.865C204.32 187.072 205.136 186.477 206.163 186.08C207.213 185.66 208.38 185.45 209.663 185.45C211.063 185.45 212.3 185.672 213.373 186.115C214.446 186.558 215.321 187.177 215.998 187.97L214.843 189.58C214.19 188.833 213.408 188.285 212.498 187.935C211.611 187.562 210.62 187.375 209.523 187.375C208.776 187.375 208.065 187.48 207.388 187.69C206.711 187.877 206.151 188.203 205.708 188.67C205.288 189.113 205.078 189.732 205.078 190.525C205.078 191.178 205.241 191.692 205.568 192.065C205.895 192.415 206.385 192.718 207.038 192.975C207.691 193.208 208.496 193.465 209.453 193.745C210.83 194.118 212.031 194.503 213.058 194.9C214.085 195.273 214.878 195.763 215.438 196.37C215.998 196.977 216.278 197.828 216.278 198.925C216.278 200.628 215.636 201.958 214.353 202.915C213.07 203.872 211.378 204.35 209.278 204.35Z" fill="white"/>
<defs>
<filter id="filter0_b_11_185" x="-15" y="-15" width="301" height="324" filterUnits="userSpaceOnUse" color-interpolation-filters="sRGB">
<feFlood flood-opacity="0" result="BackgroundImageFix"/>
<feGaussianBlur in="BackgroundImageFix" stdDeviation="7.5"/>
<feComposite in2="SourceAlpha" operator="in" result="effect1_backgroundBlur_11_185"/>
<feBlend mode="normal" in="SourceGraphic" in2="effect1_backgroundBlur_11_185" result="shape"/>
</filter>
</defs>
</svg>
