<svg width="271" height="311" viewBox="0 0 271 311" fill="none" xmlns="http://www.w3.org/2000/svg">
<g filter="url(#filter0_b_10_171)">
<path d="M0 0H271V271C271 293.091 253.091 311 231 311H40C17.9086 311 0 293.091 0 271V0Z" fill="#160B25" fill-opacity="0.78"/>
</g>
<path d="M80.3801 179.63C80.3801 181.053 79.9951 182.243 79.2251 183.2C78.4784 184.133 77.4634 184.833 76.1801 185.3C74.8967 185.767 73.4851 186 71.9451 186H59.8351V161.15H73.6601C74.8267 161.15 75.8301 161.465 76.6701 162.095C77.5334 162.702 78.1867 163.495 78.6301 164.475C79.0967 165.455 79.3301 166.47 79.3301 167.52C79.3301 168.687 79.0267 169.807 78.4201 170.88C77.8134 171.93 76.9267 172.723 75.7601 173.26C77.1834 173.68 78.3034 174.427 79.1201 175.5C79.9601 176.573 80.3801 177.95 80.3801 179.63ZM74.5351 178.475C74.5351 177.938 74.4301 177.472 74.2201 177.075C74.0101 176.655 73.7301 176.328 73.3801 176.095C73.0534 175.838 72.6567 175.71 72.1901 175.71H65.5751V181.135H71.9451C72.4351 181.135 72.8667 181.018 73.2401 180.785C73.6367 180.552 73.9517 180.237 74.1851 179.84C74.4184 179.443 74.5351 178.988 74.5351 178.475ZM65.5751 166.05V171.195H71.2101C71.6301 171.195 72.0151 171.102 72.3651 170.915C72.7384 170.728 73.0417 170.448 73.2751 170.075C73.5084 169.678 73.6251 169.188 73.6251 168.605C73.6251 168.045 73.5201 167.578 73.3101 167.205C73.1234 166.832 72.8667 166.552 72.5401 166.365C72.2134 166.155 71.8401 166.05 71.4201 166.05H65.5751ZM83.2359 160.45H88.8359V179.455C88.8359 180.225 88.9759 180.773 89.2559 181.1C89.5359 181.427 89.9325 181.59 90.4459 181.59C90.7959 181.59 91.1459 181.543 91.4959 181.45C91.8692 181.333 92.1959 181.205 92.4759 181.065L93.2109 185.265C92.5109 185.592 91.7059 185.848 90.7959 186.035C89.8859 186.222 89.0342 186.315 88.2409 186.315C86.6542 186.315 85.4175 185.895 84.5309 185.055C83.6675 184.192 83.2359 182.978 83.2359 181.415V160.45ZM94.8545 179.385V167.625H100.454V178.16C100.454 179.28 100.676 180.143 101.119 180.75C101.563 181.333 102.193 181.625 103.009 181.625C103.523 181.625 104.013 181.543 104.479 181.38C104.946 181.193 105.401 180.902 105.844 180.505C106.288 180.108 106.684 179.595 107.034 178.965V167.625H112.634V179.77C112.634 180.33 112.716 180.727 112.879 180.96C113.066 181.17 113.381 181.298 113.824 181.345V186C113.311 186.093 112.856 186.163 112.459 186.21C112.086 186.257 111.748 186.28 111.444 186.28C110.464 186.28 109.683 186.082 109.099 185.685C108.516 185.265 108.154 184.682 108.014 183.935L107.909 182.815C107.069 184.028 106.019 184.927 104.759 185.51C103.523 186.07 102.134 186.35 100.594 186.35C98.7278 186.35 97.3045 185.755 96.3245 184.565C95.3445 183.375 94.8545 181.648 94.8545 179.385ZM125.758 186.35C124.195 186.35 122.806 186.105 121.593 185.615C120.38 185.102 119.341 184.413 118.478 183.55C117.638 182.687 116.996 181.695 116.553 180.575C116.11 179.432 115.888 178.242 115.888 177.005C115.888 175.232 116.273 173.622 117.043 172.175C117.836 170.705 118.968 169.527 120.438 168.64C121.908 167.73 123.681 167.275 125.758 167.275C127.835 167.275 129.596 167.718 131.043 168.605C132.513 169.492 133.633 170.658 134.403 172.105C135.173 173.528 135.558 175.08 135.558 176.76C135.558 177.087 135.535 177.413 135.488 177.74C135.465 178.043 135.441 178.312 135.418 178.545H121.838C121.908 179.362 122.13 180.05 122.503 180.61C122.9 181.17 123.401 181.602 124.008 181.905C124.615 182.185 125.256 182.325 125.933 182.325C126.773 182.325 127.555 182.127 128.278 181.73C129.025 181.333 129.538 180.797 129.818 180.12L134.578 181.45C134.111 182.407 133.446 183.258 132.583 184.005C131.743 184.728 130.74 185.3 129.573 185.72C128.43 186.14 127.158 186.35 125.758 186.35ZM121.698 175.115H129.678C129.585 174.345 129.363 173.68 129.013 173.12C128.663 172.537 128.196 172.093 127.613 171.79C127.03 171.463 126.388 171.3 125.688 171.3C124.965 171.3 124.311 171.463 123.728 171.79C123.168 172.093 122.713 172.537 122.363 173.12C122.013 173.68 121.791 174.345 121.698 175.115ZM149.791 185.02C149.277 185.23 148.706 185.44 148.076 185.65C147.469 185.86 146.827 186.023 146.151 186.14C145.474 186.28 144.809 186.35 144.156 186.35C143.222 186.35 142.359 186.198 141.566 185.895C140.796 185.568 140.177 185.043 139.711 184.32C139.267 183.597 139.046 182.64 139.046 181.45V171.86H136.701V167.625H139.046V161.78H144.646V167.625H148.391V171.86H144.646V179.525C144.646 180.132 144.797 180.575 145.101 180.855C145.404 181.112 145.789 181.24 146.256 181.24C146.652 181.24 147.072 181.17 147.516 181.03C147.982 180.89 148.379 180.738 148.706 180.575L149.791 185.02ZM151.798 179.385V167.625H157.398V178.16C157.398 179.28 157.62 180.143 158.063 180.75C158.506 181.333 159.136 181.625 159.953 181.625C160.466 181.625 160.956 181.543 161.423 181.38C161.89 181.193 162.345 180.902 162.788 180.505C163.231 180.108 163.628 179.595 163.978 178.965V167.625H169.578V179.77C169.578 180.33 169.66 180.727 169.823 180.96C170.01 181.17 170.325 181.298 170.768 181.345V186C170.255 186.093 169.8 186.163 169.403 186.21C169.03 186.257 168.691 186.28 168.388 186.28C167.408 186.28 166.626 186.082 166.043 185.685C165.46 185.265 165.098 184.682 164.958 183.935L164.853 182.815C164.013 184.028 162.963 184.927 161.703 185.51C160.466 186.07 159.078 186.35 157.538 186.35C155.671 186.35 154.248 185.755 153.268 184.565C152.288 183.375 151.798 181.648 151.798 179.385ZM191.626 186H186.026V175.675C186.026 174.462 185.793 173.587 185.326 173.05C184.883 172.49 184.288 172.21 183.541 172.21C183.028 172.21 182.503 172.35 181.966 172.63C181.43 172.91 180.94 173.295 180.496 173.785C180.076 174.275 179.75 174.835 179.516 175.465V186H173.916V167.625H178.956V170.705C179.423 169.982 180.006 169.363 180.706 168.85C181.406 168.337 182.211 167.952 183.121 167.695C184.031 167.415 185.023 167.275 186.096 167.275C187.286 167.275 188.243 167.497 188.966 167.94C189.713 168.36 190.273 168.92 190.646 169.62C191.043 170.32 191.3 171.078 191.416 171.895C191.556 172.688 191.626 173.47 191.626 174.24V186ZM204.132 186.35C202.569 186.35 201.18 186.105 199.967 185.615C198.754 185.102 197.715 184.413 196.852 183.55C196.012 182.687 195.37 181.695 194.927 180.575C194.484 179.432 194.262 178.242 194.262 177.005C194.262 175.232 194.647 173.622 195.417 172.175C196.21 170.705 197.342 169.527 198.812 168.64C200.282 167.73 202.055 167.275 204.132 167.275C206.209 167.275 207.97 167.718 209.417 168.605C210.887 169.492 212.007 170.658 212.777 172.105C213.547 173.528 213.932 175.08 213.932 176.76C213.932 177.087 213.909 177.413 213.862 177.74C213.839 178.043 213.815 178.312 213.792 178.545H200.212C200.282 179.362 200.504 180.05 200.877 180.61C201.274 181.17 201.775 181.602 202.382 181.905C202.989 182.185 203.63 182.325 204.307 182.325C205.147 182.325 205.929 182.127 206.652 181.73C207.399 181.333 207.912 180.797 208.192 180.12L212.952 181.45C212.485 182.407 211.82 183.258 210.957 184.005C210.117 184.728 209.114 185.3 207.947 185.72C206.804 186.14 205.532 186.35 204.132 186.35ZM200.072 175.115H208.052C207.959 174.345 207.737 173.68 207.387 173.12C207.037 172.537 206.57 172.093 205.987 171.79C205.404 171.463 204.762 171.3 204.062 171.3C203.339 171.3 202.685 171.463 202.102 171.79C201.542 172.093 201.087 172.537 200.737 173.12C200.387 173.68 200.165 174.345 200.072 175.115Z" fill="#61D4FC"/>
<path d="M55.2039 221V196.15H65.4939C66.5672 196.15 67.5472 196.372 68.4339 196.815C69.3439 197.258 70.1255 197.865 70.7789 198.635C71.4322 199.382 71.9455 200.222 72.3189 201.155C72.6922 202.065 72.8789 202.998 72.8789 203.955C72.8789 205.308 72.5755 206.592 71.9689 207.805C71.3855 208.995 70.5572 209.963 69.4839 210.71C68.4105 211.457 67.1505 211.83 65.7039 211.83H57.6539V221H55.2039ZM57.6539 209.66H65.5989C66.5789 209.66 67.4305 209.392 68.1539 208.855C68.8772 208.318 69.4372 207.618 69.8339 206.755C70.2305 205.892 70.4289 204.958 70.4289 203.955C70.4289 202.928 70.1955 201.983 69.7289 201.12C69.2622 200.257 68.6439 199.58 67.8739 199.09C67.1272 198.577 66.2989 198.32 65.3889 198.32H57.6539V209.66ZM76.4863 221V202.765H78.8663V221H76.4863ZM76.4863 198.95V195.45H78.8663V198.95H76.4863ZM99.4384 221H97.0584V210.815C97.0584 208.668 96.7434 207.105 96.1134 206.125C95.4834 205.122 94.4917 204.62 93.1384 204.62C92.2051 204.62 91.2834 204.853 90.3734 205.32C89.4634 205.763 88.6584 206.382 87.9584 207.175C87.2817 207.945 86.7917 208.832 86.4884 209.835V221H84.1084V202.765H86.2784V206.895C86.7684 206.008 87.4101 205.238 88.2034 204.585C88.9967 203.908 89.8951 203.383 90.8984 203.01C91.9017 202.637 92.9401 202.45 94.0134 202.45C95.0167 202.45 95.8684 202.637 96.5684 203.01C97.2684 203.383 97.8284 203.92 98.2484 204.62C98.6684 205.297 98.9717 206.125 99.1584 207.105C99.3451 208.062 99.4384 209.135 99.4384 210.325V221ZM117.534 221L110.779 211.655L106.894 215.295V221H104.514V195.45H106.894V212.74L117.219 202.8H119.844L112.389 210.255L120.124 221H117.534ZM130.839 208.4C130.839 206.883 131.096 205.402 131.609 203.955C132.146 202.485 132.916 201.155 133.919 199.965C134.922 198.752 136.159 197.795 137.629 197.095C139.099 196.372 140.767 196.01 142.634 196.01C144.851 196.01 146.741 196.523 148.304 197.55C149.891 198.553 151.057 199.848 151.804 201.435L149.879 202.625C149.342 201.528 148.666 200.665 147.849 200.035C147.032 199.382 146.157 198.915 145.224 198.635C144.314 198.355 143.404 198.215 142.494 198.215C141.001 198.215 139.682 198.518 138.539 199.125C137.396 199.708 136.427 200.502 135.634 201.505C134.864 202.485 134.281 203.593 133.884 204.83C133.487 206.043 133.289 207.28 133.289 208.54C133.289 209.917 133.522 211.235 133.989 212.495C134.456 213.755 135.109 214.875 135.949 215.855C136.789 216.812 137.769 217.582 138.889 218.165C140.032 218.725 141.269 219.005 142.599 219.005C143.532 219.005 144.489 218.842 145.469 218.515C146.449 218.188 147.359 217.687 148.199 217.01C149.062 216.333 149.751 215.458 150.264 214.385L152.294 215.435C151.781 216.672 150.987 217.722 149.914 218.585C148.841 219.448 147.639 220.102 146.309 220.545C145.002 220.988 143.719 221.21 142.459 221.21C140.756 221.21 139.192 220.848 137.769 220.125C136.346 219.378 135.109 218.398 134.059 217.185C133.032 215.948 132.239 214.572 131.679 213.055C131.119 211.515 130.839 209.963 130.839 208.4ZM171.318 221H168.938V210.815C168.938 208.762 168.577 207.222 167.853 206.195C167.13 205.145 166.092 204.62 164.738 204.62C163.852 204.62 162.965 204.853 162.078 205.32C161.215 205.763 160.445 206.382 159.768 207.175C159.115 207.945 158.648 208.832 158.368 209.835V221H155.988V195.45H158.368V206.895C159.092 205.542 160.095 204.468 161.378 203.675C162.685 202.858 164.073 202.45 165.543 202.45C166.593 202.45 167.48 202.637 168.203 203.01C168.95 203.383 169.545 203.932 169.988 204.655C170.455 205.355 170.793 206.183 171.003 207.14C171.213 208.073 171.318 209.135 171.318 210.325V221ZM176.394 221V202.765H178.774V221H176.394ZM176.394 198.95V195.45H178.774V198.95H176.394ZM193.326 221.35C191.809 221.35 190.444 220.953 189.231 220.16C188.041 219.367 187.096 218.387 186.396 217.22V228.455H184.016V202.765H186.151V206.3C186.874 205.157 187.842 204.235 189.056 203.535C190.269 202.812 191.564 202.45 192.941 202.45C194.201 202.45 195.356 202.718 196.406 203.255C197.456 203.768 198.366 204.468 199.136 205.355C199.906 206.242 200.501 207.257 200.921 208.4C201.364 209.52 201.586 210.687 201.586 211.9C201.586 213.603 201.236 215.178 200.536 216.625C199.859 218.048 198.902 219.192 197.666 220.055C196.429 220.918 194.982 221.35 193.326 221.35ZM192.661 219.25C193.664 219.25 194.562 219.052 195.356 218.655C196.149 218.235 196.826 217.675 197.386 216.975C197.969 216.275 198.412 215.493 198.716 214.63C199.019 213.743 199.171 212.833 199.171 211.9C199.171 210.92 198.996 209.987 198.646 209.1C198.319 208.213 197.841 207.432 197.211 206.755C196.581 206.078 195.857 205.542 195.041 205.145C194.224 204.748 193.337 204.55 192.381 204.55C191.774 204.55 191.144 204.667 190.491 204.9C189.837 205.133 189.207 205.472 188.601 205.915C188.017 206.335 187.527 206.813 187.131 207.35C186.734 207.887 186.489 208.458 186.396 209.065V214.665C186.769 215.528 187.271 216.31 187.901 217.01C188.531 217.687 189.254 218.235 190.071 218.655C190.911 219.052 191.774 219.25 192.661 219.25ZM211.602 221.35C210.109 221.35 208.721 221.105 207.437 220.615C206.154 220.125 205.046 219.378 204.112 218.375L205.092 216.695C206.119 217.652 207.146 218.352 208.172 218.795C209.222 219.215 210.331 219.425 211.497 219.425C212.921 219.425 214.076 219.145 214.962 218.585C215.849 218.002 216.292 217.173 216.292 216.1C216.292 215.377 216.071 214.828 215.627 214.455C215.207 214.058 214.589 213.743 213.772 213.51C212.979 213.253 212.022 212.985 210.902 212.705C209.642 212.355 208.581 211.993 207.717 211.62C206.877 211.223 206.236 210.733 205.792 210.15C205.372 209.543 205.162 208.762 205.162 207.805C205.162 206.615 205.454 205.635 206.037 204.865C206.644 204.072 207.461 203.477 208.487 203.08C209.537 202.66 210.704 202.45 211.987 202.45C213.387 202.45 214.624 202.672 215.697 203.115C216.771 203.558 217.646 204.177 218.322 204.97L217.167 206.58C216.514 205.833 215.732 205.285 214.822 204.935C213.936 204.562 212.944 204.375 211.847 204.375C211.101 204.375 210.389 204.48 209.712 204.69C209.036 204.877 208.476 205.203 208.032 205.67C207.612 206.113 207.402 206.732 207.402 207.525C207.402 208.178 207.566 208.692 207.892 209.065C208.219 209.415 208.709 209.718 209.362 209.975C210.016 210.208 210.821 210.465 211.777 210.745C213.154 211.118 214.356 211.503 215.382 211.9C216.409 212.273 217.202 212.763 217.762 213.37C218.322 213.977 218.602 214.828 218.602 215.925C218.602 217.628 217.961 218.958 216.677 219.915C215.394 220.872 213.702 221.35 211.602 221.35Z" fill="white"/>
<defs>
<filter id="filter0_b_10_171" x="-15" y="-15" width="301" height="341" filterUnits="userSpaceOnUse" color-interpolation-filters="sRGB">
<feFlood flood-opacity="0" result="BackgroundImageFix"/>
<feGaussianBlur in="BackgroundImageFix" stdDeviation="7.5"/>
<feComposite in2="SourceAlpha" operator="in" result="effect1_backgroundBlur_10_171"/>
<feBlend mode="normal" in="SourceGraphic" in2="effect1_backgroundBlur_10_171" result="shape"/>
</filter>
</defs>
</svg>
