<svg width="579" height="125" viewBox="0 0 579 125" fill="none" xmlns="http://www.w3.org/2000/svg">
<path d="M0.685742 124V70.75H24.2357C26.6857 70.75 28.9357 71.25 30.9857 72.25C33.0857 73.25 34.8857 74.6 36.3857 76.3C37.9357 78 39.1107 79.9 39.9107 82C40.7607 84.1 41.1857 86.25 41.1857 88.45C41.1857 90.7 40.7857 92.875 39.9857 94.975C39.2357 97.025 38.1357 98.825 36.6857 100.375C35.2357 101.925 33.5357 103.125 31.5857 103.975L43.7357 124H32.3357L21.3857 106.15H11.0357V124H0.685742ZM11.0357 97.075H24.0107C25.3107 97.075 26.4607 96.7 27.4607 95.95C28.4607 95.15 29.2607 94.1 29.8607 92.8C30.4607 91.5 30.7607 90.05 30.7607 88.45C30.7607 86.75 30.4107 85.275 29.7107 84.025C29.0107 82.725 28.1107 81.7 27.0107 80.95C25.9607 80.2 24.8107 79.825 23.5607 79.825H11.0357V97.075ZM87.5387 114.925V124H50.5637V70.75H86.8637V79.825H60.9137V92.65H83.3387V101.05H60.9137V114.925H87.5387ZM91.4305 97C91.4305 93.75 92.0055 90.575 93.1555 87.475C94.3555 84.325 96.0805 81.475 98.3305 78.925C100.58 76.325 103.33 74.275 106.58 72.775C109.83 71.225 113.53 70.45 117.68 70.45C122.58 70.45 126.805 71.525 130.355 73.675C133.955 75.825 136.63 78.625 138.38 82.075L130.43 87.55C129.53 85.55 128.355 83.975 126.905 82.825C125.455 81.625 123.905 80.8 122.255 80.35C120.605 79.85 118.98 79.6 117.38 79.6C114.78 79.6 112.505 80.125 110.555 81.175C108.655 82.225 107.055 83.6 105.755 85.3C104.455 87 103.48 88.9 102.83 91C102.23 93.1 101.93 95.2 101.93 97.3C101.93 99.65 102.305 101.925 103.055 104.125C103.805 106.275 104.855 108.2 106.205 109.9C107.605 111.55 109.255 112.875 111.155 113.875C113.105 114.825 115.23 115.3 117.53 115.3C119.18 115.3 120.855 115.025 122.555 114.475C124.255 113.925 125.83 113.05 127.28 111.85C128.73 110.65 129.855 109.1 130.655 107.2L139.13 112.075C138.08 114.725 136.355 116.975 133.955 118.825C131.605 120.675 128.955 122.075 126.005 123.025C123.055 123.975 120.13 124.45 117.23 124.45C113.43 124.45 109.955 123.675 106.805 122.125C103.655 120.525 100.93 118.425 98.6305 115.825C96.3805 113.175 94.6055 110.225 93.3055 106.975C92.0555 103.675 91.4305 100.35 91.4305 97ZM168.137 124.375C164.237 124.375 160.687 123.625 157.487 122.125C154.337 120.625 151.612 118.6 149.312 116.05C147.062 113.45 145.312 110.55 144.062 107.35C142.812 104.1 142.187 100.775 142.187 97.375C142.187 93.825 142.837 90.45 144.137 87.25C145.487 84 147.312 81.125 149.612 78.625C151.962 76.075 154.712 74.075 157.862 72.625C161.062 71.125 164.562 70.375 168.362 70.375C172.212 70.375 175.712 71.15 178.862 72.7C182.062 74.25 184.787 76.325 187.037 78.925C189.287 81.525 191.037 84.425 192.287 87.625C193.537 90.825 194.162 94.125 194.162 97.525C194.162 101.025 193.512 104.4 192.212 107.65C190.912 110.85 189.087 113.725 186.737 116.275C184.437 118.775 181.687 120.75 178.487 122.2C175.337 123.65 171.887 124.375 168.137 124.375ZM152.687 97.375C152.687 99.675 153.037 101.9 153.737 104.05C154.437 106.2 155.437 108.125 156.737 109.825C158.087 111.475 159.712 112.8 161.612 113.8C163.562 114.75 165.762 115.225 168.212 115.225C170.712 115.225 172.937 114.725 174.887 113.725C176.837 112.675 178.462 111.3 179.762 109.6C181.062 107.85 182.037 105.925 182.687 103.825C183.387 101.675 183.737 99.525 183.737 97.375C183.737 95.075 183.362 92.875 182.612 90.775C181.912 88.625 180.887 86.725 179.537 85.075C178.237 83.375 176.612 82.05 174.662 81.1C172.762 80.1 170.612 79.6 168.212 79.6C165.662 79.6 163.412 80.125 161.462 81.175C159.562 82.175 157.962 83.525 156.662 85.225C155.362 86.925 154.362 88.825 153.662 90.925C153.012 93.025 152.687 95.175 152.687 97.375ZM245.527 124V89.05L231.877 115.075H226.102L212.452 89.05V124H202.102V70.75H213.202L228.952 101.05L244.852 70.75H255.877V124H245.527ZM310.419 124V89.05L296.769 115.075H290.994L277.344 89.05V124H266.994V70.75H278.094L293.844 101.05L309.744 70.75H320.769V124H310.419ZM368.862 114.925V124H331.887V70.75H368.187V79.825H342.237V92.65H364.662V101.05H342.237V114.925H368.862ZM387.281 89.8V124H376.931V70.75H385.181L412.706 105.85V70.825H423.056V124H414.431L387.281 89.8ZM434.133 124V70.75H453.483C459.283 70.75 464.133 71.95 468.033 74.35C471.933 76.7 474.858 79.9 476.808 83.95C478.758 87.95 479.733 92.4 479.733 97.3C479.733 102.7 478.658 107.4 476.508 111.4C474.358 115.4 471.308 118.5 467.358 120.7C463.458 122.9 458.833 124 453.483 124H434.133ZM469.308 97.3C469.308 93.85 468.683 90.825 467.433 88.225C466.183 85.575 464.383 83.525 462.033 82.075C459.683 80.575 456.833 79.825 453.483 79.825H444.483V114.925H453.483C456.883 114.925 459.758 114.175 462.108 112.675C464.458 111.125 466.233 109.025 467.433 106.375C468.683 103.675 469.308 100.65 469.308 97.3ZM524.795 114.925V124H487.82V70.75H524.12V79.825H498.17V92.65H520.595V101.05H498.17V114.925H524.795ZM532.863 124V70.75H552.213C558.013 70.75 562.863 71.95 566.763 74.35C570.663 76.7 573.588 79.9 575.538 83.95C577.488 87.95 578.463 92.4 578.463 97.3C578.463 102.7 577.388 107.4 575.238 111.4C573.088 115.4 570.038 118.5 566.088 120.7C562.188 122.9 557.563 124 552.213 124H532.863ZM568.038 97.3C568.038 93.85 567.413 90.825 566.163 88.225C564.913 85.575 563.113 83.525 560.763 82.075C558.413 80.575 555.563 79.825 552.213 79.825H543.213V114.925H552.213C555.613 114.925 558.488 114.175 560.838 112.675C563.188 111.125 564.963 109.025 566.163 106.375C567.413 103.675 568.038 100.65 568.038 97.3Z" fill="white"/>
<path d="M250.954 54H248.954V56H250.954V54ZM250.954 0.749996V-1.25H248.954V0.749996H250.954ZM280.279 2.25L281.156 0.452459L280.279 2.25ZM285.604 6.3L284.105 7.62324L284.115 7.63546L284.126 7.64751L285.604 6.3ZM289.204 12L291.058 11.2496L289.204 12ZM288.379 27L290.155 27.9206L288.379 27ZM261.304 36.15V34.15H259.304V36.15H261.304ZM261.304 54V56H263.304V54H261.304ZM261.304 27.075H259.304V29.075H261.304V27.075ZM276.679 26.025L277.826 27.6635V27.6635L276.679 26.025ZM279.079 23.025L280.895 23.8631L280.901 23.8502L280.907 23.8373L279.079 23.025ZM278.929 13.725L277.14 14.6194L277.154 14.6465L277.168 14.6732L278.929 13.725ZM276.304 10.8L275.252 12.5005L275.269 12.5114L275.287 12.5219L276.304 10.8ZM261.304 9.825V7.825H259.304V9.825H261.304ZM252.954 54V0.749996H248.954V54H252.954ZM250.954 2.75H273.529V-1.25H250.954V2.75ZM273.529 2.75C275.698 2.75 277.646 3.19048 279.402 4.04753L281.156 0.452459C278.813 -0.690489 276.26 -1.25 273.529 -1.25V2.75ZM279.402 4.04753C281.217 4.93273 282.78 6.12205 284.105 7.62324L287.104 4.97676C285.429 3.07794 283.442 1.56727 281.156 0.452459L279.402 4.04753ZM284.126 7.64751C285.519 9.17508 286.591 10.8736 287.35 12.7504L291.058 11.2496C290.118 8.92642 288.789 6.82491 287.082 4.95249L284.126 7.64751ZM287.35 12.7504C288.107 14.6192 288.479 16.5149 288.479 18.45H292.479C292.479 15.9851 292.002 13.5808 291.058 11.2496L287.35 12.7504ZM288.479 18.45C288.479 21.125 287.858 23.6597 286.604 26.0794L290.155 27.9206C291.7 24.9403 292.479 21.775 292.479 18.45H288.479ZM286.604 26.0794C285.351 28.4964 283.641 30.4462 281.464 31.9568L283.744 35.2432C286.467 33.3538 288.608 30.9036 290.155 27.9206L286.604 26.0794ZM281.464 31.9568C279.389 33.3964 276.899 34.15 273.904 34.15V38.15C277.61 38.15 280.919 37.2036 283.744 35.2432L281.464 31.9568ZM273.904 34.15H261.304V38.15H273.904V34.15ZM259.304 36.15V54H263.304V36.15H259.304ZM261.304 52H250.954V56H261.304V52ZM261.304 29.075H273.304V25.075H261.304V29.075ZM273.304 29.075C274.954 29.075 276.482 28.6047 277.826 27.6635L275.532 24.3865C274.877 24.8452 274.154 25.075 273.304 25.075V29.075ZM277.826 27.6635C279.163 26.7279 280.173 25.4283 280.895 23.8631L277.263 22.1869C276.786 23.2217 276.196 23.9221 275.532 24.3865L277.826 27.6635ZM280.907 23.8373C281.636 22.1958 281.979 20.3879 281.979 18.45H277.979C277.979 19.9121 277.722 21.1542 277.252 22.2127L280.907 23.8373ZM281.979 18.45C281.979 16.3512 281.582 14.4329 280.69 12.7768L277.168 14.6732C277.677 15.6171 277.979 16.8488 277.979 18.45H281.979ZM280.718 12.8306C279.92 11.235 278.797 9.94994 277.322 9.07814L275.287 12.5219C276.011 12.9501 276.638 13.615 277.14 14.6194L280.718 12.8306ZM277.357 9.09947C275.987 8.25119 274.471 7.825 272.854 7.825V11.825C273.737 11.825 274.522 12.0488 275.252 12.5005L277.357 9.09947ZM272.854 7.825H261.304V11.825H272.854V7.825ZM259.304 9.825V27.075H263.304V9.825H259.304ZM297.683 54H295.683V56H297.683V54ZM297.683 0.749996V-1.25H295.683V0.749996H297.683ZM308.033 0.749996H310.033V-1.25H308.033V0.749996ZM308.033 44.925H306.033V46.925H308.033V44.925ZM335.183 44.925H337.183V42.925H335.183V44.925ZM335.183 54V56H337.183V54H335.183ZM299.683 54V0.749996H295.683V54H299.683ZM297.683 2.75H308.033V-1.25H297.683V2.75ZM306.033 0.749996V44.925H310.033V0.749996H306.033ZM308.033 46.925H335.183V42.925H308.033V46.925ZM333.183 44.925V54H337.183V44.925H333.183ZM335.183 52H297.683V56H335.183V52ZM355.957 0.749996V-1.25H354.563L354.08 0.0576077L355.957 0.749996ZM366.457 0.749996L368.334 0.0599346L367.852 -1.25H366.457V0.749996ZM386.032 54V56H388.898L387.909 53.3099L386.032 54ZM375.382 54L373.508 54.6988L373.993 56H375.382V54ZM370.432 40.725L372.306 40.0262L371.82 38.725H370.432V40.725ZM351.832 40.725V38.725H350.435L349.954 40.0356L351.832 40.725ZM346.957 54V56H348.353L348.834 54.6894L346.957 54ZM336.307 54L334.43 53.3076L333.437 56H336.307V54ZM368.557 33.45V35.45H371.334L370.453 32.8156L368.557 33.45ZM361.207 11.475L363.103 10.8406L361.245 5.28298L359.318 10.8175L361.207 11.475ZM353.557 33.45L351.668 32.7925L350.743 35.45H353.557V33.45ZM355.957 2.75H366.457V-1.25H355.957V2.75ZM364.579 1.44006L384.154 54.6901L387.909 53.3099L368.334 0.0599346L364.579 1.44006ZM386.032 52H375.382V56H386.032V52ZM377.256 53.3012L372.306 40.0262L368.558 41.4238L373.508 54.6988L377.256 53.3012ZM370.432 38.725H351.832V42.725H370.432V38.725ZM349.954 40.0356L345.079 53.3106L348.834 54.6894L353.709 41.4144L349.954 40.0356ZM346.957 52H336.307V56H346.957V52ZM338.183 54.6924L357.833 1.44239L354.08 0.0576077L334.43 53.3076L338.183 54.6924ZM370.453 32.8156L363.103 10.8406L359.31 12.1094L366.66 34.0844L370.453 32.8156ZM359.318 10.8175L351.668 32.7925L355.445 34.1075L363.095 12.1325L359.318 10.8175ZM353.557 35.45H368.557V31.45H353.557V35.45ZM402.222 19.8L403.789 18.5565L400.222 14.064V19.8H402.222ZM402.222 54V56H404.222V54H402.222ZM391.872 54H389.872V56H391.872V54ZM391.872 0.749996V-1.25H389.872V0.749996H391.872ZM400.122 0.749996L401.696 -0.484159L401.096 -1.25H400.122V0.749996ZM427.647 35.85L426.073 37.0842L429.647 41.6415V35.85H427.647ZM427.647 0.824997V-1.175H425.647V0.824997H427.647ZM437.997 0.824997H439.997V-1.175H437.997V0.824997ZM437.997 54V56H439.997V54H437.997ZM429.372 54L427.806 55.2435L428.406 56H429.372V54ZM400.222 19.8V54H404.222V19.8H400.222ZM402.222 52H391.872V56H402.222V52ZM393.872 54V0.749996H389.872V54H393.872ZM391.872 2.75H400.122V-1.25H391.872V2.75ZM398.548 1.98415L426.073 37.0842L429.221 34.6158L401.696 -0.484159L398.548 1.98415ZM429.647 35.85V0.824997H425.647V35.85H429.647ZM427.647 2.825H437.997V-1.175H427.647V2.825ZM435.997 0.824997V54H439.997V0.824997H435.997ZM437.997 52H429.372V56H437.997V52ZM430.939 52.7565L403.789 18.5565L400.656 21.0435L427.806 55.2435L430.939 52.7565ZM486.049 44.925H488.049V42.925H486.049V44.925ZM486.049 54V56H488.049V54H486.049ZM449.074 54H447.074V56H449.074V54ZM449.074 0.749996V-1.25H447.074V0.749996H449.074ZM485.374 0.749996H487.374V-1.25H485.374V0.749996ZM485.374 9.825V11.825H487.374V9.825H485.374ZM459.424 9.825V7.825H457.424V9.825H459.424ZM459.424 22.65H457.424V24.65H459.424V22.65ZM481.849 22.65H483.849V20.65H481.849V22.65ZM481.849 31.05V33.05H483.849V31.05H481.849ZM459.424 31.05V29.05H457.424V31.05H459.424ZM459.424 44.925H457.424V46.925H459.424V44.925ZM484.049 44.925V54H488.049V44.925H484.049ZM486.049 52H449.074V56H486.049V52ZM451.074 54V0.749996H447.074V54H451.074ZM449.074 2.75H485.374V-1.25H449.074V2.75ZM483.374 0.749996V9.825H487.374V0.749996H483.374ZM485.374 7.825H459.424V11.825H485.374V7.825ZM457.424 9.825V22.65H461.424V9.825H457.424ZM459.424 24.65H481.849V20.65H459.424V24.65ZM479.849 22.65V31.05H483.849V22.65H479.849ZM481.849 29.05H459.424V33.05H481.849V29.05ZM457.424 31.05V44.925H461.424V31.05H457.424ZM459.424 46.925H486.049V42.925H459.424V46.925ZM533.943 9.825V11.825H535.943V9.825H533.943ZM516.918 9.825V7.825H514.918V9.825H516.918ZM516.918 54V56H518.918V54H516.918ZM506.643 54H504.643V56H506.643V54ZM506.643 9.825H508.643V7.825H506.643V9.825ZM489.618 9.825H487.618V11.825H489.618V9.825ZM489.618 0.749996V-1.25H487.618V0.749996H489.618ZM533.943 0.749996H535.943V-1.25H533.943V0.749996ZM533.943 7.825H516.918V11.825H533.943V7.825ZM514.918 9.825V54H518.918V9.825H514.918ZM516.918 52H506.643V56H516.918V52ZM508.643 54V9.825H504.643V54H508.643ZM506.643 7.825H489.618V11.825H506.643V7.825ZM491.618 9.825V0.749996H487.618V9.825H491.618ZM489.618 2.75H533.943V-1.25H489.618V2.75ZM531.943 0.749996V9.825H535.943V0.749996H531.943ZM572.279 14.7L570.865 16.1142L572.756 18.0055L574.035 15.6566L572.279 14.7ZM570.329 13.275L569.219 14.9391L569.24 14.9528L569.261 14.966L570.329 13.275ZM566.954 11.55L566.175 13.3919L566.187 13.3971L566.199 13.4022L566.954 11.55ZM562.679 10.125L562.121 12.0457L562.15 12.0541L562.179 12.0616L562.679 10.125ZM551.579 11.025L550.406 9.40512L550.392 9.41494L550.379 9.425L551.579 11.025ZM554.879 21.075L554.246 22.9724L554.879 21.075ZM561.629 23.025L561.127 24.961L561.142 24.9649L561.157 24.9685L561.629 23.025ZM570.704 26.175L569.824 27.9708L569.845 27.9811L569.866 27.9909L570.704 26.175ZM576.629 30.975L574.971 32.0939L574.987 32.1179L575.004 32.1414L576.629 30.975ZM577.154 46.125L578.925 47.0547L578.929 47.0457L578.934 47.0368L577.154 46.125ZM566.504 53.775L566.96 55.7224L566.979 55.7178L566.999 55.7128L566.504 53.775ZM543.404 51.45L542.616 53.2883L542.632 53.2951L542.648 53.3017L543.404 51.45ZM536.654 47.7L534.874 46.7877L534.083 48.3312L535.499 49.3328L536.654 47.7ZM541.229 38.775L542.643 37.3608L540.702 35.4193L539.449 37.8627L541.229 38.775ZM543.629 40.575L542.536 42.2502L542.562 42.2672L542.589 42.2834L543.629 40.575ZM547.829 42.75L547.001 44.5707L547.024 44.5812L547.048 44.5912L547.829 42.75ZM553.229 44.55L552.732 46.4873L553.229 44.55ZM565.529 43.875L564.433 42.2021L565.529 43.875ZM561.179 33.75L560.533 35.6427L560.553 35.6498L560.574 35.6565L561.179 33.75ZM553.904 31.5L554.453 29.5769L554.45 29.5759L553.904 31.5ZM545.504 28.35L544.563 30.1147L544.578 30.1229L544.594 30.1309L545.504 28.35ZM540.479 23.85L538.772 24.8929L540.479 23.85ZM541.379 7.95L539.74 6.80306L539.736 6.80984L541.379 7.95ZM548.429 2.325L549.209 4.1665L549.222 4.16093L549.235 4.15517L548.429 2.325ZM565.304 1.2L564.819 3.14031L564.829 3.14279L565.304 1.2ZM571.604 3.375L572.442 1.55908L571.604 3.375ZM576.854 6.3L578.61 7.2566L579.479 5.66232L577.976 4.64416L576.854 6.3ZM573.693 13.2858C573.172 12.7648 572.355 12.1891 571.397 11.584L569.261 14.966C570.203 15.5609 570.686 15.9352 570.865 16.1142L573.693 13.2858ZM571.438 11.6109C570.396 10.9159 569.143 10.2822 567.708 9.69781L566.199 13.4022C567.465 13.9178 568.462 14.4341 569.219 14.9391L571.438 11.6109ZM567.733 9.70806C566.331 9.11499 564.812 8.60986 563.179 8.18844L562.179 12.0616C563.646 12.4401 564.976 12.885 566.175 13.3919L567.733 9.70806ZM563.237 8.2043C561.507 7.70216 559.744 7.45 557.954 7.45V11.45C559.364 11.45 560.751 11.6478 562.121 12.0457L563.237 8.2043ZM557.954 7.45C554.954 7.45 552.341 8.00397 550.406 9.40512L552.752 12.6449C553.717 11.946 555.354 11.45 557.954 11.45V7.45ZM550.379 9.425C548.427 10.8887 547.479 12.983 547.479 15.45H551.479C551.479 14.117 551.931 13.2613 552.779 12.625L550.379 9.425ZM547.479 15.45C547.479 17.3477 548.087 19.0611 549.456 20.354L552.202 17.446C551.771 17.0389 551.479 16.4523 551.479 15.45H547.479ZM549.456 20.354C550.65 21.4819 552.303 22.3246 554.246 22.9724L555.511 19.1776C553.855 18.6254 552.808 18.0181 552.202 17.446L549.456 20.354ZM554.246 22.9724C556.104 23.5917 558.401 24.2544 561.127 24.961L562.131 21.089C559.456 20.3956 557.253 19.7583 555.511 19.1776L554.246 22.9724ZM561.157 24.9685C564.552 25.7929 567.433 26.7991 569.824 27.9708L571.584 24.3792C568.875 23.0509 565.706 21.9571 562.101 21.0815L561.157 24.9685ZM569.866 27.9909C572.197 29.0667 573.861 30.4491 574.971 32.0939L578.287 29.8561C576.697 27.5009 574.411 25.6833 571.542 24.3591L569.866 27.9909ZM575.004 32.1414C576.087 33.6498 576.729 35.798 576.729 38.775H580.729C580.729 35.252 579.971 32.2002 578.254 29.8086L575.004 32.1414ZM576.729 38.775C576.729 41.3818 576.249 43.5046 575.374 45.2132L578.934 47.0368C580.159 44.6454 580.729 41.8682 580.729 38.775H576.729ZM575.383 45.1953C574.485 46.9063 573.257 48.2801 571.684 49.3428L573.924 52.6572C576.051 51.2199 577.723 49.3437 578.925 47.0547L575.383 45.1953ZM571.684 49.3428C570.041 50.4534 568.155 51.2892 566.009 51.8372L566.999 55.7128C569.552 55.0608 571.867 54.0466 573.924 52.6572L571.684 49.3428ZM566.048 51.8276C563.861 52.3394 561.515 52.6 559.004 52.6V56.6C561.793 56.6 564.447 56.3106 566.96 55.7224L566.048 51.8276ZM559.004 52.6C556.493 52.6 553.979 52.3396 551.46 51.8167L550.647 55.7333C553.428 56.3104 556.214 56.6 559.004 56.6V52.6ZM551.46 51.8167C548.927 51.291 546.494 50.5512 544.16 49.5983L542.648 53.3017C545.214 54.3488 547.881 55.159 550.647 55.7333L551.46 51.8167ZM544.192 49.6117C541.863 48.6137 539.737 47.4312 537.809 46.0672L535.499 49.3328C537.671 50.8689 540.045 52.1863 542.616 53.2883L544.192 49.6117ZM538.434 48.6123L543.009 39.6873L539.449 37.8627L534.874 46.7877L538.434 48.6123ZM539.815 40.1892C540.422 40.7962 541.372 41.4907 542.536 42.2502L544.721 38.8998C543.586 38.1593 542.936 37.6538 542.643 37.3608L539.815 40.1892ZM542.589 42.2834C543.826 43.0365 545.302 43.7981 547.001 44.5707L548.656 40.9293C547.056 40.2019 545.732 39.5135 544.669 38.8666L542.589 42.2834ZM547.048 44.5912C548.8 45.3347 550.697 45.9654 552.732 46.4873L553.726 42.6127C551.861 42.1346 550.157 41.5653 548.61 40.9088L547.048 44.5912ZM552.732 46.4873C554.843 47.0287 556.985 47.3 559.154 47.3V43.3C557.323 43.3 555.514 43.0713 553.726 42.6127L552.732 46.4873ZM559.154 47.3C562.126 47.3 564.705 46.8056 566.625 45.5479L564.433 42.2021C563.452 42.8444 561.782 43.3 559.154 43.3V47.3ZM566.625 45.5479C568.646 44.2241 569.704 42.2416 569.704 39.825H565.704C565.704 40.9084 565.312 41.6259 564.433 42.2021L566.625 45.5479ZM569.704 39.825C569.704 37.6774 568.897 35.8188 567.212 34.5L564.746 37.65C565.361 38.1312 565.704 38.7726 565.704 39.825H569.704ZM567.212 34.5C565.807 33.4009 563.963 32.5347 561.783 31.8435L560.574 35.6565C562.495 36.2653 563.851 36.9491 564.746 37.65L567.212 34.5ZM561.825 31.8573C559.734 31.1434 557.276 30.3833 554.453 29.577L553.354 33.423C556.132 34.2167 558.523 34.9566 560.533 35.6427L561.825 31.8573ZM554.45 29.5759C551.182 28.6492 548.513 27.642 546.414 26.5691L544.594 30.1309C546.995 31.358 549.926 32.4508 553.358 33.4241L554.45 29.5759ZM546.445 26.5853C544.444 25.5182 543.064 24.2446 542.185 22.8071L538.772 24.8929C540.094 27.0554 542.064 28.7818 544.563 30.1147L546.445 26.5853ZM542.185 22.8071C541.324 21.3977 540.829 19.5335 540.829 17.1H536.829C536.829 20.0665 537.434 22.7023 538.772 24.8929L542.185 22.8071ZM540.829 17.1C540.829 13.7651 541.602 11.1367 543.022 9.09016L539.736 6.80984C537.756 9.66335 536.829 13.1349 536.829 17.1H540.829ZM543.017 9.09692C544.541 6.92007 546.587 5.27774 549.209 4.1665L547.649 0.483496C544.371 1.87226 541.717 3.97992 539.74 6.80307L543.017 9.09692ZM549.235 4.15517C551.903 2.97957 554.899 2.375 558.254 2.375V-1.625C554.409 -1.625 550.855 -0.929571 547.622 0.494827L549.235 4.15517ZM558.254 2.375C560.607 2.375 562.793 2.63375 564.819 3.14028L565.789 -0.74029C563.415 -1.33376 560.901 -1.625 558.254 -1.625V2.375ZM564.829 3.14279C566.964 3.66464 568.941 4.3488 570.766 5.19092L572.442 1.55908C570.367 0.601194 568.144 -0.164642 565.779 -0.742802L564.829 3.14279ZM570.766 5.19092C572.631 6.05185 574.284 6.97493 575.732 7.95584L577.976 4.64416C576.324 3.52507 574.477 2.49815 572.442 1.55908L570.766 5.19092ZM575.098 5.34339L570.523 13.7434L574.035 15.6566L578.61 7.2566L575.098 5.34339ZM0.68573 124H-1.31427V126H0.68573V124ZM0.68573 70.75V68.75H-1.31427V70.75H0.68573ZM30.9857 72.25L30.1089 74.0475L30.1174 74.0517L30.1259 74.0557L30.9857 72.25ZM36.3857 76.3L34.8861 77.6232L34.8969 77.6355L34.9078 77.6475L36.3857 76.3ZM39.9107 82L38.0418 82.712L38.0491 82.7313L38.0569 82.7504L39.9107 82ZM39.9857 94.975L38.1168 94.263L38.1121 94.2754L38.1075 94.2878L39.9857 94.975ZM36.6857 100.375L35.2252 99.0087L36.6857 100.375ZM31.5858 103.975L30.7866 102.142L28.6888 103.056L29.8759 105.012L31.5858 103.975ZM43.7357 124V126H47.2886L45.4456 122.963L43.7357 124ZM32.3358 124L30.631 125.046L31.2163 126H32.3358V124ZM21.3857 106.15L23.0905 105.104L22.5052 104.15H21.3857V106.15ZM11.0357 106.15V104.15H9.03574V106.15H11.0357ZM11.0357 124V126H13.0357V124H11.0357ZM11.0357 97.075H9.03574V99.075H11.0357V97.075ZM27.4608 95.95L28.6607 97.55L28.6857 97.5313L28.7101 97.5117L27.4608 95.95ZM29.8607 92.8L31.6767 93.6381L29.8607 92.8ZM29.7108 84.025L27.9498 84.9732L27.9576 84.9878L27.9657 85.0022L29.7108 84.025ZM27.0107 80.95L25.8483 82.5775L25.866 82.5902L25.8841 82.6025L27.0107 80.95ZM11.0357 79.825V77.825H9.03574V79.825H11.0357ZM2.68573 124V70.75H-1.31427V124H2.68573ZM0.68573 72.75H24.2357V68.75H0.68573V72.75ZM24.2357 72.75C26.4049 72.75 28.3519 73.1905 30.1089 74.0475L31.8626 70.4525C29.5195 69.3095 26.9666 68.75 24.2357 68.75V72.75ZM30.1259 74.0557C31.9887 74.9428 33.5693 76.1309 34.8861 77.6232L37.8854 74.9768C36.2022 73.0691 34.1828 71.5572 31.8456 70.4443L30.1259 74.0557ZM34.9078 77.6475C36.2928 79.1666 37.3333 80.8521 38.0418 82.712L41.7797 81.288C40.8882 78.9479 39.5786 76.8334 37.8636 74.9525L34.9078 77.6475ZM38.0569 82.7504C38.8133 84.6192 39.1857 86.5149 39.1857 88.45H43.1857C43.1857 85.9851 42.7082 83.5808 41.7646 81.2496L38.0569 82.7504ZM39.1857 88.45C39.1857 90.457 38.83 92.3907 38.1168 94.263L41.8547 95.687C42.7415 93.3593 43.1857 90.943 43.1857 88.45H39.1857ZM38.1075 94.2878C37.4471 96.0931 36.4865 97.6604 35.2252 99.0087L38.1463 101.741C39.785 99.9896 41.0244 97.9569 41.864 95.6622L38.1075 94.2878ZM35.2252 99.0087C33.9619 100.359 32.4872 101.4 30.7866 102.142L32.3849 105.808C34.5844 104.85 36.5096 103.491 38.1463 101.741L35.2252 99.0087ZM29.8759 105.012L42.0258 125.037L45.4456 122.963L33.2956 102.938L29.8759 105.012ZM43.7357 122H32.3358V126H43.7357V122ZM34.0405 122.954L23.0905 105.104L19.6809 107.196L30.631 125.046L34.0405 122.954ZM21.3857 104.15H11.0357V108.15H21.3857V104.15ZM9.03574 106.15V124H13.0357V106.15H9.03574ZM11.0357 122H0.68573V126H11.0357V122ZM11.0357 99.075H24.0107V95.075H11.0357V99.075ZM24.0107 99.075C25.7249 99.075 27.3 98.5706 28.6607 97.55L26.2607 94.35C25.6215 94.8294 24.8965 95.075 24.0107 95.075V99.075ZM28.7101 97.5117C29.9799 96.4959 30.9621 95.1864 31.6767 93.6381L28.0448 91.9619C27.5594 93.0136 26.9415 93.8041 26.2114 94.3883L28.7101 97.5117ZM31.6767 93.6381C32.4115 92.046 32.7607 90.3052 32.7607 88.45H28.7607C28.7607 89.7948 28.51 90.954 28.0448 91.9619L31.6767 93.6381ZM32.7607 88.45C32.7607 86.4718 32.3517 84.6476 31.4557 83.0478L27.9657 85.0022C28.4698 85.9024 28.7607 87.0282 28.7607 88.45H32.7607ZM31.4717 83.0768C30.6366 81.5259 29.5301 80.2471 28.1374 79.2975L25.8841 82.6025C26.6914 83.1529 27.3849 83.9241 27.9498 84.9732L31.4717 83.0768ZM28.1732 79.3225C26.7957 78.3386 25.2417 77.825 23.5607 77.825V81.825C24.3798 81.825 25.1258 82.0614 25.8483 82.5775L28.1732 79.3225ZM23.5607 77.825H11.0357V81.825H23.5607V77.825ZM9.03574 79.825V97.075H13.0357V79.825H9.03574ZM87.5387 114.925H89.5387V112.925H87.5387V114.925ZM87.5387 124V126H89.5387V124H87.5387ZM50.5637 124H48.5637V126H50.5637V124ZM50.5637 70.75V68.75H48.5637V70.75H50.5637ZM86.8637 70.75H88.8637V68.75H86.8637V70.75ZM86.8637 79.825V81.825H88.8637V79.825H86.8637ZM60.9137 79.825V77.825H58.9137V79.825H60.9137ZM60.9137 92.65H58.9137V94.65H60.9137V92.65ZM83.3387 92.65H85.3387V90.65H83.3387V92.65ZM83.3387 101.05V103.05H85.3387V101.05H83.3387ZM60.9137 101.05V99.05H58.9137V101.05H60.9137ZM60.9137 114.925H58.9137V116.925H60.9137V114.925ZM85.5387 114.925V124H89.5387V114.925H85.5387ZM87.5387 122H50.5637V126H87.5387V122ZM52.5637 124V70.75H48.5637V124H52.5637ZM50.5637 72.75H86.8637V68.75H50.5637V72.75ZM84.8637 70.75V79.825H88.8637V70.75H84.8637ZM86.8637 77.825H60.9137V81.825H86.8637V77.825ZM58.9137 79.825V92.65H62.9137V79.825H58.9137ZM60.9137 94.65H83.3387V90.65H60.9137V94.65ZM81.3387 92.65V101.05H85.3387V92.65H81.3387ZM83.3387 99.05H60.9137V103.05H83.3387V99.05ZM58.9137 101.05V114.925H62.9137V101.05H58.9137ZM60.9137 116.925H87.5387V112.925H60.9137V116.925ZM93.1555 87.475L91.2865 86.763L91.2834 86.7712L91.2803 86.7794L93.1555 87.475ZM98.3305 78.925L99.8301 80.2482L99.8365 80.241L99.8428 80.2337L98.3305 78.925ZM106.58 72.775L107.419 74.5909L107.43 74.5856L107.441 74.5802L106.58 72.775ZM130.355 73.675L129.319 75.3857L129.33 75.3921L130.355 73.675ZM138.38 82.075L139.515 83.7222L140.955 82.7301L140.164 81.1702L138.38 82.075ZM130.43 87.55L128.607 88.3707L129.59 90.5569L131.565 89.1972L130.43 87.55ZM126.905 82.825L125.63 84.3658L125.646 84.3791L125.663 84.392L126.905 82.825ZM122.255 80.35L121.675 82.264L121.702 82.2722L121.729 82.2795L122.255 80.35ZM110.555 81.175L109.607 79.4141L109.598 79.4192L109.588 79.4245L110.555 81.175ZM105.755 85.3L104.167 84.0851L105.755 85.3ZM102.83 91L100.92 90.4086L100.913 90.4295L100.907 90.4506L102.83 91ZM103.055 104.125L101.162 104.77L101.165 104.777L101.167 104.784L103.055 104.125ZM106.205 109.9L104.639 111.144L104.659 111.169L104.68 111.194L106.205 109.9ZM111.155 113.875L110.224 115.645L110.252 115.659L110.28 115.673L111.155 113.875ZM122.555 114.475L121.94 112.572L122.555 114.475ZM127.28 111.85L126.005 110.309L127.28 111.85ZM130.655 107.2L131.653 105.466L129.691 104.338L128.812 106.424L130.655 107.2ZM139.13 112.075L140.99 112.812L141.627 111.204L140.128 110.341L139.13 112.075ZM133.955 118.825L132.734 117.241L132.726 117.247L132.718 117.254L133.955 118.825ZM126.005 123.025L126.619 124.929L126.005 123.025ZM106.805 122.125L105.9 123.908L105.911 123.914L105.922 123.92L106.805 122.125ZM98.6305 115.825L97.1059 117.119L97.119 117.135L97.1325 117.15L98.6305 115.825ZM93.3055 106.975L91.4352 107.683L91.4417 107.701L91.4485 107.718L93.3055 106.975ZM93.4305 97C93.4305 93.9916 93.9617 91.0519 95.0306 88.1706L91.2803 86.7794C90.0492 90.0981 89.4305 93.5084 89.4305 97H93.4305ZM95.0244 88.187C96.1382 85.2633 97.7375 82.6199 99.8301 80.2482L96.8308 77.6018C94.4235 80.3301 92.5727 83.3867 91.2865 86.763L95.0244 88.187ZM99.8428 80.2337C101.899 77.8577 104.416 75.9767 107.419 74.5909L105.742 70.9591C102.245 72.5733 99.2619 74.7923 96.8181 77.6162L99.8428 80.2337ZM107.441 74.5802C110.384 73.1766 113.783 72.45 117.68 72.45V68.45C113.278 68.45 109.277 69.2733 105.72 70.9698L107.441 74.5802ZM117.68 72.45C122.282 72.45 126.134 73.4567 129.319 75.3857L131.392 71.9643C127.477 69.5933 122.879 68.45 117.68 68.45V72.45ZM129.33 75.3921C132.634 77.3653 135.032 79.895 136.597 82.9798L140.164 81.1702C138.229 77.355 135.277 74.2847 131.381 71.9579L129.33 75.3921ZM137.246 80.4278L129.296 85.9028L131.565 89.1972L139.515 83.7222L137.246 80.4278ZM132.254 86.7293C131.247 84.4914 129.891 82.6404 128.148 81.258L125.663 84.392C126.82 85.3096 127.814 86.6086 128.607 88.3707L132.254 86.7293ZM128.181 81.2842C126.534 79.9212 124.733 78.9526 122.782 78.4205L121.729 82.2795C123.078 82.6474 124.377 83.3288 125.63 84.3658L128.181 81.2842ZM122.835 78.436C121.012 77.8834 119.192 77.6 117.38 77.6V81.6C118.769 81.6 120.199 81.8166 121.675 82.264L122.835 78.436ZM117.38 77.6C114.507 77.6 111.896 78.1819 109.607 79.4141L111.504 82.9359C113.115 82.0681 115.054 81.6 117.38 81.6V77.6ZM109.588 79.4245C107.45 80.6062 105.637 82.1623 104.167 84.0851L107.344 86.5149C108.474 85.0377 109.861 83.8438 111.523 82.9255L109.588 79.4245ZM104.167 84.0851C102.72 85.9775 101.638 88.0897 100.92 90.4086L104.741 91.5914C105.323 89.7103 106.191 88.0225 107.344 86.5149L104.167 84.0851ZM100.907 90.4506C100.258 92.7221 99.9305 95.0068 99.9305 97.3H103.93C103.93 95.3932 104.203 93.4779 104.754 91.5494L100.907 90.4506ZM99.9305 97.3C99.9305 99.8671 100.341 102.36 101.162 104.77L104.948 103.48C104.27 101.49 103.93 99.4329 103.93 97.3H99.9305ZM101.167 104.784C101.987 107.135 103.143 109.26 104.639 111.144L107.772 108.656C106.568 107.14 105.624 105.415 104.944 103.466L101.167 104.784ZM104.68 111.194C106.245 113.038 108.096 114.525 110.224 115.645L112.087 112.105C110.415 111.225 108.966 110.062 107.73 108.606L104.68 111.194ZM110.28 115.673C112.519 116.764 114.946 117.3 117.53 117.3V113.3C115.515 113.3 113.692 112.886 112.031 112.077L110.28 115.673ZM117.53 117.3C119.406 117.3 121.289 116.987 123.171 116.378L121.94 112.572C120.422 113.063 118.955 113.3 117.53 113.3V117.3ZM123.171 116.378C125.125 115.746 126.921 114.743 128.556 113.391L126.005 110.309C124.74 111.357 123.386 112.104 121.94 112.572L123.171 116.378ZM128.556 113.391C130.277 111.966 131.586 110.144 132.499 107.976L128.812 106.424C128.125 108.056 127.184 109.334 126.005 110.309L128.556 113.391ZM129.658 108.934L138.133 113.809L140.128 110.341L131.653 105.466L129.658 108.934ZM137.271 111.338C136.362 113.632 134.868 115.596 132.734 117.241L135.176 120.409C137.843 118.354 139.799 115.818 140.99 112.812L137.271 111.338ZM132.718 117.254C130.562 118.951 128.125 120.241 125.392 121.121L126.619 124.929C129.786 123.909 132.649 122.399 135.193 120.396L132.718 117.254ZM125.392 121.121C122.627 122.012 119.909 122.45 117.23 122.45V126.45C120.352 126.45 123.484 125.938 126.619 124.929L125.392 121.121ZM117.23 122.45C113.711 122.45 110.542 121.734 107.688 120.33L105.922 123.92C109.369 125.616 113.15 126.45 117.23 126.45V122.45ZM107.711 120.342C104.782 118.854 102.259 116.908 100.128 114.5L97.1325 117.15C99.6023 119.942 102.529 122.196 105.9 123.908L107.711 120.342ZM100.155 114.531C98.0459 112.046 96.3827 109.283 95.1624 106.232L91.4485 107.718C92.8282 111.167 94.715 114.304 97.1059 117.119L100.155 114.531ZM95.1758 106.267C94.0069 103.181 93.4305 100.095 93.4305 97H89.4305C89.4305 100.605 90.104 104.169 91.4352 107.683L95.1758 106.267ZM157.487 122.125L156.627 123.931L156.638 123.936L157.487 122.125ZM149.312 116.05L147.8 117.359L147.813 117.374L147.827 117.39L149.312 116.05ZM144.062 107.35L142.196 108.068L142.199 108.078L144.062 107.35ZM144.137 87.25L142.29 86.4828L142.287 86.49L142.284 86.4972L144.137 87.25ZM149.612 78.625L148.142 77.2696L148.14 77.2709L149.612 78.625ZM157.862 72.625L158.699 74.4418L158.711 74.4359L157.862 72.625ZM178.862 72.7L177.979 74.4945L177.99 74.5L178.862 72.7ZM187.037 78.925L185.525 80.2337L187.037 78.925ZM192.287 87.625L194.15 86.8973L192.287 87.625ZM192.212 107.65L194.065 108.403L194.069 108.393L192.212 107.65ZM186.737 116.275L185.267 114.92L185.265 114.921L186.737 116.275ZM178.487 122.2L177.662 120.378L177.651 120.383L178.487 122.2ZM153.737 104.05L151.836 104.669L153.737 104.05ZM156.737 109.825L155.149 111.04L155.169 111.066L155.189 111.091L156.737 109.825ZM161.612 113.8L160.681 115.57L160.708 115.584L160.736 115.598L161.612 113.8ZM174.887 113.725L175.8 115.505L175.818 115.495L175.836 115.486L174.887 113.725ZM179.762 109.6L181.351 110.815L181.359 110.804L181.368 110.793L179.762 109.6ZM182.687 103.825L180.786 103.206L180.781 103.22L180.777 103.234L182.687 103.825ZM182.612 90.775L180.711 91.3942L180.719 91.4211L180.729 91.4477L182.612 90.775ZM179.537 85.075L177.949 86.2899L177.969 86.316L177.989 86.3415L179.537 85.075ZM174.662 81.1L173.731 82.8698L173.758 82.8843L173.786 82.898L174.662 81.1ZM161.462 81.175L162.394 82.9448L162.402 82.9404L162.41 82.9359L161.462 81.175ZM156.662 85.225L155.074 84.0101L156.662 85.225ZM153.662 90.925L151.765 90.2925L151.758 90.313L151.752 90.3336L153.662 90.925ZM168.137 122.375C164.5 122.375 161.244 121.677 158.336 120.314L156.638 123.936C160.131 125.573 163.975 126.375 168.137 126.375V122.375ZM158.347 120.319C155.43 118.93 152.919 117.062 150.797 114.71L147.827 117.39C150.306 120.138 153.244 122.32 156.627 123.931L158.347 120.319ZM150.825 114.741C148.724 112.313 147.092 109.61 145.925 106.622L142.199 108.078C143.532 111.49 145.401 114.587 147.8 117.359L150.825 114.741ZM145.929 106.632C144.765 103.606 144.187 100.524 144.187 97.375H140.187C140.187 101.026 140.86 104.594 142.196 108.068L145.929 106.632ZM144.187 97.375C144.187 94.0757 144.79 90.957 145.99 88.0028L142.284 86.4972C140.885 89.943 140.187 93.5743 140.187 97.375H144.187ZM145.984 88.0172C147.248 84.9754 148.948 82.3008 151.084 79.9791L148.14 77.2709C145.676 79.9492 143.727 83.0246 142.29 86.4828L145.984 88.0172ZM151.083 79.9804C153.254 77.6245 155.788 75.7813 158.699 74.4418L157.026 70.8082C153.636 72.3686 150.671 74.5255 148.142 77.2696L151.083 79.9804ZM158.711 74.4359C161.626 73.0696 164.833 72.375 168.362 72.375V68.375C164.291 68.375 160.499 69.1804 157.013 70.8141L158.711 74.4359ZM168.362 72.375C171.936 72.375 175.13 73.0924 177.979 74.4945L179.745 70.9055C176.295 69.2076 172.488 68.375 168.362 68.375V72.375ZM177.99 74.5C180.954 75.9356 183.459 77.8464 185.525 80.2337L188.55 77.6162C186.116 74.8036 183.17 72.5644 179.734 70.9L177.99 74.5ZM185.525 80.2337C187.626 82.6616 189.257 85.3651 190.424 88.3527L194.15 86.8973C192.817 83.4849 190.949 80.3884 188.55 77.6162L185.525 80.2337ZM190.424 88.3527C191.585 91.3233 192.162 94.3766 192.162 97.525H196.162C196.162 93.8734 195.49 90.3267 194.15 86.8973L190.424 88.3527ZM192.162 97.525C192.162 100.771 191.561 103.893 190.355 106.907L194.069 108.393C195.464 104.907 196.162 101.279 196.162 97.525H192.162ZM190.359 106.897C189.15 109.874 187.455 112.545 185.267 114.92L188.208 117.63C190.72 114.905 192.675 111.826 194.065 108.403L190.359 106.897ZM185.265 114.921C183.154 117.216 180.626 119.035 177.662 120.378L179.313 124.022C182.749 122.465 185.721 120.334 188.209 117.629L185.265 114.921ZM177.651 120.383C174.784 121.703 171.622 122.375 168.137 122.375V126.375C172.152 126.375 175.891 125.597 179.324 124.017L177.651 120.383ZM150.687 97.375C150.687 99.8816 151.069 102.316 151.836 104.669L155.639 103.431C155.005 101.484 154.687 99.4684 154.687 97.375H150.687ZM151.836 104.669C152.602 107.022 153.704 109.15 155.149 111.04L158.326 108.61C157.171 107.1 156.273 105.378 155.639 103.431L151.836 104.669ZM155.189 111.091C156.71 112.95 158.545 114.446 160.681 115.57L162.544 112.03C160.879 111.154 159.464 110 158.285 108.559L155.189 111.091ZM160.736 115.598C162.993 116.697 165.498 117.225 168.212 117.225V113.225C166.026 113.225 164.132 112.803 162.488 112.002L160.736 115.598ZM168.212 117.225C170.985 117.225 173.53 116.669 175.8 115.505L173.975 111.945C172.345 112.781 170.44 113.225 168.212 113.225V117.225ZM175.836 115.486C178.026 114.306 179.873 112.748 181.351 110.815L178.174 108.385C177.052 109.852 175.648 111.044 173.939 111.964L175.836 115.486ZM181.368 110.793C182.804 108.859 183.882 106.731 184.598 104.416L180.777 103.234C180.193 105.119 179.321 106.841 178.157 108.407L181.368 110.793ZM184.589 104.444C185.351 102.105 185.737 99.7459 185.737 97.375H181.737C181.737 99.3041 181.424 101.245 180.786 103.206L184.589 104.444ZM185.737 97.375C185.737 94.8531 185.325 92.425 184.496 90.1023L180.729 91.4477C181.399 93.325 181.737 95.2969 181.737 97.375H185.737ZM184.514 90.1558C183.742 87.7844 182.602 85.6619 181.085 83.8085L177.989 86.3415C179.173 87.7881 180.083 89.4656 180.711 91.3942L184.514 90.1558ZM181.126 83.8601C179.634 81.9095 177.764 80.3864 175.538 79.302L173.786 82.898C175.461 83.7136 176.84 84.8405 177.949 86.2899L181.126 83.8601ZM175.594 79.3302C173.374 78.1619 170.898 77.6 168.212 77.6V81.6C170.327 81.6 172.151 82.0381 173.731 82.8698L175.594 79.3302ZM168.212 77.6C165.382 77.6 162.797 78.1848 160.514 79.4141L162.41 82.9359C164.028 82.0652 165.943 81.6 168.212 81.6V77.6ZM160.531 79.4052C158.375 80.5398 156.55 82.0789 155.074 84.0101L158.251 86.4399C159.374 84.9711 160.75 83.8102 162.394 82.9448L160.531 79.4052ZM155.074 84.0101C153.635 85.8918 152.532 87.99 151.765 90.2925L155.56 91.5575C156.192 89.66 157.09 87.9582 158.251 86.4399L155.074 84.0101ZM151.752 90.3336C151.042 92.6253 150.687 94.9747 150.687 97.375H154.687C154.687 95.3753 154.982 93.4247 155.573 91.5164L151.752 90.3336ZM245.527 124H243.527V126H245.527V124ZM245.527 89.05H247.527L243.756 88.121L245.527 89.05ZM231.877 115.075V117.075H233.086L233.648 116.004L231.877 115.075ZM226.102 115.075L224.331 116.004L224.892 117.075H226.102V115.075ZM212.452 89.05L214.223 88.121L210.452 89.05H212.452ZM212.452 124V126H214.452V124H212.452ZM202.102 124H200.102V126H202.102V124ZM202.102 70.75V68.75H200.102V70.75H202.102ZM213.202 70.75L214.976 69.8276L214.416 68.75H213.202V70.75ZM228.952 101.05L227.177 101.972L228.943 105.37L230.723 101.979L228.952 101.05ZM244.852 70.75V68.75H243.643L243.081 69.8207L244.852 70.75ZM255.877 70.75H257.877V68.75H255.877V70.75ZM255.877 124V126H257.877V124H255.877ZM247.527 124V89.05H243.527V124H247.527ZM243.756 88.121L230.106 114.146L233.648 116.004L247.298 89.979L243.756 88.121ZM231.877 113.075H226.102V117.075H231.877V113.075ZM227.873 114.146L214.223 88.121L210.681 89.979L224.331 116.004L227.873 114.146ZM210.452 89.05V124H214.452V89.05H210.452ZM212.452 122H202.102V126H212.452V122ZM204.102 124V70.75H200.102V124H204.102ZM202.102 72.75H213.202V68.75H202.102V72.75ZM211.427 71.6724L227.177 101.972L230.726 100.128L214.976 69.8276L211.427 71.6724ZM230.723 101.979L246.623 71.6793L243.081 69.8207L227.181 100.121L230.723 101.979ZM244.852 72.75H255.877V68.75H244.852V72.75ZM253.877 70.75V124H257.877V70.75H253.877ZM255.877 122H245.527V126H255.877V122ZM310.419 124H308.419V126H310.419V124ZM310.419 89.05H312.419L308.648 88.121L310.419 89.05ZM296.769 115.075V117.075H297.979L298.541 116.004L296.769 115.075ZM290.994 115.075L289.223 116.004L289.785 117.075H290.994V115.075ZM277.344 89.05L279.115 88.121L275.344 89.05H277.344ZM277.344 124V126H279.344V124H277.344ZM266.994 124H264.994V126H266.994V124ZM266.994 70.75V68.75H264.994V70.75H266.994ZM278.094 70.75L279.869 69.8276L279.309 68.75H278.094V70.75ZM293.844 101.05L292.07 101.972L293.836 105.37L295.615 101.979L293.844 101.05ZM309.744 70.75V68.75H308.535L307.973 69.8207L309.744 70.75ZM320.769 70.75H322.769V68.75H320.769V70.75ZM320.769 124V126H322.769V124H320.769ZM312.419 124V89.05H308.419V124H312.419ZM308.648 88.121L294.998 114.146L298.541 116.004L312.19 89.979L308.648 88.121ZM296.769 113.075H290.994V117.075H296.769V113.075ZM292.766 114.146L279.115 88.121L275.573 89.979L289.223 116.004L292.766 114.146ZM275.344 89.05V124H279.344V89.05H275.344ZM277.344 122H266.994V126H277.344V122ZM268.994 124V70.75H264.994V124H268.994ZM266.994 72.75H278.094V68.75H266.994V72.75ZM276.32 71.6724L292.07 101.972L295.619 100.128L279.869 69.8276L276.32 71.6724ZM295.615 101.979L311.515 71.6793L307.973 69.8207L292.073 100.121L295.615 101.979ZM309.744 72.75H320.769V68.75H309.744V72.75ZM318.769 70.75V124H322.769V70.75H318.769ZM320.769 122H310.419V126H320.769V122ZM368.862 114.925H370.862V112.925H368.862V114.925ZM368.862 124V126H370.862V124H368.862ZM331.887 124H329.887V126H331.887V124ZM331.887 70.75V68.75H329.887V70.75H331.887ZM368.187 70.75H370.187V68.75H368.187V70.75ZM368.187 79.825V81.825H370.187V79.825H368.187ZM342.237 79.825V77.825H340.237V79.825H342.237ZM342.237 92.65H340.237V94.65H342.237V92.65ZM364.662 92.65H366.662V90.65H364.662V92.65ZM364.662 101.05V103.05H366.662V101.05H364.662ZM342.237 101.05V99.05H340.237V101.05H342.237ZM342.237 114.925H340.237V116.925H342.237V114.925ZM366.862 114.925V124H370.862V114.925H366.862ZM368.862 122H331.887V126H368.862V122ZM333.887 124V70.75H329.887V124H333.887ZM331.887 72.75H368.187V68.75H331.887V72.75ZM366.187 70.75V79.825H370.187V70.75H366.187ZM368.187 77.825H342.237V81.825H368.187V77.825ZM340.237 79.825V92.65H344.237V79.825H340.237ZM342.237 94.65H364.662V90.65H342.237V94.65ZM362.662 92.65V101.05H366.662V92.65H362.662ZM364.662 99.05H342.237V103.05H364.662V99.05ZM340.237 101.05V114.925H344.237V101.05H340.237ZM342.237 116.925H368.862V112.925H342.237V116.925ZM387.281 89.8L388.847 88.5565L385.281 84.064V89.8H387.281ZM387.281 124V126H389.281V124H387.281ZM376.931 124H374.931V126H376.931V124ZM376.931 70.75V68.75H374.931V70.75H376.931ZM385.181 70.75L386.755 69.5158L386.154 68.75H385.181V70.75ZM412.706 105.85L411.132 107.084L414.706 111.641V105.85H412.706ZM412.706 70.825V68.825H410.706V70.825H412.706ZM423.056 70.825H425.056V68.825H423.056V70.825ZM423.056 124V126H425.056V124H423.056ZM414.431 124L412.864 125.244L413.465 126H414.431V124ZM385.281 89.8V124H389.281V89.8H385.281ZM387.281 122H376.931V126H387.281V122ZM378.931 124V70.75H374.931V124H378.931ZM376.931 72.75H385.181V68.75H376.931V72.75ZM383.607 71.9842L411.132 107.084L414.28 104.616L386.755 69.5158L383.607 71.9842ZM414.706 105.85V70.825H410.706V105.85H414.706ZM412.706 72.825H423.056V68.825H412.706V72.825ZM421.056 70.825V124H425.056V70.825H421.056ZM423.056 122H414.431V126H423.056V122ZM415.997 122.756L388.847 88.5565L385.714 91.0435L412.864 125.244L415.997 122.756ZM434.133 124H432.133V126H434.133V124ZM434.133 70.75V68.75H432.133V70.75H434.133ZM468.033 74.35L466.985 76.0533L466.993 76.0582L467.001 76.063L468.033 74.35ZM476.808 83.95L475.006 84.8176L475.01 84.8264L476.808 83.95ZM476.508 111.4L478.27 112.347V112.347L476.508 111.4ZM467.358 120.7L466.385 118.953L466.375 118.958L467.358 120.7ZM467.433 88.225L465.624 89.0782L465.627 89.0849L465.63 89.0916L467.433 88.225ZM462.033 82.075L460.957 83.7608L460.97 83.7691L460.983 83.7771L462.033 82.075ZM444.483 79.825V77.825H442.483V79.825H444.483ZM444.483 114.925H442.483V116.925H444.483V114.925ZM462.108 112.675L463.184 114.361L463.197 114.353L463.209 114.345L462.108 112.675ZM467.433 106.375L465.618 105.535L465.615 105.542L465.611 105.55L467.433 106.375ZM436.133 124V70.75H432.133V124H436.133ZM434.133 72.75H453.483V68.75H434.133V72.75ZM453.483 72.75C459.01 72.75 463.474 73.8928 466.985 76.0533L469.081 72.6467C464.792 70.0072 459.555 68.75 453.483 68.75V72.75ZM467.001 76.063C470.572 78.2149 473.227 81.1231 475.006 84.8176L478.61 83.0824C476.489 78.6769 473.294 75.1851 469.065 72.6369L467.001 76.063ZM475.01 84.8264C476.814 88.5267 477.733 92.6726 477.733 97.3H481.733C481.733 92.1274 480.702 87.3732 478.606 83.0736L475.01 84.8264ZM477.733 97.3C477.733 102.432 476.713 106.795 474.746 110.453L478.27 112.347C480.603 108.005 481.733 102.968 481.733 97.3H477.733ZM474.746 110.453C472.776 114.118 469.999 116.94 466.385 118.953L468.331 122.447C472.617 120.06 475.94 116.682 478.27 112.347L474.746 110.453ZM466.375 118.958C462.829 120.959 458.556 122 453.483 122V126C459.11 126 464.087 124.841 468.341 122.442L466.375 118.958ZM453.483 122H434.133V126H453.483V122ZM471.308 97.3C471.308 93.6081 470.639 90.2767 469.236 87.3584L465.63 89.0916C466.727 91.3733 467.308 94.0919 467.308 97.3H471.308ZM469.242 87.3718C467.837 84.3938 465.784 82.0391 463.083 80.3729L460.983 83.7771C462.982 85.0109 464.529 86.7562 465.624 89.0782L469.242 87.3718ZM463.109 80.3892C460.378 78.6459 457.137 77.825 453.483 77.825V81.825C456.529 81.825 458.988 82.5041 460.957 83.7608L463.109 80.3892ZM453.483 77.825H444.483V81.825H453.483V77.825ZM442.483 79.825V114.925H446.483V79.825H442.483ZM444.483 116.925H453.483V112.925H444.483V116.925ZM453.483 116.925C457.18 116.925 460.448 116.107 463.184 114.361L461.032 110.989C459.068 112.243 456.586 112.925 453.483 112.925V116.925ZM463.209 114.345C465.885 112.58 467.905 110.182 469.255 107.2L465.611 105.55C464.561 107.868 463.031 109.67 461.007 111.005L463.209 114.345ZM469.248 107.215C470.634 104.221 471.308 100.904 471.308 97.3H467.308C467.308 100.396 466.732 103.129 465.618 105.535L469.248 107.215ZM524.795 114.925H526.795V112.925H524.795V114.925ZM524.795 124V126H526.795V124H524.795ZM487.82 124H485.82V126H487.82V124ZM487.82 70.75V68.75H485.82V70.75H487.82ZM524.12 70.75H526.12V68.75H524.12V70.75ZM524.12 79.825V81.825H526.12V79.825H524.12ZM498.17 79.825V77.825H496.17V79.825H498.17ZM498.17 92.65H496.17V94.65H498.17V92.65ZM520.595 92.65H522.595V90.65H520.595V92.65ZM520.595 101.05V103.05H522.595V101.05H520.595ZM498.17 101.05V99.05H496.17V101.05H498.17ZM498.17 114.925H496.17V116.925H498.17V114.925ZM522.795 114.925V124H526.795V114.925H522.795ZM524.795 122H487.82V126H524.795V122ZM489.82 124V70.75H485.82V124H489.82ZM487.82 72.75H524.12V68.75H487.82V72.75ZM522.12 70.75V79.825H526.12V70.75H522.12ZM524.12 77.825H498.17V81.825H524.12V77.825ZM496.17 79.825V92.65H500.17V79.825H496.17ZM498.17 94.65H520.595V90.65H498.17V94.65ZM518.595 92.65V101.05H522.595V92.65H518.595ZM520.595 99.05H498.17V103.05H520.595V99.05ZM496.17 101.05V114.925H500.17V101.05H496.17ZM498.17 116.925H524.795V112.925H498.17V116.925ZM532.863 124H530.863V126H532.863V124ZM532.863 70.75V68.75H530.863V70.75H532.863ZM566.763 74.35L565.715 76.0533L565.723 76.0582L565.731 76.063L566.763 74.35ZM575.538 83.95L573.736 84.8176L573.741 84.8264L575.538 83.95ZM575.238 111.4L577 112.347V112.347L575.238 111.4ZM566.089 120.7L565.115 118.953L565.106 118.958L566.089 120.7ZM566.163 88.225L564.355 89.0782L564.358 89.0849L564.361 89.0916L566.163 88.225ZM560.763 82.075L559.687 83.7608L559.7 83.7691L559.713 83.7771L560.763 82.075ZM543.214 79.825V77.825H541.214V79.825H543.214ZM543.214 114.925H541.214V116.925H543.214V114.925ZM560.839 112.675L561.915 114.361L561.927 114.353L561.94 114.345L560.839 112.675ZM566.163 106.375L564.349 105.535L564.345 105.542L564.342 105.55L566.163 106.375ZM534.863 124V70.75H530.863V124H534.863ZM532.863 72.75H552.214V68.75H532.863V72.75ZM552.214 72.75C557.741 72.75 562.204 73.8928 565.715 76.0533L567.812 72.6467C563.523 70.0072 558.286 68.75 552.214 68.75V72.75ZM565.731 76.063C569.302 78.2149 571.958 81.1231 573.736 84.8176L577.34 83.0824C575.219 78.6769 572.024 75.1851 567.796 72.6369L565.731 76.063ZM573.741 84.8264C575.545 88.5267 576.464 92.6726 576.464 97.3H580.464C580.464 92.1274 579.432 87.3732 577.336 83.0736L573.741 84.8264ZM576.464 97.3C576.464 102.432 575.443 106.795 573.477 110.453L577 112.347C579.334 108.005 580.464 102.968 580.464 97.3H576.464ZM573.477 110.453C571.507 114.118 568.73 116.94 565.115 118.953L567.062 122.447C571.347 120.06 574.67 116.682 577 112.347L573.477 110.453ZM565.106 118.958C561.559 120.959 557.286 122 552.214 122V126C557.841 126 562.818 124.841 567.071 122.442L565.106 118.958ZM552.214 122H532.863V126H552.214V122ZM570.038 97.3C570.038 93.6081 569.369 90.2767 567.966 87.3584L564.361 89.0916C565.458 91.3733 566.038 94.0919 566.038 97.3H570.038ZM567.972 87.3718C566.568 84.3938 564.514 82.0391 561.814 80.3729L559.713 83.7771C561.713 85.0109 563.259 86.7562 564.355 89.0782L567.972 87.3718ZM561.84 80.3892C559.108 78.6459 555.867 77.825 552.214 77.825V81.825C555.26 81.825 557.719 82.5041 559.687 83.7608L561.84 80.3892ZM552.214 77.825H543.214V81.825H552.214V77.825ZM541.214 79.825V114.925H545.214V79.825H541.214ZM543.214 116.925H552.214V112.925H543.214V116.925ZM552.214 116.925C555.911 116.925 559.179 116.107 561.915 114.361L559.762 110.989C557.798 112.243 555.316 112.925 552.214 112.925V116.925ZM561.94 114.345C564.616 112.58 566.635 110.182 567.985 107.2L564.342 105.55C563.292 107.868 561.761 109.67 559.737 111.005L561.94 114.345ZM567.978 107.215C569.365 104.221 570.038 100.904 570.038 97.3H566.038C566.038 100.396 565.462 103.129 564.349 105.535L567.978 107.215Z" fill="white"/>
</svg>
