<svg width="728" height="168" viewBox="0 0 728 168" fill="none" xmlns="http://www.w3.org/2000/svg">
<path d="M87.5 315C93 313.5 99.5 320 97 325C99.3465 335.576 108.352 331.48 105 343C89.0773 357.919 71.0561 378.705 57.48 396.268C49.9377 405.899 43.0658 416.475 38.3728 428.184C30.4952 448.579 37.5347 461.421 57.1448 462.743C65.8603 463.31 74.4083 463.121 82.9562 461.61C120.668 455 156.536 440.459 191.733 424.595C281.068 383.993 365.374 332.625 446.999 275.404C471.637 258.219 495.102 238.767 518.902 220.071C539.015 204.396 558.29 187.589 578.067 171.725C603.879 150.952 627.679 126.968 648.63 99.9622C657.681 88.2535 666.396 76.1671 672.262 62.0033C680.308 42.9295 676.117 29.1434 656.843 27.0661C653.323 26.6884 649.636 26.1218 646.116 26.1218C616.617 27.0661 589.129 37.4528 561.474 47.273C550.747 43.496 544.378 34.4312 538.512 24.4222C580.414 9.31415 623.154 -0.883752 667.234 0.0604987C679.805 0.249349 692.208 2.7044 703.773 8.93645C721.874 18.5678 730.422 36.6974 727.405 58.9817C723.885 83.9099 712.991 104.872 700.42 125.079C682.319 154.351 660.698 180.035 637.568 204.207C635.221 206.662 632.204 208.929 631.702 213.083C629.02 213.461 627.176 215.35 625.332 217.238C605.22 238.578 583.598 258.03 561.642 276.726C516.891 314.685 470.128 349.244 421.522 380.782C351.295 426.106 278.386 465.009 201.454 494.281C198.773 495.414 195.085 495.225 194.583 499.947C191.063 496.925 187.711 499.002 184.191 500.135C146.982 512.222 109.438 522.609 70.2181 522.986C54.7983 523.175 39.546 521.476 25.2994 514.11C5.01898 503.724 -3.52897 483.894 1.33163 459.344C7.19787 429.317 22.1149 404.766 38.3728 381.16C52.9546 360.009 67.5717 340.196 84.5 321.5C87.3493 318.856 86.662 319.155 87.5 315Z" fill="#F7CC7E"/>
</svg>
