<svg width="715" height="164" viewBox="0 0 715 164" fill="none" xmlns="http://www.w3.org/2000/svg">
<path d="M0.230157 163V77.8H58.6702V98.2H23.6302V112.36H52.1902V131.32H23.6302V163H0.230157ZM94.0195 77.8H120.18L147.3 163H123.54L118.38 146.32H95.6995L90.6595 163H66.7795L94.0195 77.8ZM114.66 130.72L107.1 100.72L99.1795 130.72H114.66ZM175.905 77.8L192.585 136L209.025 77.8H233.625L204.225 163H180.945L151.185 77.8H175.905ZM287.091 163.72C280.611 163.72 274.731 162.52 269.451 160.12C264.171 157.64 259.611 154.36 255.771 150.28C252.011 146.12 249.091 141.48 247.011 136.36C245.011 131.16 244.011 125.8 244.011 120.28C244.011 114.6 245.091 109.2 247.251 104.08C249.411 98.96 252.411 94.4 256.251 90.4C260.171 86.32 264.771 83.12 270.051 80.8C275.411 78.48 281.251 77.32 287.571 77.32C294.051 77.32 299.931 78.56 305.211 81.04C310.491 83.44 315.011 86.72 318.771 90.88C322.531 95.04 325.411 99.72 327.411 104.92C329.491 110.04 330.531 115.32 330.531 120.76C330.531 126.36 329.451 131.72 327.291 136.84C325.211 141.96 322.211 146.56 318.291 150.64C314.451 154.64 309.891 157.84 304.611 160.24C299.331 162.56 293.491 163.72 287.091 163.72ZM267.771 120.52C267.771 123.4 268.171 126.2 268.971 128.92C269.771 131.56 270.971 133.96 272.571 136.12C274.171 138.2 276.171 139.88 278.571 141.16C281.051 142.36 283.971 142.96 287.331 142.96C290.691 142.96 293.611 142.32 296.091 141.04C298.571 139.76 300.571 138.04 302.091 135.88C303.691 133.64 304.851 131.2 305.571 128.56C306.371 125.84 306.771 123.08 306.771 120.28C306.771 117.4 306.371 114.64 305.571 112C304.771 109.36 303.571 107 301.971 104.92C300.371 102.76 298.331 101.08 295.851 99.88C293.371 98.68 290.491 98.08 287.211 98.08C283.851 98.08 280.931 98.72 278.451 100C276.051 101.28 274.051 103 272.451 105.16C270.851 107.24 269.651 109.64 268.851 112.36C268.131 115 267.771 117.72 267.771 120.52ZM352.449 163V77.8H391.569C395.729 77.8 399.569 78.64 403.089 80.32C406.609 82 409.649 84.28 412.209 87.16C414.769 89.96 416.729 93.12 418.089 96.64C419.529 100.16 420.249 103.72 420.249 107.32C420.249 110.6 419.769 113.76 418.809 116.8C417.849 119.84 416.449 122.64 414.609 125.2C412.769 127.68 410.569 129.84 408.009 131.68L426.009 163H400.329L385.329 136.84H375.849V163H352.449ZM375.849 116.44H390.609C391.569 116.44 392.489 116.08 393.369 115.36C394.249 114.64 394.969 113.6 395.529 112.24C396.169 110.88 396.489 109.24 396.489 107.32C396.489 105.32 396.129 103.68 395.409 102.4C394.769 101.04 393.929 100 392.889 99.28C391.929 98.56 390.969 98.2 390.009 98.2H375.849V116.44ZM445.425 163V77.8H468.825V163H445.425ZM561.871 98.2H537.391V163H513.991V98.2H489.391V77.8H561.871V98.2ZM643.114 142.6V163H582.394V77.8H642.034V98.2H605.794V110.2H636.754V129.16H605.794V142.6H643.114ZM670.076 131.92C670.076 129.6 670.236 127.4 670.556 125.32C670.956 123.24 671.836 121.28 673.196 119.44C674.556 117.52 676.676 115.8 679.556 114.28C680.436 113.8 681.676 113.16 683.276 112.36C684.956 111.56 686.636 110.6 688.316 109.48C689.996 108.36 691.396 107.12 692.516 105.76C693.716 104.32 694.316 102.76 694.316 101.08C694.316 99.88 693.956 98.84 693.236 97.96C692.596 97 691.716 96.28 690.596 95.8C689.556 95.32 688.396 95.08 687.116 95.08C685.196 95.08 683.596 95.56 682.316 96.52C681.116 97.4 680.116 98.44 679.316 99.64C678.596 100.76 677.916 101.72 677.276 102.52L662.756 92.2C664.116 88.92 666.036 86.16 668.516 83.92C670.996 81.6 673.876 79.84 677.156 78.64C680.516 77.36 684.116 76.72 687.956 76.72C690.996 76.72 694.036 77.16 697.076 78.04C700.196 78.92 703.036 80.32 705.596 82.24C708.156 84.16 710.196 86.68 711.716 89.8C713.316 92.92 714.116 96.72 714.116 101.2C714.116 103.12 713.956 104.96 713.636 106.72C713.316 108.48 712.756 110.16 711.956 111.76C711.236 113.28 710.236 114.76 708.956 116.2C707.756 117.56 706.276 118.84 704.516 120.04C702.196 121.64 699.796 123 697.316 124.12C694.916 125.24 692.876 126.4 691.196 127.6C689.516 128.72 688.676 130.16 688.676 131.92H670.076ZM670.436 163V143.32H689.036V163H670.436Z" fill="white"/>
<path d="M82.1465 0.459997V-1.54H79.2993L80.2651 1.13845L82.1465 0.459997ZM91.2066 0.459997L93.1081 -0.15988L92.6582 -1.54H91.2066V0.459997ZM95.6465 14.08L93.745 14.6999L95.6465 20.5329L97.5481 14.6999L95.6465 14.08ZM100.087 0.459997V-1.54H98.6349L98.185 -0.15988L100.087 0.459997ZM109.207 0.459997L111.084 1.14851L112.07 -1.54H109.207V0.459997ZM101.947 20.26L100.069 19.5715L99.8114 20.2734L100.078 20.972L101.947 20.26ZM106.267 31.6L104.398 32.312L106.367 37.4819L108.159 32.2477L106.267 31.6ZM116.947 0.399998V-1.6H115.517L115.054 -0.24772L116.947 0.399998ZM127.687 0.399998L129.55 1.12692L130.614 -1.6H127.687V0.399998ZM111.067 43V45H112.433L112.93 43.7269L111.067 43ZM102.547 43L100.698 43.7645L101.21 45H102.547V43ZM95.6465 26.32L97.4947 25.5555L95.6385 21.0684L93.7961 25.5612L95.6465 26.32ZM88.8065 43V45H90.148L90.657 43.7588L88.8065 43ZM80.2265 43L78.3624 43.7246L78.8582 45H80.2265V43ZM63.6665 0.399998V-1.6H60.7433L61.8024 1.12464L63.6665 0.399998ZM74.3466 0.399998L76.2376 -0.250975L75.7733 -1.6H74.3466V0.399998ZM85.0865 31.6L83.1954 32.251L85.0177 37.5445L86.9621 32.2946L85.0865 31.6ZM89.2865 20.26L91.162 20.9546L91.4159 20.2692L91.168 19.5816L89.2865 20.26ZM82.1465 2.46H91.2066V-1.54H82.1465V2.46ZM89.305 1.07987L93.745 14.6999L97.5481 13.4601L93.1081 -0.15988L89.305 1.07987ZM97.5481 14.6999L101.988 1.07987L98.185 -0.15988L93.745 13.4601L97.5481 14.6999ZM100.087 2.46H109.207V-1.54H100.087V2.46ZM107.329 -0.228512L100.069 19.5715L103.824 20.9485L111.084 1.14851L107.329 -0.228512ZM100.078 20.972L104.398 32.312L108.136 30.888L103.816 19.548L100.078 20.972ZM108.159 32.2477L118.839 1.04772L115.054 -0.24772L104.374 30.9523L108.159 32.2477ZM116.947 2.4H127.687V-1.6H116.947V2.4ZM125.823 -0.326921L109.203 42.2731L112.93 43.7269L129.55 1.12692L125.823 -0.326921ZM111.067 41H102.547V45H111.067V41ZM104.395 42.2355L97.4947 25.5555L93.7984 27.0845L100.698 43.7645L104.395 42.2355ZM93.7961 25.5612L86.9561 42.2412L90.657 43.7588L97.497 27.0788L93.7961 25.5612ZM88.8065 41H80.2265V45H88.8065V41ZM82.0907 42.2754L65.5307 -0.324641L61.8024 1.12464L78.3624 43.7246L82.0907 42.2754ZM63.6665 2.4H74.3466V-1.6H63.6665V2.4ZM72.4555 1.05097L83.1954 32.251L86.9776 30.949L76.2376 -0.250975L72.4555 1.05097ZM86.9621 32.2946L91.162 20.9546L87.4111 19.5654L83.2111 30.9054L86.9621 32.2946ZM91.168 19.5816L84.028 -0.218451L80.2651 1.13845L87.4051 20.9384L91.168 19.5816ZM178.248 0.399998H180.248V-1.6H178.248V0.399998ZM178.248 43V45H180.248V43H178.248ZM168.408 43H166.408V45H168.408V43ZM168.408 25.54H170.408V23.54H168.408V25.54ZM151.428 25.54V23.54H149.428V25.54H151.428ZM151.428 43V45H153.428V43H151.428ZM141.588 43H139.588V45H141.588V43ZM141.588 0.399998V-1.6H139.588V0.399998H141.588ZM151.428 0.399998H153.428V-1.6H151.428V0.399998ZM151.428 16.9H149.428V18.9H151.428V16.9ZM168.408 16.9V18.9H170.408V16.9H168.408ZM168.408 0.399998V-1.6H166.408V0.399998H168.408ZM176.248 0.399998V43H180.248V0.399998H176.248ZM178.248 41H168.408V45H178.248V41ZM170.408 43V25.54H166.408V43H170.408ZM168.408 23.54H151.428V27.54H168.408V23.54ZM149.428 25.54V43H153.428V25.54H149.428ZM151.428 41H141.588V45H151.428V41ZM143.588 43V0.399998H139.588V43H143.588ZM141.588 2.4H151.428V-1.6H141.588V2.4ZM149.428 0.399998V16.9H153.428V0.399998H149.428ZM151.428 18.9H168.408V14.9H151.428V18.9ZM170.408 16.9V0.399998H166.408V16.9H170.408ZM168.408 2.4H178.248V-1.6H168.408V2.4ZM196.612 43H194.612V45H196.612V43ZM196.612 0.399998V-1.6H194.612V0.399998H196.612ZM206.452 0.399998H208.452V-1.6H206.452V0.399998ZM206.452 43V45H208.452V43H206.452ZM198.612 43V0.399998H194.612V43H198.612ZM196.612 2.4H206.452V-1.6H196.612V2.4ZM204.452 0.399998V43H208.452V0.399998H204.452ZM206.452 41H196.612V45H206.452V41ZM223.78 13.72L225.645 14.442L225.649 14.432L223.78 13.72ZM227.98 6.88L226.495 5.54046V5.54046L227.98 6.88ZM234.7 2.02L235.528 3.84073L235.539 3.83557L235.551 3.83026L234.7 2.02ZM254.08 2.74L253.065 4.46329L253.075 4.46925L254.08 2.74ZM260.68 9.46L261.825 11.0997L263.267 10.0932L262.453 8.53487L260.68 9.46ZM253.12 14.74L251.277 15.5161L252.237 17.7963L254.265 16.3797L253.12 14.74ZM250.54 11.2L249.284 12.7559L249.298 12.7674L249.312 12.7787L250.54 11.2ZM247.06 9.46L246.503 11.3807L246.539 11.3912L246.575 11.4003L247.06 9.46ZM238.54 10.06L239.455 11.8386L239.475 11.8284L239.494 11.8177L238.54 10.06ZM235.06 13L236.667 14.1917L235.06 13ZM233.02 17.14L234.941 17.6961V17.6961L233.02 17.14ZM233.14 26.56L235.038 25.9275H235.038L233.14 26.56ZM235.36 30.7L233.799 31.9494L233.811 31.965L233.824 31.9804L235.36 30.7ZM238.96 33.58L238.046 35.3586L238.066 35.369L238.086 35.379L238.96 33.58ZM247.24 34L247.854 35.9034L247.24 34ZM250.66 32.14L251.917 33.6959L251.924 33.6905L250.66 32.14ZM253.12 28.72L254.136 26.9971L252.129 25.8137L251.263 27.9772L253.12 28.72ZM261.16 33.46L263.015 34.2089L263.66 32.6119L262.176 31.7371L261.16 33.46ZM257.02 38.8L255.799 37.216L257.02 38.8ZM250.48 42.22L251.084 44.1267L251.094 44.1236L251.103 44.1205L250.48 42.22ZM234.82 41.5L233.926 43.2889L233.943 43.2972L233.959 43.3052L234.82 41.5ZM228.16 36.46L226.65 37.7709L226.663 37.7861L226.677 37.8011L228.16 36.46ZM223.84 29.38L221.97 30.0885L221.977 30.1057L221.983 30.1228L223.84 29.38ZM224.34 21.34C224.34 18.9926 224.772 16.6971 225.645 14.442L221.915 12.998C220.868 15.7029 220.34 18.4874 220.34 21.34H224.34ZM225.649 14.432C226.52 12.1475 227.788 10.0794 229.465 8.21953L226.495 5.54046C224.493 7.7606 222.961 10.2525 221.911 13.008L225.649 14.432ZM229.465 8.21953C231.111 6.39458 233.124 4.93358 235.528 3.84073L233.873 0.199265C230.997 1.50642 228.529 3.28541 226.495 5.54046L229.465 8.21953ZM235.551 3.83026C237.887 2.73287 240.59 2.16 243.7 2.16V-1.84C240.091 -1.84 236.794 -1.17288 233.85 0.20974L235.551 3.83026ZM243.7 2.16C247.408 2.16 250.504 2.95476 253.065 4.46326L255.095 1.01674C251.816 -0.914763 247.992 -1.84 243.7 -1.84V2.16ZM253.075 4.46925C255.742 6.01887 257.659 7.99345 258.907 10.3851L262.453 8.53487C260.821 5.40655 258.338 2.90113 255.085 1.01075L253.075 4.46925ZM259.535 7.82031L251.975 13.1003L254.265 16.3797L261.825 11.0997L259.535 7.82031ZM254.964 13.9639C254.218 12.1927 253.169 10.7109 251.768 9.62129L249.312 12.7787C250.071 13.3691 250.743 14.2473 251.277 15.5161L254.964 13.9639ZM251.797 9.64412C250.534 8.62391 249.111 7.91119 247.545 7.51971L246.575 11.4003C247.569 11.6488 248.467 12.0961 249.284 12.7559L251.797 9.64412ZM247.618 7.53931C246.217 7.13257 244.829 6.92 243.46 6.92V10.92C244.412 10.92 245.424 11.0674 246.503 11.3807L247.618 7.53931ZM243.46 6.92C241.307 6.92 239.328 7.35688 237.586 8.30229L239.494 11.8177C240.553 11.2431 241.853 10.92 243.46 10.92V6.92ZM237.626 8.28142C235.959 9.13867 234.56 10.3174 233.454 11.8083L236.667 14.1917C237.4 13.2026 238.322 12.4213 239.455 11.8386L237.626 8.28142ZM233.454 11.8083C232.389 13.2445 231.604 14.8407 231.099 16.5839L234.941 17.6961C235.317 16.3993 235.892 15.2355 236.667 14.1917L233.454 11.8083ZM231.099 16.5839C230.609 18.2772 230.36 19.9842 230.36 21.7H234.36C234.36 20.3758 234.552 19.0428 234.941 17.6961L231.099 16.5839ZM230.36 21.7C230.36 23.5902 230.653 25.4241 231.243 27.1925L235.038 25.9275C234.587 24.5759 234.36 23.1698 234.36 21.7H230.36ZM231.243 27.1925C231.832 28.9605 232.681 30.5526 233.799 31.9494L236.922 29.4506C236.119 28.4474 235.488 27.2795 235.038 25.9275L231.243 27.1925ZM233.824 31.9804C234.997 33.3881 236.409 34.5169 238.046 35.3586L239.875 31.8014C238.712 31.2031 237.724 30.4119 236.897 29.4196L233.824 31.9804ZM238.086 35.379C239.78 36.2016 241.622 36.6 243.58 36.6V32.6C242.179 32.6 240.941 32.3184 239.834 31.781L238.086 35.379ZM243.58 36.6C245.006 36.6 246.433 36.3619 247.854 35.9034L246.626 32.0966C245.568 32.4381 244.555 32.6 243.58 32.6V36.6ZM247.854 35.9034C249.334 35.426 250.691 34.6861 251.917 33.6959L249.404 30.5841C248.55 31.2739 247.626 31.774 246.626 32.0966L247.854 35.9034ZM251.924 33.6905C253.288 32.5785 254.302 31.1513 254.977 29.4628L251.263 27.9772C250.819 29.0887 250.192 29.9415 249.397 30.5895L251.924 33.6905ZM252.105 30.4429L260.145 35.1829L262.176 31.7371L254.136 26.9971L252.105 30.4429ZM259.306 32.7111C258.61 34.4349 257.461 35.935 255.799 37.216L258.241 40.384C260.419 38.705 262.031 36.6451 263.015 34.2089L259.306 32.7111ZM255.799 37.216C254.07 38.5493 252.094 39.5861 249.857 40.3195L251.103 44.1205C253.746 43.2539 256.131 42.0107 258.241 40.384L255.799 37.216ZM249.877 40.3133C247.659 41.0156 245.482 41.36 243.34 41.36V45.36C245.918 45.36 248.502 44.9444 251.084 44.1267L249.877 40.3133ZM243.34 41.36C240.537 41.36 237.994 40.7978 235.681 39.6948L233.959 43.3052C236.847 44.6822 239.983 45.36 243.34 45.36V41.36ZM235.715 39.7111C233.373 38.5401 231.354 37.0104 229.644 35.1189L226.677 37.8011C228.727 40.0696 231.148 41.8999 233.926 43.2889L235.715 39.7111ZM229.671 35.1491C227.977 33.1973 226.654 31.0293 225.697 28.6372L221.983 30.1228C223.107 32.9307 224.664 35.4827 226.65 37.7709L229.671 35.1491ZM225.711 28.6715C224.793 26.2492 224.34 23.8088 224.34 21.34H220.34C220.34 24.3112 220.888 27.2308 221.97 30.0885L225.711 28.6715ZM312.969 0.399998H314.969V-1.6H312.969V0.399998ZM312.969 43V45H314.969V43H312.969ZM303.129 43H301.129V45H303.129V43ZM303.129 25.54H305.129V23.54H303.129V25.54ZM286.149 25.54V23.54H284.149V25.54H286.149ZM286.149 43V45H288.149V43H286.149ZM276.309 43H274.309V45H276.309V43ZM276.309 0.399998V-1.6H274.309V0.399998H276.309ZM286.149 0.399998H288.149V-1.6H286.149V0.399998ZM286.149 16.9H284.149V18.9H286.149V16.9ZM303.129 16.9V18.9H305.129V16.9H303.129ZM303.129 0.399998V-1.6H301.129V0.399998H303.129ZM310.969 0.399998V43H314.969V0.399998H310.969ZM312.969 41H303.129V45H312.969V41ZM305.129 43V25.54H301.129V43H305.129ZM303.129 23.54H286.149V27.54H303.129V23.54ZM284.149 25.54V43H288.149V25.54H284.149ZM286.149 41H276.309V45H286.149V41ZM278.309 43V0.399998H274.309V43H278.309ZM276.309 2.4H286.149V-1.6H276.309V2.4ZM284.149 0.399998V16.9H288.149V0.399998H284.149ZM286.149 18.9H303.129V14.9H286.149V18.9ZM305.129 16.9V0.399998H301.129V16.9H305.129ZM303.129 2.4H312.969V-1.6H303.129V2.4ZM355.537 43H353.537V45H355.537V43ZM355.537 0.399998V-1.6H353.537V0.399998H355.537ZM365.377 0.399998H367.377V-1.6H365.377V0.399998ZM365.377 43V45H367.377V43H365.377ZM357.537 43V0.399998H353.537V43H357.537ZM355.537 2.4H365.377V-1.6H355.537V2.4ZM363.377 0.399998V43H367.377V0.399998H363.377ZM365.377 41H355.537V45H365.377V41ZM409.285 12.88L407.57 13.909L409.394 16.9488L411.053 13.8158L409.285 12.88ZM408.025 11.98L406.982 13.6866L407.018 13.7082L407.054 13.7283L408.025 11.98ZM405.325 10.6L406.138 8.77238L405.325 10.6ZM394.045 9.7L395.085 11.4084L395.112 11.3922L395.138 11.3752L394.045 9.7ZM393.685 14.62L392.414 16.1639L392.435 16.1816L392.457 16.1987L393.685 14.62ZM396.745 16.12L396.113 18.0174L396.139 18.0261L396.165 18.034L396.745 16.12ZM401.605 17.56L401.045 19.48L401.069 19.487L401.094 19.4934L401.605 17.56ZM408.685 20.2L407.763 21.9744L407.777 21.9818L407.791 21.9889L408.685 20.2ZM413.245 24.1L411.568 25.19L411.578 25.2045L411.588 25.2189L413.245 24.1ZM413.545 36.58L415.308 37.5256L415.312 37.5168L415.317 37.508L413.545 36.58ZM409.945 40.6L411.065 42.2572L411.075 42.2506L409.945 40.6ZM404.845 42.82L405.292 44.7695L405.311 44.7651L405.33 44.7603L404.845 42.82ZM392.485 42.88L392.086 44.8398L392.107 44.844L392.128 44.8477L392.485 42.88ZM386.245 41.08L385.503 42.937L385.519 42.9434L385.535 42.9496L386.245 41.08ZM380.725 38.2L378.939 37.3006L378.143 38.882L379.616 39.8641L380.725 38.2ZM385.045 29.62L386.607 28.3706L384.66 25.9373L383.259 28.7206L385.045 29.62ZM386.605 30.76L385.532 32.4473L385.559 32.4651L385.588 32.4819L386.605 30.76ZM389.845 32.44L388.996 34.2509L389.03 34.2667L389.064 34.2812L389.845 32.44ZM394.225 33.94L394.756 32.0116L394.225 33.94ZM402.985 33.76L401.912 32.0727L401.894 32.0841L401.876 32.0959L402.985 33.76ZM402.925 28.9L401.799 30.5525L401.816 30.564L401.833 30.5752L402.925 28.9ZM399.265 27.28L398.663 29.1872L398.67 29.1894L398.677 29.1916L399.265 27.28ZM393.985 25.66L393.397 27.5716L393.411 27.5757L393.985 25.66ZM387.505 22.96L386.482 24.6786L386.491 24.6838L386.5 24.689L387.505 22.96ZM383.725 19.3L381.977 20.2713L381.987 20.2896L381.998 20.3077L383.725 19.3ZM384.625 6.34L382.981 5.20157L382.976 5.20831L384.625 6.34ZM390.385 1.66L391.181 3.49511L391.193 3.48957L391.206 3.48384L390.385 1.66ZM404.005 0.759997L403.5 2.69526L403.511 2.69783L404.005 0.759997ZM409.225 2.56L408.405 4.38384L408.413 4.3876L408.421 4.39129L409.225 2.56ZM413.605 4.72L415.373 5.65578L416.285 3.93269L414.586 2.97685L413.605 4.72ZM411 11.851C410.71 11.3674 410.27 11.0397 410.043 10.8775C409.746 10.6658 409.389 10.4495 408.997 10.2317L407.054 13.7283C407.382 13.9105 407.594 14.0442 407.718 14.1325C407.779 14.1762 407.794 14.1914 407.78 14.1788C407.772 14.1714 407.748 14.1484 407.715 14.1102C407.683 14.0734 407.629 14.0061 407.57 13.909L411 11.851ZM409.068 10.2734C408.251 9.77421 407.268 9.27487 406.138 8.77238L404.513 12.4276C405.542 12.8851 406.359 13.3058 406.982 13.6866L409.068 10.2734ZM406.138 8.77238C404.96 8.24888 403.688 7.79754 402.327 7.41469L401.244 11.2653C402.443 11.6024 403.531 11.9911 404.513 12.4276L406.138 8.77238ZM402.327 7.41469C400.877 7.00706 399.415 6.8 397.945 6.8V10.8C399.035 10.8 400.133 10.9529 401.244 11.2653L402.327 7.41469ZM397.945 6.8C396.068 6.8 394.327 7.12832 392.953 8.02478L395.138 11.3752C395.603 11.0717 396.462 10.8 397.945 10.8V6.8ZM393.005 7.9916C391.412 8.96146 390.665 10.5373 390.665 12.34H394.665C394.665 11.7427 394.839 11.5585 395.085 11.4084L393.005 7.9916ZM390.665 12.34C390.665 13.8366 391.227 15.1868 392.414 16.1639L394.957 13.0761C394.783 12.9332 394.665 12.7634 394.665 12.34H390.665ZM392.457 16.1987C393.425 16.9509 394.679 17.5393 396.113 18.0174L397.378 14.2226C396.172 13.8207 395.386 13.4091 394.913 13.0413L392.457 16.1987ZM396.165 18.034C397.494 18.4367 399.121 18.9188 401.045 19.48L402.165 15.64C400.249 15.0812 398.636 14.6033 397.325 14.2059L396.165 18.034ZM401.094 19.4934C403.705 20.1846 405.921 21.0167 407.763 21.9744L409.608 18.4256C407.45 17.3033 404.946 16.3754 402.117 15.6266L401.094 19.4934ZM407.791 21.9889C409.528 22.8573 410.753 23.9362 411.568 25.19L414.922 23.01C413.657 21.0638 411.843 19.5427 409.58 18.4111L407.791 21.9889ZM411.588 25.2189C412.376 26.3873 412.865 28.0762 412.865 30.46H416.865C416.865 27.5638 416.274 25.0127 414.903 22.9811L411.588 25.2189ZM412.865 30.46C412.865 32.6205 412.469 34.3243 411.774 35.652L415.317 37.508C416.382 35.4757 416.865 33.0995 416.865 30.46H412.865ZM411.783 35.6344C411.053 36.9952 410.069 38.0923 408.816 38.9494L411.075 42.2506C412.862 41.0277 414.278 39.4448 415.308 37.5256L411.783 35.6344ZM408.826 38.9428C407.559 39.7988 406.078 40.4502 404.36 40.8797L405.33 44.7603C407.452 44.2298 409.372 43.4012 411.065 42.2572L408.826 38.9428ZM404.399 40.8705C402.63 41.2758 400.8 41.48 398.905 41.48V45.48C401.09 45.48 403.22 45.2442 405.292 44.7695L404.399 40.8705ZM398.905 41.48C396.954 41.48 394.934 41.2924 392.843 40.9123L392.128 44.8477C394.437 45.2676 396.697 45.48 398.905 45.48V41.48ZM392.884 40.9202C390.827 40.5012 388.852 39.9309 386.956 39.2104L385.535 42.9496C387.639 43.7491 389.823 44.3788 392.086 44.8398L392.884 40.9202ZM386.988 39.223C385.108 38.4711 383.392 37.5742 381.835 36.5359L379.616 39.8641C381.418 41.0658 383.382 42.0889 385.503 42.937L386.988 39.223ZM382.512 39.0994L386.832 30.5194L383.259 28.7206L378.939 37.3006L382.512 39.0994ZM383.484 30.8694C383.75 31.202 384.124 31.486 384.375 31.6698C384.684 31.8957 385.074 32.1565 385.532 32.4473L387.679 29.0727C387.256 28.8035 386.946 28.5943 386.735 28.4402C386.63 28.3631 386.565 28.3114 386.531 28.2821C386.482 28.2408 386.531 28.275 386.607 28.3706L383.484 30.8694ZM385.588 32.4819C386.539 33.0438 387.679 33.6333 388.996 34.2509L390.694 30.6291C389.452 30.0467 388.432 29.5162 387.623 29.0381L385.588 32.4819ZM389.064 34.2812C390.477 34.8806 392.022 35.4085 393.695 35.8684L394.756 32.0116C393.228 31.5915 391.853 31.1194 390.626 30.5988L389.064 34.2812ZM393.695 35.8684C395.466 36.3554 397.264 36.6 399.085 36.6V32.6C397.627 32.6 396.185 32.4046 394.756 32.0116L393.695 35.8684ZM399.085 36.6C400.982 36.6 402.762 36.3124 404.095 35.4241L401.876 32.0959C401.528 32.3276 400.709 32.6 399.085 32.6V36.6ZM404.059 35.4473C405.486 34.5393 406.305 33.1386 406.305 31.42H402.305C402.305 31.7014 402.245 31.8607 401.912 32.0727L404.059 35.4473ZM406.305 31.42C406.305 29.6503 405.492 28.1864 404.018 27.2248L401.833 30.5752C402.198 30.8136 402.305 31.0297 402.305 31.42H406.305ZM404.052 27.2475C402.943 26.4915 401.514 25.8795 399.853 25.3684L398.677 29.1916C400.136 29.6405 401.147 30.1085 401.799 30.5525L404.052 27.2475ZM399.868 25.3728C398.336 24.8892 396.567 24.3463 394.56 23.7443L393.411 27.5757C395.404 28.1737 397.155 28.7108 398.663 29.1872L399.868 25.3728ZM394.573 23.7484C392.07 22.9781 390.061 22.1323 388.511 21.231L386.5 24.689C388.39 25.7877 390.701 26.7419 393.397 27.5716L394.573 23.7484ZM388.528 21.2414C387.089 20.3847 386.095 19.3925 385.453 18.2923L381.998 20.3077C383.036 22.0875 384.562 23.5353 386.482 24.6786L388.528 21.2414ZM385.474 18.3287C384.882 17.2642 384.525 15.8226 384.525 13.9H380.525C380.525 16.2974 380.968 18.4558 381.977 20.2713L385.474 18.3287ZM384.525 13.9C384.525 11.2169 385.148 9.11331 386.274 7.47169L382.976 5.20831C381.303 7.64669 380.525 10.5831 380.525 13.9H384.525ZM386.27 7.47842C387.49 5.71612 389.111 4.39198 391.181 3.49511L389.59 -0.175112C386.86 1.00802 384.641 2.80388 382.981 5.20158L386.27 7.47842ZM391.206 3.48384C393.328 2.52892 395.666 2.04 398.245 2.04V-1.96C395.145 -1.96 392.243 -1.36893 389.565 -0.163844L391.206 3.48384ZM398.245 2.04C400.084 2.04 401.834 2.2604 403.5 2.69523L404.51 -1.17524C402.497 -1.70041 400.407 -1.96 398.245 -1.96V2.04ZM403.511 2.69783C405.29 3.15226 406.92 3.71583 408.405 4.38384L410.046 0.736156C408.331 -0.0358339 406.48 -0.672266 404.5 -1.17784L403.511 2.69783ZM408.421 4.39129C410.014 5.09033 411.413 5.7815 412.625 6.46315L414.586 2.97685C413.238 2.2185 411.717 1.46966 410.029 0.728711L408.421 4.39129ZM411.838 3.78422L407.518 11.9442L411.053 13.8158L415.373 5.65578L411.838 3.78422ZM459.417 0.399998L461.215 -0.47606L460.667 -1.6H459.417V0.399998ZM468.597 19.24L466.799 20.1161L468.585 23.782L470.39 20.1253L468.597 19.24ZM477.897 0.399998V-1.6H476.654L476.103 -0.485279L477.897 0.399998ZM488.637 0.399998L490.396 1.35111L491.991 -1.6H488.637V0.399998ZM473.457 28.48L471.697 27.5289L471.457 27.974V28.48H473.457ZM473.457 43V45H475.457V43H473.457ZM463.677 43H461.677V45H463.677V43ZM463.677 28.36H465.677V27.8592L465.441 27.4174L463.677 28.36ZM448.737 0.399998V-1.6H445.4L446.973 1.34255L448.737 0.399998ZM457.619 1.27606L466.799 20.1161L470.395 18.3639L461.215 -0.47606L457.619 1.27606ZM470.39 20.1253L479.69 1.28527L476.103 -0.485279L466.803 18.3547L470.39 20.1253ZM477.897 2.4H488.637V-1.6H477.897V2.4ZM486.877 -0.551115L471.697 27.5289L475.216 29.4311L490.396 1.35111L486.877 -0.551115ZM471.457 28.48V43H475.457V28.48H471.457ZM473.457 41H463.677V45H473.457V41ZM465.677 43V28.36H461.677V43H465.677ZM465.441 27.4174L450.501 -0.542554L446.973 1.34255L461.913 29.3026L465.441 27.4174ZM448.737 2.4H459.417V-1.6H448.737V2.4ZM510.008 41.56L509.136 43.36L509.153 43.3681L509.17 43.3759L510.008 41.56ZM503.348 36.64L501.85 37.9651L501.863 37.9804L501.877 37.9954L503.348 36.64ZM499.088 29.68L497.221 30.398L497.225 30.4077L499.088 29.68ZM499.148 13.54L497.305 12.7626L497.3 12.7749L497.295 12.7872L499.148 13.54ZM503.588 6.7L502.132 5.32927L502.131 5.33018L503.588 6.7ZM510.368 1.9L509.553 0.0735337V0.0735343L510.368 1.9ZM527.468 2.02L526.596 3.81996L526.613 3.8281L526.63 3.83592L527.468 2.02ZM534.128 6.94L532.63 8.26515L532.637 8.27315L532.644 8.28108L534.128 6.94ZM538.448 13.96L536.581 14.678L536.585 14.6877L538.448 13.96ZM538.388 29.92L536.535 29.1672V29.1672L538.388 29.92ZM533.948 36.82L535.391 38.2051L535.398 38.1979L535.404 38.1907L533.948 36.82ZM527.168 41.62L527.993 43.4417L528.006 43.4359L527.168 41.62ZM508.328 26.56L506.416 27.1482L506.419 27.1552L506.421 27.1623L508.328 26.56ZM510.428 30.64L508.841 31.8569L508.853 31.8733L508.866 31.8894L510.428 30.64ZM523.688 33.52L524.603 35.2986L524.622 35.2884L524.642 35.2777L523.688 33.52ZM527.168 30.52L528.774 31.7117L527.168 30.52ZM529.208 26.38L527.296 25.7918L527.292 25.8078L527.287 25.8239L529.208 26.38ZM529.208 16.9L527.301 17.5023V17.5023L529.208 16.9ZM527.048 12.82L525.466 14.0443L525.476 14.0569L525.486 14.0694L527.048 12.82ZM523.508 9.94L522.634 11.739V11.739L523.508 9.94ZM513.848 10L512.933 8.22142L512.923 8.22686L512.912 8.23242L513.848 10ZM510.368 12.94L508.786 11.7156L508.781 11.7231L510.368 12.94ZM508.268 17.08L506.356 16.4918L506.352 16.5078L506.347 16.5239L508.268 17.08ZM518.708 41.36C515.763 41.36 513.154 40.8092 510.846 39.7441L509.17 43.3759C512.062 44.7108 515.253 45.36 518.708 45.36V41.36ZM510.88 39.76C508.54 38.6265 506.524 37.1355 504.819 35.2846L501.877 37.9954C503.932 40.2245 506.356 42.0135 509.136 43.36L510.88 39.76ZM504.846 35.3149C503.16 33.4091 501.864 31.2909 500.951 28.9523L497.225 30.4077C498.312 33.1891 499.856 35.7109 501.85 37.9651L504.846 35.3149ZM500.955 28.962C500.042 26.589 499.588 24.1522 499.588 21.64H495.588C495.588 24.6478 496.134 27.571 497.221 30.398L500.955 28.962ZM499.588 21.64C499.588 19.0507 500.061 16.607 501.001 14.2928L497.295 12.7872C496.155 15.593 495.588 18.5493 495.588 21.64H499.588ZM500.991 14.3174C501.98 11.9735 503.33 9.89465 505.045 8.06982L502.131 5.33018C500.086 7.50535 498.476 9.98654 497.305 12.7626L500.991 14.3174ZM505.044 8.07073C506.78 6.22682 508.821 4.78033 511.183 3.72646L509.553 0.0735343C506.715 1.33966 504.236 3.09318 502.132 5.32927L505.044 8.07073ZM511.183 3.72646C513.506 2.68998 516.065 2.16 518.888 2.16V-1.84C515.55 -1.84 512.43 -1.20999 509.553 0.0735337L511.183 3.72646ZM518.888 2.16C521.78 2.16 524.337 2.72561 526.596 3.81996L528.34 0.220036C525.479 -1.16561 522.316 -1.84 518.888 -1.84V2.16ZM526.63 3.83592C528.986 4.92351 530.979 6.39921 532.63 8.26515L535.626 5.61485C533.597 3.32079 531.15 1.51648 528.306 0.204079L526.63 3.83592ZM532.644 8.28108C534.36 10.1799 535.67 12.309 536.581 14.678L540.315 13.242C539.226 10.411 537.655 7.86011 535.612 5.59892L532.644 8.28108ZM536.585 14.6877C537.497 17.0218 537.948 19.3954 537.948 21.82H541.948C541.948 18.8846 541.399 16.0182 540.311 13.2323L536.585 14.6877ZM537.948 21.82C537.948 24.4093 537.475 26.853 536.535 29.1672L540.241 30.6728C541.381 27.867 541.948 24.9107 541.948 21.82H537.948ZM536.535 29.1672C535.589 31.4953 534.245 33.5865 532.492 35.4493L535.404 38.1907C537.491 35.9735 539.107 33.4647 540.241 30.6728L536.535 29.1672ZM532.505 35.4349C530.764 37.2489 528.711 38.7052 526.33 39.8041L528.006 43.4359C530.825 42.1348 533.292 40.3911 535.391 38.2051L532.505 35.4349ZM526.342 39.7983C524.066 40.8299 521.531 41.36 518.708 41.36V45.36C522.045 45.36 525.15 44.7301 527.993 43.4417L526.342 39.7983ZM505.608 21.76C505.608 23.5984 505.878 25.3967 506.416 27.1482L510.24 25.9718C509.818 24.6033 509.608 23.2016 509.608 21.76H505.608ZM506.421 27.1623C506.967 28.8921 507.772 30.4623 508.841 31.8569L512.015 29.4231C511.244 28.4177 510.649 27.2679 510.235 25.9577L506.421 27.1623ZM508.866 31.8894C510.007 33.3148 511.409 34.453 513.053 35.2986L514.883 31.7414C513.727 31.147 512.769 30.3652 511.99 29.3906L508.866 31.8894ZM513.053 35.2986C514.774 36.1837 516.696 36.6 518.768 36.6V32.6C517.24 32.6 515.962 32.2963 514.883 31.7414L513.053 35.2986ZM518.768 36.6C520.905 36.6 522.87 36.1898 524.603 35.2986L522.773 31.7414C521.706 32.2902 520.391 32.6 518.768 32.6V36.6ZM524.642 35.2777C526.29 34.3833 527.675 33.1931 528.774 31.7117L525.562 29.3283C524.821 30.3269 523.886 31.1367 522.734 31.7623L524.642 35.2777ZM528.774 31.7117C529.84 30.2755 530.625 28.6793 531.129 26.9361L527.287 25.8239C526.911 27.1207 526.336 28.2845 525.562 29.3283L528.774 31.7117ZM531.12 26.9682C531.657 25.2215 531.928 23.4434 531.928 21.64H527.928C527.928 23.0366 527.719 24.4185 527.296 25.7918L531.12 26.9682ZM531.928 21.64C531.928 19.8016 531.658 18.0182 531.115 16.2977L527.301 17.5023C527.717 18.8218 527.928 20.1984 527.928 21.64H531.928ZM531.115 16.2977C530.564 14.5515 529.729 12.9703 528.61 11.5706L525.486 14.0694C526.286 15.0697 526.892 16.2085 527.301 17.5023L531.115 16.2977ZM528.629 11.5957C527.482 10.1141 526.061 8.95656 524.382 8.14098L522.634 11.739C523.755 12.2834 524.694 13.0459 525.466 14.0443L528.629 11.5957ZM524.382 8.14098C522.676 7.31236 520.791 6.92 518.768 6.92V10.92C520.265 10.92 521.54 11.2076 522.634 11.739L524.382 8.14098ZM518.768 6.92C516.631 6.92 514.666 7.33022 512.933 8.22142L514.763 11.7786C515.83 11.2298 517.145 10.92 518.768 10.92V6.92ZM512.912 8.23242C511.296 9.08811 509.917 10.2551 508.786 11.7157L511.949 14.1643C512.739 13.1449 513.68 12.3519 514.784 11.7676L512.912 8.23242ZM508.781 11.7231C507.705 13.1262 506.901 14.7228 506.356 16.4918L510.18 17.6682C510.595 16.3172 511.191 15.1538 511.955 14.1569L508.781 11.7231ZM506.347 16.5239C505.854 18.2266 505.608 19.974 505.608 21.76H509.608C509.608 20.346 509.802 18.9734 510.189 17.6361L506.347 16.5239ZM565.434 41.68L564.564 43.4807L564.576 43.4866L564.588 43.4924L565.434 41.68ZM559.554 37L557.946 38.1897L557.96 38.2078L557.973 38.2256L559.554 37ZM556.254 30.22L554.321 30.7334L554.326 30.7515L554.331 30.7694L556.254 30.22ZM555.234 0.399998V-1.6H553.234V0.399998H555.234ZM565.074 0.399998H567.074V-1.6H565.074V0.399998ZM565.554 26.86L563.597 27.272L563.599 27.2827L565.554 26.86ZM569.874 33.58L568.836 35.2896L568.849 35.2976L568.862 35.3054L569.874 33.58ZM578.454 33.58L579.465 35.3054L579.487 35.2926L579.509 35.2793L578.454 33.58ZM581.214 30.76L582.939 31.7714L582.947 31.7588L582.954 31.746L581.214 30.76ZM582.714 26.74L580.759 26.3173L582.714 26.74ZM583.194 0.399998V-1.6H581.194V0.399998H583.194ZM593.034 0.399998H595.034V-1.6H593.034V0.399998ZM591.894 30.46L589.977 29.8908L589.973 29.9046L589.969 29.9185L591.894 30.46ZM588.534 37.24L590.102 38.4814L590.108 38.4736L590.114 38.4656L588.534 37.24ZM582.654 41.74L581.833 39.9161L581.822 39.9214L582.654 41.74ZM574.134 41.36C570.946 41.36 568.351 40.8342 566.28 39.8676L564.588 43.4924C567.317 44.7658 570.522 45.36 574.134 45.36V41.36ZM566.304 39.8793C564.161 38.8434 562.451 37.4725 561.134 35.7744L557.973 38.2256C559.697 40.4475 561.907 42.1966 564.564 43.4807L566.304 39.8793ZM561.162 35.8103C559.832 34.0132 558.835 31.9724 558.177 29.6706L554.331 30.7694C555.113 33.5076 556.316 35.9868 557.946 38.1897L561.162 35.8103ZM558.187 29.7066C557.554 27.3234 557.234 24.8165 557.234 22.18H553.234C553.234 25.1434 553.594 27.9966 554.321 30.7334L558.187 29.7066ZM557.234 22.18V0.399998H553.234V22.18H557.234ZM555.234 2.4H565.074V-1.6H555.234V2.4ZM563.074 0.399998V22.18H567.074V0.399998H563.074ZM563.074 22.18C563.074 23.9143 563.247 25.6125 563.597 27.272L567.511 26.448C567.22 25.0675 567.074 23.6457 567.074 22.18H563.074ZM563.599 27.2827C563.962 28.9622 564.561 30.5002 565.415 31.8747L568.813 29.7653C568.226 28.8198 567.786 27.7178 567.509 26.4373L563.599 27.2827ZM565.415 31.8747C566.293 33.2904 567.436 34.4394 568.836 35.2896L570.912 31.8704C570.072 31.3606 569.375 30.6696 568.813 29.7653L565.415 31.8747ZM568.862 35.3054C570.397 36.2049 572.186 36.6 574.134 36.6V32.6C572.722 32.6 571.671 32.3151 570.885 31.8546L568.862 35.3054ZM574.134 36.6C576.112 36.6 577.924 36.2088 579.465 35.3054L577.442 31.8546C576.664 32.3112 575.596 32.6 574.134 32.6V36.6ZM579.509 35.2793C580.94 34.3906 582.092 33.2163 582.939 31.7714L579.489 29.7486C578.975 30.6237 578.287 31.3294 577.399 31.8807L579.509 35.2793ZM582.954 31.746C583.743 30.3539 584.31 28.821 584.669 27.1627L580.759 26.3173C580.478 27.619 580.045 28.7661 579.474 29.774L582.954 31.746ZM584.669 27.1627C585.02 25.5396 585.194 23.8778 585.194 22.18H581.194C581.194 23.6022 581.048 24.9804 580.759 26.3173L584.669 27.1627ZM585.194 22.18V0.399998H581.194V22.18H585.194ZM583.194 2.4H593.034V-1.6H583.194V2.4ZM591.034 0.399998V22.18H595.034V0.399998H591.034ZM591.034 22.18C591.034 24.9679 590.676 27.5344 589.977 29.8908L593.811 31.0292C594.632 28.2656 595.034 25.3121 595.034 22.18H591.034ZM589.969 29.9185C589.313 32.2484 588.304 34.2724 586.953 36.0144L590.114 38.4656C591.803 36.2876 593.034 33.7915 593.819 31.0015L589.969 29.9185ZM586.966 35.9986C585.659 37.6488 583.963 38.9576 581.833 39.9162L583.475 43.5638C586.144 42.3624 588.368 40.6712 590.102 38.4814L586.966 35.9986ZM581.822 39.9214C579.785 40.8534 577.244 41.36 574.134 41.36V45.36C577.664 45.36 580.803 44.7866 583.486 43.5586L581.822 39.9214ZM610.858 43H608.858V45H610.858V43ZM610.858 0.399998V-1.6H608.858V0.399998H610.858ZM635.578 1.66L634.684 3.44885L634.709 3.46151L634.735 3.47344L635.578 1.66ZM640.018 4.96L638.521 6.28607L638.531 6.29686L638.54 6.30751L640.018 4.96ZM642.898 9.58L641.038 10.3153L641.046 10.3339L641.053 10.3523L642.898 9.58ZM643.138 19.84L645.021 20.5157L645.023 20.5082L645.026 20.5007L643.138 19.84ZM640.738 24.1L642.271 25.3852L642.281 25.3733L642.29 25.3612L640.738 24.1ZM637.018 27.16L636.047 25.4117L634.251 26.4092L635.296 28.1775L637.018 27.16ZM646.378 43V45H649.883L648.1 41.9825L646.378 43ZM635.518 43L633.799 44.0213L634.38 45H635.518V43ZM627.358 29.26L629.078 28.2387L628.496 27.26H627.358V29.26ZM620.698 29.26V27.26H618.698V29.26H620.698ZM620.698 43V45H622.698V43H620.698ZM620.698 20.68H618.698V22.68H620.698V20.68ZM631.798 19.96L633.048 21.5217L633.053 21.517L633.059 21.5122L631.798 19.96ZM633.358 17.86L631.537 17.0324L633.358 17.86ZM633.238 11.8L631.449 12.6944L631.474 12.7441L631.502 12.7923L633.238 11.8ZM631.558 9.76L630.405 11.3939V11.3939L631.558 9.76ZM620.698 9.04V7.04H618.698V9.04H620.698ZM612.858 43V0.399998H608.858V43H612.858ZM610.858 2.4H630.058V-1.6H610.858V2.4ZM630.058 2.4C631.768 2.4 633.299 2.75664 634.684 3.44885L636.473 -0.128855C634.497 -1.11665 632.348 -1.6 630.058 -1.6V2.4ZM634.735 3.47344C636.209 4.1593 637.466 5.0947 638.521 6.28607L641.515 3.63393C640.091 2.0253 638.387 0.760694 636.422 -0.153443L634.735 3.47344ZM638.54 6.30751C639.616 7.48739 640.447 8.81971 641.038 10.3153L644.758 8.84468C643.989 6.90028 642.9 5.15261 641.496 3.61249L638.54 6.30751ZM641.053 10.3523C641.677 11.8424 641.978 13.3207 641.978 14.8H645.978C645.978 12.7593 645.559 10.7576 644.743 8.80772L641.053 10.3523ZM641.978 14.8C641.978 16.3437 641.733 17.7997 641.25 19.1793L645.026 20.5007C645.663 18.6803 645.978 16.7763 645.978 14.8H641.978ZM641.256 19.1643C640.772 20.513 640.083 21.7348 639.186 22.8388L642.29 25.3612C643.473 23.9052 644.385 22.287 645.021 20.5157L641.256 19.1643ZM639.206 22.8148C638.326 23.864 637.277 24.7283 636.047 25.4117L637.989 28.9083C639.639 27.9917 641.071 26.816 642.271 25.3852L639.206 22.8148ZM635.296 28.1775L644.656 44.0175L648.1 41.9825L638.74 26.1425L635.296 28.1775ZM646.378 41H635.518V45H646.378V41ZM637.238 41.9787L629.078 28.2387L625.639 30.2812L633.799 44.0213L637.238 41.9787ZM627.358 27.26H620.698V31.26H627.358V27.26ZM618.698 29.26V43H622.698V29.26H618.698ZM620.698 41H610.858V45H620.698V41ZM620.698 22.68H629.698V18.68H620.698V22.68ZM629.698 22.68C630.932 22.68 632.077 22.2978 633.048 21.5217L630.549 18.3983C630.319 18.5822 630.064 18.68 629.698 18.68V22.68ZM633.059 21.5122C633.977 20.7663 634.673 19.8008 635.179 18.6876L631.537 17.0324C631.243 17.6792 630.899 18.1137 630.537 18.4078L633.059 21.5122ZM635.179 18.6876C635.718 17.501 635.958 16.1893 635.958 14.8H631.958C631.958 15.7307 631.798 16.459 631.537 17.0324L635.179 18.6876ZM635.958 14.8C635.958 13.3612 635.659 12.0049 634.975 10.8077L631.502 12.7923C631.778 13.2751 631.958 13.9188 631.958 14.8H635.958ZM635.027 10.9056C634.466 9.78412 633.706 8.82822 632.711 8.12606L630.405 11.3939C630.77 11.6518 631.13 12.0559 631.449 12.6944L635.027 10.9056ZM632.711 8.12606C631.728 7.43167 630.611 7.04 629.398 7.04V11.04C629.706 11.04 630.029 11.1283 630.405 11.3939L632.711 8.12606ZM629.398 7.04H620.698V11.04H629.398V7.04ZM618.698 9.04V20.68H622.698V9.04H618.698ZM0.230156 163H-1.76984V165H0.230156V163ZM0.230156 77.8V75.8H-1.76984V77.8H0.230156ZM58.6702 77.8H60.6702V75.8H58.6702V77.8ZM58.6702 98.2V100.2H60.6702V98.2H58.6702ZM23.6302 98.2V96.2H21.6302V98.2H23.6302ZM23.6302 112.36H21.6302V114.36H23.6302V112.36ZM52.1902 112.36H54.1902V110.36H52.1902V112.36ZM52.1902 131.32V133.32H54.1902V131.32H52.1902ZM23.6302 131.32V129.32H21.6302V131.32H23.6302ZM23.6302 163V165H25.6302V163H23.6302ZM2.23016 163V77.8H-1.76984V163H2.23016ZM0.230156 79.8H58.6702V75.8H0.230156V79.8ZM56.6702 77.8V98.2H60.6702V77.8H56.6702ZM58.6702 96.2H23.6302V100.2H58.6702V96.2ZM21.6302 98.2V112.36H25.6302V98.2H21.6302ZM23.6302 114.36H52.1902V110.36H23.6302V114.36ZM50.1902 112.36V131.32H54.1902V112.36H50.1902ZM52.1902 129.32H23.6302V133.32H52.1902V129.32ZM21.6302 131.32V163H25.6302V131.32H21.6302ZM23.6302 161H0.230156V165H23.6302V161ZM94.0195 77.8V75.8H92.5592L92.1145 77.1909L94.0195 77.8ZM120.18 77.8L122.085 77.1934L121.642 75.8H120.18V77.8ZM147.3 163V165H150.035L149.205 162.393L147.3 163ZM123.54 163L121.629 163.591L122.065 165H123.54V163ZM118.38 146.32L120.29 145.729L119.854 144.32H118.38V146.32ZM95.6995 146.32V144.32H94.2145L93.785 145.742L95.6995 146.32ZM90.6595 163V165H92.1445L92.5741 163.578L90.6595 163ZM66.7795 163L64.8745 162.391L64.0404 165H66.7795V163ZM114.66 130.72V132.72H117.226L116.599 130.231L114.66 130.72ZM107.1 100.72L109.039 100.231L105.166 100.209L107.1 100.72ZM99.1795 130.72L97.2458 130.209L96.583 132.72H99.1795V130.72ZM94.0195 79.8H120.18V75.8H94.0195V79.8ZM118.274 78.4066L145.394 163.607L149.205 162.393L122.085 77.1934L118.274 78.4066ZM147.3 161H123.54V165H147.3V161ZM125.45 162.409L120.29 145.729L116.469 146.911L121.629 163.591L125.45 162.409ZM118.38 144.32H95.6995V148.32H118.38V144.32ZM93.785 145.742L88.745 162.422L92.5741 163.578L97.614 146.898L93.785 145.742ZM90.6595 161H66.7795V165H90.6595V161ZM68.6845 163.609L95.9245 78.4091L92.1145 77.1909L64.8745 162.391L68.6845 163.609ZM116.599 130.231L109.039 100.231L105.16 101.209L112.72 131.209L116.599 130.231ZM105.166 100.209L97.2458 130.209L101.113 131.23L109.033 101.23L105.166 100.209ZM99.1795 132.72H114.66V128.72H99.1795V132.72ZM175.905 77.8L177.827 77.249L177.412 75.8H175.905V77.8ZM192.585 136L190.662 136.551L192.598 143.308L194.509 136.544L192.585 136ZM209.025 77.8V75.8H207.511L207.1 77.2563L209.025 77.8ZM233.625 77.8L235.515 78.4524L236.43 75.8H233.625V77.8ZM204.225 163V165H205.65L206.115 163.652L204.225 163ZM180.945 163L179.056 163.66L179.525 165H180.945V163ZM151.185 77.8V75.8H148.367L149.296 78.4595L151.185 77.8ZM173.982 78.351L190.662 136.551L194.507 135.449L177.827 77.249L173.982 78.351ZM194.509 136.544L210.949 78.3437L207.1 77.2563L190.66 135.456L194.509 136.544ZM209.025 79.8H233.625V75.8H209.025V79.8ZM231.734 77.1476L202.334 162.348L206.115 163.652L235.515 78.4524L231.734 77.1476ZM204.225 161H180.945V165H204.225V161ZM182.833 162.34L153.073 77.1405L149.296 78.4595L179.056 163.66L182.833 162.34ZM151.185 79.8H175.905V75.8H151.185V79.8ZM269.451 160.12L268.601 161.93L268.612 161.936L268.623 161.941L269.451 160.12ZM255.771 150.28L254.287 151.621L254.301 151.636L254.315 151.651L255.771 150.28ZM247.011 136.36L245.144 137.078L245.151 137.095L245.158 137.113L247.011 136.36ZM247.251 104.08L245.408 103.303L247.251 104.08ZM256.251 90.4L254.809 89.0143L254.808 89.0149L256.251 90.4ZM270.051 80.8L269.257 78.9645L269.247 78.969L270.051 80.8ZM305.211 81.04L304.361 82.8503L304.372 82.8556L304.383 82.8607L305.211 81.04ZM318.771 90.88L317.287 92.2211L318.771 90.88ZM327.411 104.92L325.544 105.638L325.551 105.655L325.558 105.673L327.411 104.92ZM327.291 136.84L325.448 136.063L325.443 136.075L325.438 136.087L327.291 136.84ZM318.291 150.64L316.849 149.254L316.848 149.255L318.291 150.64ZM304.611 160.24L305.416 162.071L305.427 162.066L305.439 162.061L304.611 160.24ZM268.971 128.92L267.052 129.484L267.055 129.492L267.057 129.5L268.971 128.92ZM272.571 136.12L270.964 137.31L270.975 137.325L270.986 137.339L272.571 136.12ZM278.571 141.16L277.63 142.925L277.665 142.943L277.7 142.96L278.571 141.16ZM296.091 141.04L297.008 142.817L296.091 141.04ZM302.091 135.88L300.464 134.717L300.455 134.729L302.091 135.88ZM305.571 128.56L303.652 127.996L303.647 128.015L303.642 128.034L305.571 128.56ZM305.571 112L303.657 112.58L305.571 112ZM301.971 104.92L300.364 106.11L300.375 106.125L300.386 106.139L301.971 104.92ZM295.851 99.88L296.722 98.0797L295.851 99.88ZM278.451 100L277.534 98.2228L277.522 98.2289L277.51 98.2353L278.451 100ZM272.451 105.16L274.036 106.379L274.047 106.365L274.058 106.35L272.451 105.16ZM268.851 112.36L266.932 111.796L266.927 111.815L266.922 111.834L268.851 112.36ZM287.091 161.72C280.863 161.72 275.27 160.568 270.279 158.299L268.623 161.941C274.192 164.472 280.359 165.72 287.091 165.72V161.72ZM270.301 158.31C265.24 155.932 260.888 152.798 257.228 148.909L254.315 151.651C258.334 155.922 263.102 159.348 268.601 161.93L270.301 158.31ZM257.255 148.939C253.649 144.949 250.855 140.508 248.864 135.607L245.158 137.113C247.327 142.452 250.373 147.291 254.287 151.621L257.255 148.939ZM248.878 135.642C246.965 130.669 246.011 125.552 246.011 120.28H242.011C242.011 126.048 243.057 131.651 245.144 137.078L248.878 135.642ZM246.011 120.28C246.011 114.861 247.04 109.726 249.094 104.857L245.408 103.303C243.142 108.674 242.011 114.339 242.011 120.28H246.011ZM249.094 104.857C251.159 99.9622 254.024 95.6083 257.694 91.7851L254.808 89.0149C250.799 93.1917 247.663 97.9578 245.408 103.303L249.094 104.857ZM257.693 91.7857C261.428 87.8981 265.811 84.8478 270.856 82.631L269.247 78.969C263.732 81.3922 258.914 84.7419 254.809 89.0143L257.693 91.7857ZM270.846 82.6354C275.935 80.4326 281.502 79.32 287.571 79.32V75.32C281 75.32 274.887 76.5273 269.257 78.9645L270.846 82.6354ZM287.571 79.32C293.79 79.32 299.375 80.5085 304.361 82.8503L306.061 79.2297C300.487 76.6115 294.312 75.32 287.571 75.32V79.32ZM304.383 82.8607C309.423 85.1514 313.717 88.2712 317.287 92.2211L320.255 89.5389C316.305 85.1688 311.559 81.7286 306.039 79.2193L304.383 82.8607ZM317.287 92.2211C320.884 96.1999 323.633 100.669 325.544 105.638L329.278 104.202C327.189 98.771 324.179 93.8801 320.255 89.5389L317.287 92.2211ZM325.558 105.673C327.543 110.558 328.531 115.582 328.531 120.76H332.531C332.531 115.058 331.44 109.522 329.264 104.167L325.558 105.673ZM328.531 120.76C328.531 126.095 327.504 131.191 325.448 136.063L329.134 137.617C331.398 132.249 332.531 126.625 332.531 120.76H328.531ZM325.438 136.087C323.456 140.966 320.597 145.353 316.849 149.254L319.733 152.026C323.825 147.767 326.966 142.954 329.144 137.593L325.438 136.087ZM316.848 149.255C313.192 153.064 308.843 156.119 303.783 158.419L305.439 162.061C310.939 159.561 315.71 156.216 319.734 152.025L316.848 149.255ZM303.807 158.409C298.807 160.606 293.245 161.72 287.091 161.72V165.72C293.738 165.72 299.856 164.514 305.416 162.071L303.807 158.409ZM265.771 120.52C265.771 123.588 266.198 126.578 267.052 129.484L270.89 128.356C270.145 125.822 269.771 123.212 269.771 120.52H265.771ZM267.057 129.5C267.922 132.354 269.224 134.961 270.964 137.31L274.178 134.93C272.718 132.959 271.62 130.766 270.885 128.34L267.057 129.5ZM270.986 137.339C272.766 139.653 274.988 141.516 277.63 142.925L279.512 139.395C277.354 138.244 275.577 136.747 274.156 134.901L270.986 137.339ZM277.7 142.96C280.505 144.317 283.734 144.96 287.331 144.96V140.96C284.208 140.96 281.598 140.403 279.442 139.36L277.7 142.96ZM287.331 144.96C290.946 144.96 294.193 144.271 297.008 142.817L295.174 139.263C293.03 140.369 290.436 140.96 287.331 140.96V144.96ZM297.008 142.817C299.758 141.398 302.011 139.47 303.727 137.031L300.455 134.729C299.132 136.61 297.384 138.122 295.174 139.263L297.008 142.817ZM303.719 137.042C305.455 134.611 306.718 131.956 307.501 129.086L303.642 128.034C302.984 130.444 301.927 132.669 300.464 134.718L303.719 137.042ZM307.49 129.124C308.343 126.223 308.771 123.273 308.771 120.28H304.771C304.771 122.887 304.399 125.457 303.652 127.996L307.49 129.124ZM308.771 120.28C308.771 117.212 308.345 114.256 307.485 111.42L303.657 112.58C304.398 115.024 304.771 117.588 304.771 120.28H308.771ZM307.485 111.42C306.619 108.561 305.311 105.982 303.556 103.701L300.386 106.139C301.831 108.018 302.923 110.159 303.657 112.58L307.485 111.42ZM303.578 103.73C301.781 101.303 299.486 99.4168 296.722 98.0797L294.98 101.68C297.176 102.743 298.961 104.217 300.364 106.11L303.578 103.73ZM296.722 98.0797C293.924 96.7255 290.736 96.08 287.211 96.08V100.08C290.246 100.08 292.819 100.634 294.98 101.68L296.722 98.0797ZM287.211 96.08C283.596 96.08 280.35 96.7694 277.534 98.2228L279.368 101.777C281.513 100.671 284.106 100.08 287.211 100.08V96.08ZM277.51 98.2353C274.851 99.6532 272.623 101.568 270.844 103.97L274.058 106.35C275.479 104.432 277.251 102.907 279.392 101.765L277.51 98.2353ZM270.866 103.941C269.103 106.232 267.796 108.858 266.932 111.796L270.77 112.924C271.506 110.422 272.599 108.248 274.036 106.379L270.866 103.941ZM266.922 111.834C266.154 114.649 265.771 117.546 265.771 120.52H269.771C269.771 117.894 270.108 115.351 270.781 112.886L266.922 111.834ZM352.449 163H350.449V165H352.449V163ZM352.449 77.8V75.8H350.449V77.8H352.449ZM403.089 80.32L402.227 82.125L403.089 80.32ZM412.209 87.16L410.714 88.4887L410.723 88.4992L410.733 88.5095L412.209 87.16ZM418.089 96.64L416.223 97.3608L416.23 97.3791L416.238 97.3973L418.089 96.64ZM418.809 116.8L416.902 116.198V116.198L418.809 116.8ZM414.609 125.2L416.215 126.392L416.224 126.38L416.233 126.367L414.609 125.2ZM408.009 131.68L406.842 130.056L405.375 131.11L406.275 132.677L408.009 131.68ZM426.009 163V165H429.465L427.743 162.003L426.009 163ZM400.329 163L398.594 163.995L399.17 165H400.329V163ZM385.329 136.84L387.064 135.845L386.488 134.84H385.329V136.84ZM375.849 136.84V134.84H373.849V136.84H375.849ZM375.849 163V165H377.849V163H375.849ZM375.849 116.44H373.849V118.44H375.849V116.44ZM393.369 115.36L392.102 113.812V113.812L393.369 115.36ZM395.529 112.24L393.719 111.388L393.698 111.433L393.68 111.479L395.529 112.24ZM395.409 102.4L393.599 103.252L393.63 103.317L393.666 103.381L395.409 102.4ZM392.889 99.28L391.689 100.88L391.719 100.903L391.75 100.924L392.889 99.28ZM375.849 98.2V96.2H373.849V98.2H375.849ZM354.449 163V77.8H350.449V163H354.449ZM352.449 79.8H391.569V75.8H352.449V79.8ZM391.569 79.8C395.451 79.8 398.994 80.5818 402.227 82.125L403.95 78.515C400.144 76.6982 396.007 75.8 391.569 75.8V79.8ZM402.227 82.125C405.51 83.6915 408.334 85.8106 410.714 88.4887L413.704 85.8313C410.964 82.7494 407.708 80.3085 403.95 78.515L402.227 82.125ZM410.733 88.5095C413.126 91.127 414.953 94.0741 416.223 97.3608L419.954 95.9192C418.504 92.1659 416.412 88.793 413.685 85.8105L410.733 88.5095ZM416.238 97.3973C417.585 100.691 418.249 103.994 418.249 107.32H422.249C422.249 103.446 421.473 99.6293 419.94 95.8827L416.238 97.3973ZM418.249 107.32C418.249 110.402 417.798 113.358 416.902 116.198L420.716 117.402C421.739 114.162 422.249 110.798 422.249 107.32H418.249ZM416.902 116.198C416.005 119.038 414.7 121.647 412.985 124.033L416.233 126.367C418.198 123.633 419.693 120.642 420.716 117.402L416.902 116.198ZM413.003 124.008C411.288 126.319 409.237 128.334 406.842 130.056L409.176 133.304C411.9 131.346 414.249 129.041 416.215 126.392L413.003 124.008ZM406.275 132.677L424.275 163.997L427.743 162.003L409.743 130.683L406.275 132.677ZM426.009 161H400.329V165H426.009V161ZM402.064 162.005L387.064 135.845L383.594 137.835L398.594 163.995L402.064 162.005ZM385.329 134.84H375.849V138.84H385.329V134.84ZM373.849 136.84V163H377.849V136.84H373.849ZM375.849 161H352.449V165H375.849V161ZM375.849 118.44H390.609V114.44H375.849V118.44ZM390.609 118.44C392.112 118.44 393.467 117.864 394.635 116.908L392.102 113.812C391.511 114.296 391.026 114.44 390.609 114.44V118.44ZM394.635 116.908C395.836 115.925 396.728 114.581 397.378 113.001L393.68 111.479C393.21 112.619 392.662 113.355 392.102 113.812L394.635 116.908ZM397.339 113.092C398.134 111.402 398.489 109.456 398.489 107.32H394.489C394.489 109.024 394.204 110.358 393.719 111.388L397.339 113.092ZM398.489 107.32C398.489 105.096 398.09 103.088 397.152 101.419L393.666 103.381C394.167 104.272 394.489 105.544 394.489 107.32H398.489ZM397.219 101.548C396.457 99.9299 395.407 98.5909 394.027 97.6356L391.75 100.924C392.451 101.409 393.081 102.15 393.599 103.252L397.219 101.548ZM394.089 97.68C392.871 96.7662 391.5 96.2 390.009 96.2V100.2C390.438 100.2 390.987 100.354 391.689 100.88L394.089 97.68ZM390.009 96.2H375.849V100.2H390.009V96.2ZM373.849 98.2V116.44H377.849V98.2H373.849ZM445.425 163H443.425V165H445.425V163ZM445.425 77.8V75.8H443.425V77.8H445.425ZM468.826 77.8H470.826V75.8H468.826V77.8ZM468.826 163V165H470.826V163H468.826ZM447.425 163V77.8H443.425V163H447.425ZM445.425 79.8H468.826V75.8H445.425V79.8ZM466.826 77.8V163H470.826V77.8H466.826ZM468.826 161H445.425V165H468.826V161ZM561.871 98.2V100.2H563.871V98.2H561.871ZM537.391 98.2V96.2H535.391V98.2H537.391ZM537.391 163V165H539.391V163H537.391ZM513.991 163H511.991V165H513.991V163ZM513.991 98.2H515.991V96.2H513.991V98.2ZM489.391 98.2H487.391V100.2H489.391V98.2ZM489.391 77.8V75.8H487.391V77.8H489.391ZM561.871 77.8H563.871V75.8H561.871V77.8ZM561.871 96.2H537.391V100.2H561.871V96.2ZM535.391 98.2V163H539.391V98.2H535.391ZM537.391 161H513.991V165H537.391V161ZM515.991 163V98.2H511.991V163H515.991ZM513.991 96.2H489.391V100.2H513.991V96.2ZM491.391 98.2V77.8H487.391V98.2H491.391ZM489.391 79.8H561.871V75.8H489.391V79.8ZM559.871 77.8V98.2H563.871V77.8H559.871ZM643.114 142.6H645.114V140.6H643.114V142.6ZM643.114 163V165H645.114V163H643.114ZM582.394 163H580.394V165H582.394V163ZM582.394 77.8V75.8H580.394V77.8H582.394ZM642.034 77.8H644.034V75.8H642.034V77.8ZM642.034 98.2V100.2H644.034V98.2H642.034ZM605.794 98.2V96.2H603.794V98.2H605.794ZM605.794 110.2H603.794V112.2H605.794V110.2ZM636.754 110.2H638.754V108.2H636.754V110.2ZM636.754 129.16V131.16H638.754V129.16H636.754ZM605.794 129.16V127.16H603.794V129.16H605.794ZM605.794 142.6H603.794V144.6H605.794V142.6ZM641.114 142.6V163H645.114V142.6H641.114ZM643.114 161H582.394V165H643.114V161ZM584.394 163V77.8H580.394V163H584.394ZM582.394 79.8H642.034V75.8H582.394V79.8ZM640.034 77.8V98.2H644.034V77.8H640.034ZM642.034 96.2H605.794V100.2H642.034V96.2ZM603.794 98.2V110.2H607.794V98.2H603.794ZM605.794 112.2H636.754V108.2H605.794V112.2ZM634.754 110.2V129.16H638.754V110.2H634.754ZM636.754 127.16H605.794V131.16H636.754V127.16ZM603.794 129.16V142.6H607.794V129.16H603.794ZM605.794 144.6H643.114V140.6H605.794V144.6ZM670.076 131.92H668.076V133.92H670.076V131.92ZM670.556 125.32L668.592 124.942L668.585 124.979L668.579 125.016L670.556 125.32ZM673.196 119.44L674.804 120.629L674.816 120.613L674.828 120.596L673.196 119.44ZM679.556 114.28L680.489 116.049L680.501 116.042L680.513 116.036L679.556 114.28ZM683.276 112.36L682.416 110.554L682.399 110.563L682.381 110.571L683.276 112.36ZM692.516 105.76L690.979 104.48L690.972 104.489L692.516 105.76ZM693.236 97.96L691.572 99.0694L691.626 99.1508L691.688 99.2265L693.236 97.96ZM690.596 95.8L689.758 97.6159L689.783 97.6274L689.808 97.6383L690.596 95.8ZM682.316 96.52L683.499 98.1328L683.507 98.1264L683.516 98.12L682.316 96.52ZM679.316 99.64L677.652 98.5306L677.642 98.5445L677.633 98.5585L679.316 99.64ZM677.276 102.52L676.117 104.15L677.657 105.245L678.838 103.769L677.276 102.52ZM662.756 92.2L660.908 91.434L660.298 92.9066L661.597 93.8302L662.756 92.2ZM668.516 83.92L669.856 85.4042L669.869 85.3925L669.882 85.3805L668.516 83.92ZM677.156 78.64L677.843 80.5182L677.855 80.5137L677.868 80.509L677.156 78.64ZM697.076 78.04L696.52 79.9612L696.533 79.9649L697.076 78.04ZM705.596 82.24L706.796 80.64V80.64L705.596 82.24ZM711.716 89.8L709.918 90.6759L709.927 90.6944L709.936 90.7126L711.716 89.8ZM713.636 106.72L715.604 107.078V107.078L713.636 106.72ZM711.956 111.76L710.167 110.866L710.157 110.885L710.148 110.904L711.956 111.76ZM708.956 116.2L707.461 114.871L707.456 114.877L708.956 116.2ZM704.516 120.04L703.389 118.388L703.38 118.394L704.516 120.04ZM697.316 124.12L696.493 122.297L696.481 122.302L696.47 122.308L697.316 124.12ZM691.196 127.6L692.305 129.264L692.332 129.246L692.358 129.227L691.196 127.6ZM688.676 131.92V133.92H690.676V131.92H688.676ZM670.436 163H668.436V165H670.436V163ZM670.436 143.32V141.32H668.436V143.32H670.436ZM689.036 143.32H691.036V141.32H689.036V143.32ZM689.036 163V165H691.036V163H689.036ZM672.076 131.92C672.076 129.692 672.229 127.594 672.533 125.624L668.579 125.016C668.242 127.206 668.076 129.508 668.076 131.92H672.076ZM672.52 125.698C672.859 123.934 673.607 122.248 674.804 120.629L671.587 118.251C670.064 120.312 669.053 122.546 668.592 124.942L672.52 125.698ZM674.828 120.596C675.95 119.011 677.786 117.475 680.489 116.049L678.622 112.511C675.565 114.125 673.161 116.029 671.564 118.284L674.828 120.596ZM680.513 116.036C681.362 115.573 682.578 114.945 684.17 114.149L682.381 110.571C680.774 111.375 679.509 112.027 678.598 112.524L680.513 116.036ZM684.136 114.166C685.909 113.321 687.672 112.313 689.425 111.144L687.206 107.816C685.599 108.887 684.003 109.799 682.416 110.554L684.136 114.166ZM689.425 111.144C691.245 109.931 692.798 108.563 694.06 107.031L690.972 104.489C689.993 105.677 688.746 106.789 687.206 107.816L689.425 111.144ZM694.052 107.04C695.515 105.285 696.316 103.282 696.316 101.08H692.316C692.316 102.237 691.917 103.355 690.979 104.48L694.052 107.04ZM696.316 101.08C696.316 99.4459 695.813 97.9516 694.784 96.6935L691.688 99.2265C692.099 99.7283 692.316 100.314 692.316 101.08H696.316ZM694.9 96.8506C694.032 95.5493 692.839 94.5855 691.384 93.9617L689.808 97.6383C690.592 97.9745 691.159 98.4507 691.572 99.0694L694.9 96.8506ZM691.434 93.9841C690.102 93.3692 688.651 93.08 687.116 93.08V97.08C688.141 97.08 689.01 97.2707 689.758 97.6159L691.434 93.9841ZM687.116 93.08C684.852 93.08 682.807 93.6516 681.116 94.92L683.516 98.12C684.385 97.4684 685.539 97.08 687.116 97.08V93.08ZM681.133 94.9072C679.75 95.9211 678.586 97.1297 677.652 98.5306L680.98 100.749C681.646 99.7503 682.481 98.8789 683.499 98.1328L681.133 94.9072ZM677.633 98.5585C676.94 99.6366 676.3 100.538 675.714 101.271L678.838 103.769C679.531 102.902 680.251 101.883 680.998 100.722L677.633 98.5585ZM678.434 100.89L663.914 90.5698L661.597 93.8302L676.117 104.15L678.434 100.89ZM664.603 92.966C665.857 89.9425 667.61 87.433 669.856 85.4042L667.175 82.4358C664.461 84.8869 662.375 87.8974 660.908 91.434L664.603 92.966ZM669.882 85.3805C672.16 83.2492 674.808 81.6287 677.843 80.5182L676.469 76.7617C672.944 78.0513 669.831 79.9508 667.149 82.4594L669.882 85.3805ZM677.868 80.509C680.985 79.3213 684.342 78.72 687.956 78.72V74.72C683.889 74.72 680.046 75.3987 676.444 76.771L677.868 80.509ZM687.956 78.72C690.8 78.72 693.653 79.1313 696.52 79.9611L697.632 76.1189C694.419 75.1887 691.192 74.72 687.956 74.72V78.72ZM696.533 79.9649C699.419 80.7789 702.036 82.0698 704.396 83.84L706.796 80.64C704.036 78.5702 700.973 77.0611 697.619 76.1151L696.533 79.9649ZM704.396 83.84C706.681 85.5537 708.525 87.8167 709.918 90.6759L713.514 88.9241C711.867 85.5433 709.631 82.7663 706.796 80.64L704.396 83.84ZM709.936 90.7126C711.357 93.4828 712.116 96.9517 712.116 101.2H716.116C716.116 96.4883 715.275 92.3572 713.495 88.8874L709.936 90.7126ZM712.116 101.2C712.116 103.009 711.965 104.729 711.668 106.362L715.604 107.078C715.946 105.191 716.116 103.231 716.116 101.2H712.116ZM711.668 106.362C711.382 107.936 710.882 109.435 710.167 110.866L713.745 112.654C714.629 110.885 715.25 109.024 715.604 107.078L711.668 106.362ZM710.148 110.904C709.52 112.229 708.633 113.553 707.461 114.871L710.451 117.529C711.839 115.967 712.951 114.331 713.763 112.616L710.148 110.904ZM707.456 114.877C706.383 116.092 705.035 117.265 703.389 118.388L705.642 121.692C707.517 120.415 709.128 119.028 710.455 117.523L707.456 114.877ZM703.38 118.394C701.155 119.928 698.86 121.228 696.493 122.297L698.139 125.943C700.732 124.772 703.236 123.352 705.651 121.686L703.38 118.394ZM696.47 122.308C693.988 123.466 691.836 124.685 690.033 125.973L692.358 129.227C693.915 128.115 695.843 127.014 698.162 125.932L696.47 122.308ZM690.086 125.936C687.945 127.363 686.676 129.384 686.676 131.92H690.676C690.676 130.936 691.086 130.077 692.305 129.264L690.086 125.936ZM688.676 129.92H670.076V133.92H688.676V129.92ZM672.436 163V143.32H668.436V163H672.436ZM670.436 145.32H689.036V141.32H670.436V145.32ZM687.036 143.32V163H691.036V143.32H687.036ZM689.036 161H670.436V165H689.036V161Z" fill="white"/>
</svg>
