<svg width="392" height="85" viewBox="0 0 392 85" fill="none" xmlns="http://www.w3.org/2000/svg">
<path d="M147.131 49.7572C148.154 48.7867 147.42 47.6587 147.315 46.662C146.79 41.5731 147.157 36.5629 148.469 31.6577C149.885 26.3852 152.089 21.4537 155.368 17.1256C159.25 12.0105 163.919 7.761 169.716 4.84933C171.815 3.80007 173.94 2.72459 176.195 2.06881C179.71 1.04579 183.278 0.442473 186.95 0.127698C192.039 -0.318233 196.944 0.442473 201.771 1.8065C206.309 3.09183 210.558 5.11164 214.336 8.02331C215.123 8.62663 215.883 9.28241 216.854 9.62341C217.772 10.9874 218.769 12.2728 220.448 12.7974C220.474 13.1122 220.657 13.3483 220.867 13.5843C223.044 16.2337 225.222 18.883 226.822 21.9521C227.294 22.8702 227.215 23.4473 226.402 24.0506C224.015 25.7819 221.812 27.7492 219.477 29.5592C215.673 32.4971 211.765 35.3301 207.752 38.0056C207.043 38.4778 206.545 38.6614 206.256 37.5859C205.732 35.5399 204.683 33.7299 203.423 32.0511C200.433 28.0115 196.393 25.6245 191.41 25.2048C184.065 24.6015 178.294 27.5131 174.517 33.8873C172.549 37.1925 171.972 40.8386 172.418 44.6946C172.864 48.5244 174.648 51.6984 177.061 54.5576C177.769 55.4232 177.586 55.633 176.72 56.0527C171.946 58.3611 167.172 60.6957 162.214 62.5843C159.906 63.4762 157.597 64.4205 155.263 65.2337C154.266 65.5747 153.689 65.3648 153.138 64.4468C151.381 61.5613 150.095 58.4923 149.046 55.3183C148.915 54.951 148.994 54.5051 148.443 54.4526C148.967 52.8525 148.128 51.4623 147.734 49.9933C147.682 49.8622 147.341 49.8359 147.131 49.7572ZM213.654 26.1229C214.729 26.1229 215.831 26.1491 216.906 26.0966C218.008 26.0442 219.031 25.0999 219.057 24.1818C219.084 23.1325 218.139 22.0833 216.985 22.057C214.808 22.0046 212.631 21.9783 210.453 22.057C209.247 22.0833 208.329 23.0276 208.329 24.1293C208.302 25.1261 209.325 26.0966 210.506 26.1229C211.555 26.1491 212.604 26.1229 213.654 26.1229ZM202.374 10.9087V10.935C203.423 10.935 204.473 10.9612 205.522 10.935C207.201 10.9087 207.699 10.3841 207.62 8.73155C207.568 7.6823 206.807 7.07898 205.286 7.07898C203.161 7.10521 201.036 6.94783 198.885 7.2626C197.784 7.41999 197.338 8.04954 197.259 8.9414C197.154 10.0169 198.02 10.8563 199.095 10.8825C200.171 10.935 201.272 10.9087 202.374 10.9087ZM191.908 20.1159C192.905 20.1159 193.902 20.1422 194.898 20.1159C196.289 20.0897 197.102 19.4339 197.154 18.2797C197.207 17.0731 196.393 16.2862 194.951 16.2599C192.905 16.2075 190.859 16.2075 188.813 16.2599C187.58 16.2862 186.635 17.2042 186.662 18.2535C186.688 19.3027 187.554 20.0897 188.76 20.1422C189.836 20.1422 190.859 20.1159 191.908 20.1159ZM166.7 21.1127C166.7 21.1389 166.7 21.1389 166.7 21.1127C165.598 21.1127 164.523 21.0865 163.421 21.1389C162.188 21.1914 161.453 21.9259 161.453 22.9751C161.453 24.1818 162.24 24.7589 163.263 24.8113C165.519 24.9162 167.801 25.0474 170.057 24.7326C171.159 24.5752 171.867 24.0244 171.762 22.8702C171.684 21.716 170.923 21.1914 169.847 21.1389C168.798 21.0865 167.749 21.1127 166.7 21.1127Z" fill="#F7CC7E"/>
<path d="M147.131 49.7572C147.341 49.8359 147.682 49.8622 147.708 49.9671C148.075 51.436 148.941 52.8263 148.417 54.4264C145.925 56.4987 143.669 58.807 141.544 61.2465C140.363 62.5843 139.288 64.0533 138.554 65.6796C137.321 68.5126 138.422 70.2963 141.491 70.4799C142.855 70.5586 144.193 70.5324 145.531 70.3225C151.433 69.4045 157.047 67.3846 162.555 65.1812C176.536 59.5415 189.731 52.4066 202.505 44.4585C206.361 42.0715 210.034 39.3697 213.759 36.7728C216.906 34.5956 219.923 32.261 223.018 30.0576C227.058 27.1721 230.783 23.8408 234.062 20.0897C235.478 18.4633 236.842 16.7845 237.76 14.8172C239.019 12.1678 238.364 10.253 235.347 9.96441C234.796 9.91195 234.219 9.83326 233.668 9.83326C229.051 9.96441 224.749 11.4071 220.421 12.7712C218.743 12.2465 217.746 10.9874 216.828 9.59718C223.359 7.47244 230.048 6.05596 236.973 6.18711C238.941 6.21334 240.882 6.55435 242.692 7.41998C245.525 8.75778 246.862 11.276 246.39 14.3713C245.839 17.8338 244.134 20.7455 242.167 23.5522C239.334 27.6181 235.95 31.1855 232.33 34.5431C231.963 34.8841 231.491 35.1989 231.412 35.776C230.993 35.8284 230.704 36.0908 230.415 36.3531C227.268 39.3172 223.884 42.019 220.448 44.6159C213.444 49.8884 206.125 54.6887 198.518 59.0693C187.527 65.3648 176.117 70.7685 164.077 74.8343C163.657 74.9917 163.08 74.9655 163.001 75.6213C162.45 75.2016 161.926 75.4901 161.375 75.6475C155.551 77.3263 149.676 78.769 143.537 78.8215C141.124 78.8477 138.737 78.6116 136.508 77.5886C133.334 76.1459 131.996 73.3916 132.756 69.9815C133.675 65.8108 136.009 62.4007 138.554 59.1218C140.836 56.1839 143.406 53.5345 146.056 50.9376C146.528 50.5966 147 50.3081 147.131 49.7572Z" fill="#7D41D3"/>
<path d="M163.08 75.6475C163.158 74.9917 163.709 75.018 164.155 74.8606C176.169 70.7947 187.58 65.3911 198.597 59.0956C206.204 54.7412 213.523 49.9409 220.526 44.6421C223.963 42.0453 227.346 39.3434 230.494 36.3793C230.783 36.117 231.071 35.8547 231.491 35.8022C232.357 40.6025 232.278 45.4029 231.386 50.2032C229.97 57.784 226.769 64.4468 221.733 70.2963C216.801 76.0147 210.742 80.0806 203.712 82.6513C197.574 84.8809 191.173 85.3531 184.668 84.6711C177.428 83.9366 171.002 81.1561 164.968 77.2476C164.26 76.8017 163.683 76.1721 163.08 75.6475ZM186.688 73.3392C185.639 73.3392 184.589 73.3129 183.54 73.3392C182.57 73.3654 182.202 73.9425 182.176 74.8868C182.176 75.8574 182.675 76.0672 183.514 76.0147C185.508 75.9098 187.501 76.1197 189.495 76.2508C190.544 76.3295 191.357 75.9098 191.383 74.7819C191.41 73.6539 190.491 73.3916 189.547 73.3392C188.603 73.3129 187.658 73.3392 186.688 73.3392Z" fill="#F7CC7E"/>
<path d="M213.654 26.1229C212.604 26.1229 211.555 26.1491 210.532 26.1229C209.352 26.0704 208.329 25.0999 208.355 24.1293C208.381 23.0538 209.273 22.1095 210.48 22.057C212.657 22.0046 214.834 22.0046 217.011 22.057C218.165 22.0833 219.11 23.1325 219.084 24.1818C219.057 25.0999 218.034 26.0442 216.933 26.0967C215.831 26.1491 214.755 26.1229 213.654 26.1229Z" fill="#7D41D3"/>
<path d="M202.374 10.9087C201.273 10.9087 200.197 10.935 199.095 10.9087C198.02 10.8825 197.154 10.0431 197.259 8.96762C197.338 8.07576 197.784 7.47244 198.885 7.28882C201.01 6.94781 203.161 7.1052 205.286 7.1052C206.834 7.07897 207.594 7.70852 207.62 8.75777C207.699 10.4103 207.201 10.935 205.522 10.9612C204.473 10.9874 203.423 10.9612 202.374 10.9612C202.374 10.935 202.374 10.935 202.374 10.9087Z" fill="#FEFEFE"/>
<path d="M175.749 15.6304C174.648 15.6304 173.572 15.6566 172.471 15.6304C171.395 15.6042 170.529 14.7648 170.634 13.6893C170.713 12.7974 171.159 12.1941 172.261 12.0105C174.385 11.6695 176.536 11.8269 178.661 11.8269C180.209 11.8006 180.97 12.4302 180.996 13.4794C181.074 15.132 180.576 15.6566 178.897 15.6828C177.848 15.7091 176.799 15.6828 175.749 15.6828C175.749 15.6566 175.749 15.6566 175.749 15.6304Z" fill="#FF8FBF"/>
<path d="M185.717 9.07255C184.616 9.07255 183.54 9.09878 182.438 9.07255C181.363 9.04632 180.497 8.20692 180.602 7.13144C180.681 6.23958 181.127 5.63626 182.229 5.45264C184.353 5.11163 186.504 5.26902 188.629 5.26902C190.177 5.24279 190.937 5.87234 190.964 6.92159C191.042 8.57416 190.544 9.09878 188.865 9.12502C187.816 9.15125 186.767 9.12502 185.717 9.12502C185.717 9.09878 185.717 9.09878 185.717 9.07255Z" fill="#7D41D3"/>
<path d="M163.08 44.4848C161.978 44.4848 160.903 44.511 159.801 44.4848C158.725 44.4585 157.86 43.6191 157.965 42.5436C158.043 41.6518 158.489 41.0485 159.591 40.8648C161.716 40.5238 163.867 40.6812 165.991 40.6812C167.539 40.655 168.3 41.2845 168.326 42.3338C168.405 43.9864 167.906 44.511 166.228 44.5372C165.178 44.5634 164.129 44.5372 163.08 44.5372C163.08 44.511 163.08 44.511 163.08 44.4848Z" fill="#7D41D3"/>
<path d="M191.908 20.1159C190.859 20.1159 189.809 20.1421 188.786 20.1159C187.554 20.0635 186.714 19.2765 186.688 18.2273C186.662 17.178 187.606 16.2599 188.839 16.2337C190.885 16.2075 192.931 16.1812 194.977 16.2337C196.42 16.2599 197.233 17.0731 197.18 18.2535C197.128 19.4077 196.341 20.0635 194.925 20.0897C193.928 20.1421 192.905 20.1159 191.908 20.1159Z" fill="#FF8FBF"/>
<path d="M160.194 53.6919C159.145 53.6919 158.096 53.7182 157.073 53.6919C155.84 53.6395 155.001 52.8525 154.974 51.8033C154.948 50.754 155.892 49.8359 157.125 49.8097C159.171 49.7835 161.217 49.7572 163.263 49.8097C164.706 49.8359 165.519 50.6491 165.467 51.8295C165.414 52.9837 164.627 53.6395 163.211 53.6657C162.188 53.7182 161.191 53.6919 160.194 53.6919Z" fill="#FF8FBF"/>
<path d="M220.343 56.8135C219.241 56.8135 218.165 56.8397 217.064 56.8135C215.988 56.7872 215.123 55.9478 215.228 54.8723C215.306 53.9805 215.752 53.3772 216.854 53.1935C218.979 52.8525 221.13 53.0099 223.254 53.0099C224.802 52.9837 225.563 53.6132 225.589 54.6625C225.668 56.3151 225.169 56.8397 223.49 56.8659C222.441 56.8922 221.392 56.8659 220.343 56.8659C220.343 56.8397 220.343 56.8397 220.343 56.8135Z" fill="#FF8FBF"/>
<path d="M200.407 67.8306C199.305 67.8306 198.23 67.8568 197.128 67.8306C196.052 67.8043 195.187 66.9649 195.292 65.8895C195.37 64.9976 195.816 64.3943 196.918 64.2107C199.043 63.8697 201.194 64.027 203.319 64.027C204.866 64.0008 205.627 64.6304 205.653 65.6796C205.732 67.3322 205.233 67.8568 203.555 67.883C202.505 67.9093 201.456 67.883 200.407 67.883C200.407 67.8568 200.407 67.8568 200.407 67.8306Z" fill="#7D41D3"/>
<path d="M204.604 76.7755C203.555 76.7755 202.505 76.8017 201.482 76.7755C200.249 76.723 199.41 75.936 199.384 74.8868C199.358 73.8375 200.302 72.9195 201.535 72.8932C203.581 72.867 205.627 72.8408 207.673 72.8932C209.116 72.9195 209.929 73.7326 209.876 74.913C209.824 76.0672 209.037 76.723 207.62 76.7492C206.597 76.8017 205.601 76.7755 204.604 76.7755Z" fill="#FF8FBF"/>
<path d="M166.7 21.1127C167.749 21.1127 168.798 21.0865 169.847 21.1127C170.949 21.1652 171.684 21.6898 171.762 22.844C171.841 24.0244 171.159 24.5752 170.057 24.7064C167.801 25.0212 165.519 24.89 163.263 24.7851C162.24 24.7326 161.453 24.1555 161.453 22.9489C161.453 21.8996 162.188 21.1914 163.421 21.1127C164.523 21.0865 165.624 21.1389 166.7 21.1127C166.7 21.1389 166.7 21.1389 166.7 21.1127Z" fill="#7D41D3"/>
<path d="M157.912 35.8809C156.863 35.8809 156.129 35.8547 155.394 35.8809C154.266 35.9334 153.715 35.2776 153.715 34.3333C153.689 33.389 154.214 32.7069 155.342 32.7069C157.414 32.7332 159.486 32.7069 161.558 32.7332C162.476 32.7332 163.08 33.2578 163.106 34.1497C163.132 35.0678 162.529 35.4875 161.637 35.6448C160.273 35.8809 158.961 35.9334 157.912 35.8809Z" fill="#FEFEFE"/>
<path d="M216.696 65.7321C215.542 65.8108 214.519 65.6272 213.496 65.5485C212.526 65.4698 211.817 65.2075 211.634 64.1582C211.398 62.8467 212.578 62.5056 213.313 62.4532C215.464 62.2696 217.667 62.322 219.818 62.4007C220.605 62.4269 221.025 63.109 221.077 63.9746C221.13 64.8402 220.736 65.2075 219.949 65.4173C218.821 65.6796 217.719 65.837 216.696 65.7321Z" fill="#FEFEFE"/>
<path d="M186.688 73.3392C187.658 73.3392 188.603 73.3129 189.573 73.3392C190.491 73.3916 191.41 73.6539 191.41 74.7819C191.383 75.9098 190.596 76.3295 189.521 76.2508C187.527 76.0934 185.534 75.9098 183.54 76.0147C182.701 76.0672 182.202 75.8311 182.202 74.8868C182.202 73.9425 182.596 73.3916 183.566 73.3392C184.589 73.3129 185.639 73.3392 186.688 73.3392Z" fill="#FEFEFE"/>
<path d="M0 56.3676V29.2969H9.41702C13.3517 29.2969 16.5519 29.874 19.0439 31.0019C21.5359 32.1299 23.3458 33.7038 24.5262 35.6973C25.6804 37.6909 26.2837 40.0255 26.2837 42.6486C26.2837 46.9768 24.8672 50.3606 22.008 52.7739C19.1488 55.1872 14.8469 56.3938 9.04979 56.3938H0V56.3676ZM8.68255 49.495H11.2007C13.2992 49.495 14.8731 48.8654 15.8961 47.5801C16.9192 46.321 17.4438 44.6422 17.4438 42.5699C17.4438 40.655 16.9454 39.1074 15.9748 37.9532C14.9781 36.799 13.4042 36.1957 11.227 36.1957H8.70878V49.495H8.68255Z" fill="white"/>
<path d="M42.7569 56.9971C39.8977 56.9971 37.3795 56.3938 35.2023 55.1871C33.0251 53.9805 31.3201 52.3017 30.1135 50.2032C28.9068 48.0785 28.2773 45.639 28.2773 42.8847C28.2773 40.1042 28.8806 37.6647 30.1135 35.5399C31.3463 33.4152 33.0251 31.7626 35.2023 30.556C37.3795 29.3494 39.8977 28.746 42.7569 28.746C45.6161 28.746 48.1343 29.3494 50.3115 30.5298C52.4887 31.7364 54.1938 33.389 55.4004 35.5137C56.607 37.6384 57.2366 40.1042 57.2366 42.9109C57.2366 45.6652 56.6333 48.1047 55.4004 50.2294C54.1675 52.3542 52.4887 54.033 50.3115 55.2134C48.1343 56.3938 45.6161 56.9971 42.7569 56.9971ZM42.7569 49.836C44.4095 49.836 45.7735 49.2064 46.8228 47.9211C47.872 46.6358 48.4229 44.957 48.4229 42.8585C48.4229 41.442 48.1868 40.2091 47.6884 39.1074C47.19 38.0319 46.5342 37.1925 45.6948 36.5629C44.8292 35.9596 43.8587 35.6449 42.7307 35.6449C41.0781 35.6449 39.7141 36.3006 38.6649 37.6384C37.6156 38.9762 37.091 40.7075 37.091 42.8585C37.091 44.957 37.6156 46.662 38.6649 47.9211C39.7141 49.2064 41.0781 49.836 42.7569 49.836Z" fill="white"/>
<path d="M60.4368 56.3676V29.2969H68.3062L78.9299 43.6716V29.2969H86.1697V56.3676H78.3003L67.6767 42.5962V56.3676H60.4368Z" fill="white"/>
<path d="M103.168 56.9971C100.544 56.9971 98.2361 56.525 96.2425 55.5806C94.2489 54.6363 92.7013 53.2723 91.5996 51.5148C90.4979 49.7311 89.947 47.6326 89.947 45.1668V29.2969H98.682V44.7733C98.682 46.5308 99.1017 47.8162 99.9673 48.6556C100.807 49.4687 101.935 49.8884 103.325 49.8884C104.794 49.8884 105.922 49.4687 106.683 48.6293C107.443 47.7899 107.837 46.6358 107.837 45.1668V29.2969H116.703V45.1668C116.703 47.5014 116.126 49.5737 114.972 51.3312C113.817 53.1149 112.217 54.5052 110.198 55.5019C108.151 56.4987 105.817 56.9971 103.168 56.9971Z" fill="white"/>
<path d="M124.73 56.3676V35.5137H118.644V29.2969H139.996V35.5137H133.911V56.3676H124.73Z" fill="white"/>
<path d="M245.525 56.3676V29.2707H254.706C259.165 29.2707 262.522 30.0051 264.805 31.4479C267.06 32.8906 268.215 35.0415 268.215 37.8745C268.215 39.8419 267.716 41.5207 266.746 42.8847C265.775 44.2487 264.385 45.3242 262.601 46.0324C260.817 46.7669 258.719 47.1079 256.306 47.1079H254.26V56.3413H245.525V56.3676ZM255.912 41.6518C257.302 41.6518 258.378 41.3633 259.139 40.7862C259.899 40.2091 260.267 39.3435 260.267 38.1893C260.267 37.1138 259.899 36.3006 259.165 35.776C258.43 35.2514 257.355 34.9628 255.965 34.9628H254.181V41.6518H255.912Z" fill="white"/>
<path d="M270.969 56.3676V29.2969H279.468V50.1508H289.069L288.675 56.3676H270.969Z" fill="white"/>
<path d="M289.672 56.3676L297.148 29.2969H309.896L317.713 56.3676H308.06L307.037 51.1738H300.033L298.879 56.3676H289.672ZM300.873 46.3472H306.119L303.548 34.5169L300.873 46.3472Z" fill="white"/>
<path d="M319.838 56.3676V29.2969H327.707L338.331 43.6716V29.2969H345.571V56.3676H337.701L327.078 42.5962V56.3676H319.838Z" fill="white"/>
<path d="M349.899 56.3676V29.2969H368.917V35.2776H359.473V40.078H368.077V45.0357H359.473V50.2032H368.917V56.3676H349.899Z" fill="white"/>
<path d="M376.707 56.3676V35.5137H370.622V29.2969H392V35.5137H385.862V56.3676H376.707Z" fill="white"/>
</svg>
